<?xml version="1.0" encoding="UTF-8" standalone="no"?>
<!-- Created with Inkscape (http://www.inkscape.org/) -->

<svg
   xmlns:dc="http://purl.org/dc/elements/1.1/"
   xmlns:cc="http://creativecommons.org/ns#"
   xmlns:rdf="http://www.w3.org/1999/02/22-rdf-syntax-ns#"
   xmlns:svg="http://www.w3.org/2000/svg"
   xmlns="http://www.w3.org/2000/svg"
   xmlns:sodipodi="http://sodipodi.sourceforge.net/DTD/sodipodi-0.dtd"
   xmlns:inkscape="http://www.inkscape.org/namespaces/inkscape"
   id="svg4176"
   version="1.1"
   inkscape:version="0.91 r13725"
   width="411.5625"
   height="616.875"
   viewBox="0 0 411.5625 616.875"
   sodipodi:docname="UtahHoneysuckle.svg">
  <metadata
     id="metadata4182">
    <rdf:RDF>
      <cc:Work
         rdf:about="">
        <dc:format>image/svg+xml</dc:format>
        <dc:type
           rdf:resource="http://purl.org/dc/dcmitype/StillImage" />
        <dc:title></dc:title>
      </cc:Work>
    </rdf:RDF>
  </metadata>
  <defs
     id="defs4180" />
  <sodipodi:namedview
     pagecolor="#ffffff"
     bordercolor="#666666"
     borderopacity="1"
     objecttolerance="10"
     gridtolerance="10"
     guidetolerance="10"
     inkscape:pageopacity="0"
     inkscape:pageshadow="2"
     inkscape:window-width="1600"
     inkscape:window-height="837"
     id="namedview4178"
     showgrid="false"
     inkscape:zoom="1.0861196"
     inkscape:cx="205.78125"
     inkscape:cy="308.4375"
     inkscape:window-x="-8"
     inkscape:window-y="-8"
     inkscape:window-maximized="1"
     inkscape:current-layer="svg4176" />
  <path
     style="fill:#000000"
     d="m 222.80262,602.66345 c -0.33831,-7.81636 -0.61512,-21.48115 -0.61512,-30.36619 l 0,-16.15463 -3.51563,-0.44058 c -7.12118,-0.89246 -6.84213,-2.18959 -6.29353,29.25483 0.31082,17.81486 0.15457,28.23026 -0.42892,28.59088 -1.83369,1.13328 -2.99537,-3.49667 -2.8805,-11.48046 0.0646,-4.48858 0.0895,-16.40268 0.0555,-26.47578 -0.0597,-17.66909 -0.12802,-18.31474 -1.93692,-18.31474 -1.04662,0 -1.88968,0.63608 -1.90822,1.43974 -0.0411,1.78028 -2.70004,6.57848 -2.74605,4.95536 -0.0183,-0.64454 -0.002,-1.4674 0.0363,-1.82859 0.0383,-0.36119 -0.85048,-0.99705 -1.97494,-1.41301 -1.6122,-0.59639 -1.92045,-1.25042 -1.45793,-3.09329 0.3651,-1.45464 0.18798,-2.33699 -0.46911,-2.33699 -0.58061,0 -0.81283,-0.63281 -0.51603,-1.40625 0.36705,-0.95652 -0.0506,-1.40625 -1.30595,-1.40625 -1.01504,0 -1.84555,-0.43511 -1.84555,-0.96692 0,-1.59811 2.93755,-2.21851 4.84982,-1.02427 1.92816,1.20415 2.89846,0.87971 6.1658,-2.0617 1.90195,-1.71221 2.10938,-2.76168 2.10938,-10.67189 0,-5.00371 0.52168,-10.06908 1.21422,-11.78971 0.89984,-2.23568 1.0819,-6.90046 0.70313,-18.01676 -0.2811,-8.25 -0.42981,-33.14063 -0.33046,-55.3125 0.11632,-25.96013 -0.16457,-41.2064 -0.78896,-42.82326 -1.52331,-3.94459 -3.19519,-3.83394 -5.99495,0.39677 -1.40369,2.12112 -4.34755,5.49053 -6.5419,7.48757 -2.19436,1.99704 -5.35661,6.24558 -7.02722,9.4412 -3.12914,5.98554 -10.6953,16.48324 -12.83642,17.80993 -0.66547,0.41234 -1.20994,1.20496 -1.20994,1.76137 0,2.40056 -23.39469,26.99672 -33.58946,35.3145 -15.7888,12.88188 -22.97082,17.16683 -33.07368,19.73249 -14.918412,3.78856 -21.975447,-1.36968 -28.628203,-20.9254 -1.905657,-5.60166 -2.208657,-8.29341 -2.208657,-19.62094 0,-7.22073 0.407032,-14.42418 0.904516,-16.00767 0.497483,-1.58348 2.026241,-6.25406 3.397238,-10.37906 1.370998,-4.125 2.810789,-8.83923 3.199537,-10.47607 l 0.706812,-2.97607 -5.744676,-0.0882 c -3.159572,-0.0485 -6.588427,-0.22207 -7.619677,-0.38568 -5.409688,-0.85829 -13.241823,-2.77768 -14.073885,-3.44904 -0.521888,-0.4211 -3.475012,-1.70695 -6.5625,-2.85748 -9.036272,-3.36727 -14.578338,-7.60571 -21.901657,-16.74985 -2.775313,-3.46534 -3.033882,-4.23295 -2.109375,-6.26202 0.579517,-1.2719 1.053667,-3.27017 1.053667,-4.44061 0,-6.04417 10.117674,-19.87221 20.049663,-27.40231 8.818512,-6.68588 25.277932,-13.541 45.106587,-18.78625 7.71212,-2.04008 30.60887,-2.49935 33.69566,-0.67588 2.08437,1.23131 4.4142,0.0577 9.81971,-4.9467 6.15055,-5.69409 21.88917,-12.7849 36.17213,-16.29683 3.55297,-0.87361 6.27307,-0.90484 11.23854,-0.12906 l 6.55104,1.0235 3.72571,-3.48821 c 2.04914,-1.91853 4.26883,-4.1919 4.93263,-5.05195 0.66382,-0.86005 2.638,-2.44818 4.38709,-3.52917 4.65551,-2.87728 4.41104,0.15429 4.35904,-54.05382 -0.0305,-31.71924 0.3169,-30.17963 -7.26384,-32.1978 -2.16964,-0.5776 -4.16835,-1.41192 -4.4416,-1.85403 -0.76979,-1.24556 -8.23355,-2.0956 -12.46254,-1.41936 -3.79574,0.60697 -3.81895,0.6365 -10.14815,12.90882 -5.6851,11.02346 -6.38773,12.98667 -6.76788,18.91014 -0.46847,7.29992 -0.48723,7.25769 8.24218,18.56518 7.52041,9.74145 8.37451,11.11474 9.00593,14.48055 0.43044,2.29447 0.16456,4.07021 -0.86167,5.7546 -1.3942,2.28837 -1.9281,2.43612 -8.80285,2.43612 -4.02525,0 -8.37332,-0.47595 -9.66238,-1.05767 -1.28906,-0.58172 -3.69254,-0.85352 -5.34106,-0.60399 -2.13988,0.32389 -3.85066,-0.15397 -5.98034,-1.67043 -2.44899,-1.74384 -3.29906,-1.92673 -4.74839,-1.02161 -1.90117,1.18729 -6.17946,0.51963 -7.93787,-1.23878 -0.58161,-0.5816 -1.35249,-1.98701 -1.71308,-3.12312 -0.36059,-1.13611 -1.15453,-2.12991 -1.76431,-2.20844 -0.60978,-0.0786 -1.53058,-0.19516 -2.0462,-0.25916 -2.06227,-0.25596 -3.28125,-1.69887 -3.28125,-3.884 0,-2.77665 3.1426,-14.38988 4.66248,-17.2298 1.07654,-2.01153 1.05562,-2.01804 -1.77773,-0.55286 -4.43335,2.29257 -5.53797,4.82846 -5.90516,13.55654 -0.29959,7.12117 -0.56034,8.06458 -2.66294,9.63439 -3.16121,2.36019 -7.59755,0.83241 -10.30539,-3.54899 -1.1747,-1.90069 -2.7314,-3.19833 -3.83685,-3.19833 -1.0231,0 -2.75963,-0.48138 -3.85897,-1.06972 -1.09933,-0.58834 -3.85588,-1.19387 -6.12566,-1.34561 -2.26978,-0.15174 -4.823064,-0.90542 -5.673958,-1.67484 -1.343878,-1.21521 -2.263378,-1.23235 -7.00076,-0.13055 -4.234895,0.98495 -8.739426,1.08492 -20.15625,0.44735 C 62.397403,270.46254 54.304687,269.70578 52.5,269.23244 35.566203,264.79093 24.537068,259.18577 15.604119,250.48141 5.5165934,240.65202 0,233.69503 0,230.80299 0,226.58501 5.3067446,212.94431 9.0963611,207.4213 12.917823,201.85188 21.328609,193.125 22.874842,193.125 c 0.518179,0 2.227854,-1.21597 3.799276,-2.70216 6.246727,-5.90788 40.864764,-18.20202 54.419632,-19.32641 18.510225,-1.53545 30.5221,-1.60403 36.6433,-0.20924 3.56493,0.81232 9.22389,1.97381 12.57545,2.5811 5.92006,1.07269 10.10632,2.22137 16.875,4.6304 6.12417,2.17965 16.72604,2.11979 22.8317,-0.12889 6.47558,-2.38495 9.73243,-6.14616 17.01205,-19.6466 4.40694,-8.17289 14.91767,-20.5107 17.47332,-20.5107 1.04257,0 -4.53254,-5.4957 -9.24799,-9.11628 l -3.02465,-2.32237 -2.76323,2.76321 c -4.04072,4.04072 -11.09744,8.29067 -16.85957,10.15377 -4.47031,1.44541 -6.39886,1.51594 -16.875,0.61712 C 132.83415,137.94322 100.33418,129.7527 82.477562,121.44612 66.488414,114.00826 48.602542,99.147291 33.911595,81.09375 29.043369,75.111244 20.625,63.084262 20.625,62.111734 c 0,-0.320238 -0.864671,-2.368422 -1.921492,-4.551522 C 17.646689,55.377113 16.567559,52.185323 16.305442,50.467345 15.624877,46.00675 19.157461,39.665056 24.569197,35.632256 35.533497,27.461714 66.78148,22.257826 86.25,25.360235 c 8.815359,1.404772 29.01333,6.323977 32.60993,7.94213 1.69328,0.761824 3.79662,1.385135 4.67408,1.385135 1.41338,0 24.03412,10.541217 31.73952,14.79055 6.92652,3.819805 13.35,8.768248 16.71926,12.879997 1.99005,2.428587 4.85709,5.739196 6.37119,7.356908 1.51411,1.617712 3.84965,4.628795 5.19012,6.691295 1.34046,2.0625 3.12529,4.59375 3.96629,5.625 1.91928,2.353449 7.24622,14.417737 9.10689,20.625 0.93153,3.10762 1.22651,6.6137 0.87517,10.40249 l -0.52994,5.71499 5.34187,3.92497 5.34187,3.92496 0.6046,-16.6712 c 0.33253,-9.16917 0.69875,-22.788397 0.81381,-30.26496 0.11507,-7.476563 0.57241,-14.287732 1.01632,-15.135933 0.5425,-1.036558 0.33477,-1.934204 -0.6336,-2.737869 -2.19393,-1.820805 -4.14488,-7.226447 -4.14488,-11.484545 0,-2.455882 1.17127,-6.219468 3.28483,-10.554942 3.7367,-7.664951 5.34391,-9.483026 6.78611,-7.676396 3.19618,4.003807 6.77195,14.546029 6.79293,20.027149 0.007,1.820576 -1.12705,4.447153 -3.03575,7.03125 l -3.04687,4.125036 -0.30766,22.5 c -0.16921,12.375 -0.0166,27.33487 0.33919,33.24415 0.62395,10.36392 0.69694,10.64594 2.06227,7.96875 0.77849,-1.52646 2.15081,-3.61915 3.04959,-4.6504 0.89879,-1.03125 2.72832,-3.78046 4.06563,-6.10935 1.33731,-2.32889 3.35258,-5.22304 4.47838,-6.43144 1.85974,-1.99621 2.06123,-3.28054 2.20363,-14.046898 l 0.15674,-11.849812 4.20373,-7.96875 c 8.97991,-17.022647 20.32285,-30.423454 34.59225,-40.868051 2.83594,-2.075787 6.65813,-4.869685 8.49377,-6.208662 1.83563,-1.338979 5.42157,-3.4844 7.96875,-4.767604 2.54718,-1.283204 9.06092,-4.595907 14.47498,-7.361563 5.41406,-2.765656 11.53125,-5.580187 13.59375,-6.254513 2.0625,-0.6743248 4.59375,-1.5654056 5.625,-1.9801788 1.9909,-0.8007513 17.1499,-4.6530624 21.09375,-5.3604918 1.28906,-0.2312263 4.875,-1.008646 7.96875,-1.7275993 3.71941,-0.86434888 9.92515,-1.2215263 18.31834,-1.05432925 12.00594,0.23916507 12.96948,0.40141422 17.79245,2.99605035 6.58926,3.5448478 7.70992,5.717349 7.1162,13.7954348 -0.74359,10.117313 -9.68068,27.91448 -22.79416,45.391908 -6.53403,8.708442 -17.98459,19.030456 -29.80783,26.87004 -5.15625,3.41893 -10.64063,7.071834 -12.1875,8.117559 -6.8194,4.61008 -10.05041,6.54769 -17.72372,10.62875 -4.49405,2.39016 -8.67281,4.34962 -9.28614,4.35436 -0.61332,0.005 -5.75577,1.91105 -11.42764,4.23628 -13.3588,5.47654 -24.67209,7.04349 -35.26178,4.88394 -7.79252,-1.58912 -12.22931,-3.38124 -16.15378,-6.52488 l -2.66555,-2.1352 -4.04713,4.65164 c -2.22593,2.5584 -6.5108,9.43854 -9.52195,15.28919 l -5.47481,10.63755 0.22354,34.3406 c 0.12293,18.88732 0.58903,34.70609 1.03576,35.15282 0.44673,0.44673 3.5102,1.43053 6.80772,2.18622 7.60362,1.74252 12.09787,3.51402 18.63526,7.34548 l 5.20716,3.05183 3.97685,-4.45552 c 5.31437,-5.95404 13.69129,-10.46955 26.07421,-14.05511 18.51448,-5.36099 37.35468,-3.86418 54.69524,4.3454 3.83253,1.81445 8.9496,4.72246 11.37128,6.46226 l 4.40302,3.16326 10.19124,-0.3335 c 8.9211,-0.29195 11.8323,0.0482 23.35899,2.72912 18.84544,4.38318 21.0316,6.05595 19.78652,15.13984 -0.87547,6.38725 -5.42876,13.92916 -12.54332,20.77631 l -4.08077,3.92741 4.12265,8.26009 c 5.026,10.07007 9.40589,27.06172 9.23432,35.82429 -0.11355,5.79887 -0.25527,6.13367 -4.19404,9.90768 -4.4632,4.27651 -15.19879,9.0591 -24.08688,10.73045 -2.83594,0.53329 -11.45236,1.44217 -19.14761,2.01974 -13.97825,1.04915 -21.26401,0.59695 -33.54118,-2.08177 -3.91093,-0.85332 -5.1206,-0.67641 -10.73606,1.57012 -6.13894,2.45597 -6.71893,2.51443 -19.36295,1.95195 -7.16895,-0.31892 -13.40688,-0.81002 -13.86208,-1.09135 -0.45518,-0.28132 -3.14697,-1.11561 -5.98174,-1.85397 -12.83363,-3.34274 -24.38967,-10.57791 -30.91838,-19.35781 -2.03843,-2.74133 -3.76535,-5.09395 -3.83761,-5.22808 -0.0723,-0.13412 -3.0163,0.92057 -6.54233,2.34375 -5.36799,2.16664 -6.5441,3.04517 -7.22928,5.40011 -0.79412,2.72937 0.90269,84.55333 1.78374,86.01563 0.233,0.38671 2.43683,0.70312 4.89739,0.70312 3.76118,0 4.6653,-0.35791 5.67634,-2.24706 1.46312,-2.73386 6.05708,-5.80666 13.96342,-9.33981 9.95909,-4.45049 17.44717,-6.09007 35.18489,-7.70402 14.23797,-1.29551 18.51907,-1.36249 26.37219,-0.41259 9.03727,1.09313 17.64662,2.97556 21.5625,4.71464 1.03125,0.45797 6.03392,2.56984 11.11704,4.69303 5.08314,2.12318 15.01414,7.39244 22.06891,11.70945 10.79861,6.60797 14.05152,9.17559 20.57167,16.23787 8.79419,9.5254 15.14863,17.7257 15.14863,19.54906 0,0.68031 0.36427,1.23693 0.80948,1.23693 0.4452,0 1.96428,2.63672 3.37573,5.85937 1.41143,3.22266 3.30004,7.33594 4.19689,9.14063 1.68908,3.3988 2.90505,7.37208 3.37045,11.01311 0.14811,1.15878 0.55458,3.7955 0.90328,5.85938 1.12994,6.6881 -0.1882,10.78865 -5.00154,15.55915 -2.40517,2.38376 -6.64037,5.34307 -9.41157,6.57623 -4.81005,2.14046 -5.95787,2.24199 -25.3125,2.23892 -36.09265,-0.006 -52.85164,-2.48256 -69.96147,-10.33984 -3.09375,-1.42074 -6.09496,-2.73335 -6.66936,-2.91692 -4.35203,-1.39091 -28.10789,-17.95033 -33.24596,-23.17466 -1.84405,-1.87502 -4.92714,-4.67475 -6.8513,-6.22162 -1.92417,-1.54688 -5.62168,-5.65797 -8.2167,-9.13578 -4.59698,-6.16078 -6.52563,-10.86979 -11.52107,-28.12985 -0.8581,-2.96484 -2.06596,-5.43687 -2.68414,-5.4934 C 226.76687,407.2113 225,407.14141 225,407.42422 c 0,0.18139 1.82573,3.19063 4.05719,6.68717 9.67178,15.15507 11.19833,19.35193 16.62122,45.69572 1.58798,7.71422 3.17481,14.52207 3.52628,15.12855 1.23201,2.12584 8.45016,7.58277 11.56061,8.73984 1.72752,0.64262 3.89639,1.56938 4.81971,2.05946 0.92332,0.49009 2.08347,0.64093 2.57813,0.33522 0.49464,-0.30571 0.89936,-0.10907 0.89936,0.43699 0,0.54606 0.63281,0.99283 1.40625,0.99283 0.77344,0 1.40625,0.35994 1.40625,0.79988 0,0.43994 2.03112,0.60472 4.5136,0.36618 7.41459,-0.71244 14.72912,1.28141 18.33981,4.9992 3.62861,3.73628 5.53511,4.02018 7.56218,1.12614 1.37933,-1.96926 1.46267,-1.98212 1.51884,-0.23438 0.055,1.71383 0.11948,1.70023 0.87973,-0.18567 1.10296,-2.73603 4.21027,-2.25907 4.23742,0.65044 0.0112,1.19859 0.53854,2.352 1.17188,2.56311 1.92128,0.64043 1.30093,1.81324 -1.59319,3.01202 -4.35005,1.80186 -5.64163,3.93723 -6.29735,10.41139 -0.70442,6.95513 -4.00735,15.15944 -7.64949,19.00099 -3.39204,3.57775 -10.63809,7.16547 -16.27011,8.05577 -3.41095,0.5392 -6.2168,0.28022 -10.83331,-0.99989 -3.42657,-0.95017 -6.25963,-1.62775 -6.29569,-1.50575 -0.0361,0.122 -1.09023,2.25743 -2.3426,4.7454 -2.46126,4.88959 -7.80201,10.02214 -13.46688,12.94187 -3.63042,1.87117 -17.43241,5.67858 -18.4059,5.07744 -0.29573,-0.18261 -0.60172,11.46944 -0.67997,25.89345 -0.13925,25.66422 -0.58842,32.65741 -2.09758,32.65741 -0.41176,0 -1.02545,-6.3952 -1.36377,-14.21155 z m -3.59324,-49.66043 c 6.82108,0.87477 9.68174,0.82155 15.48099,-0.28803 3.91256,-0.7486 8.07892,-1.87155 9.25857,-2.49544 4.61334,-2.43992 12.08332,-8.92054 12.59338,-10.92545 1.03767,-4.07885 -0.28892,-15.69127 -2.4175,-21.16184 -2.4741,-6.35853 -6.21502,-9.33999 -11.07795,-8.82895 -3.71629,0.39054 -3.7959,-0.30358 -1.26064,-10.99169 0.98242,-4.1417 2.14258,-9.18583 2.57812,-11.20917 0.43555,-2.02334 1.22877,-3.8213 1.76272,-3.99548 1.00266,-0.32707 6.4547,3.05057 13.21582,8.18747 3.6265,2.75529 4.03647,2.85841 6.41323,1.61309 l 2.53909,-1.33036 -2.19448,-1.35793 c -1.20696,-0.74687 -3.46011,-1.96774 -5.00698,-2.71305 -5.75448,-2.77261 -10.91356,-6.80882 -13.28667,-10.39483 -2.39753,-3.62292 -5.25002,-13.1323 -7.00762,-23.36136 -2.28779,-13.31473 -4.03926,-19.15572 -8.32585,-27.76584 -5.30343,-10.6526 -10.39731,-17.91182 -13.37541,-19.06116 -2.00317,-0.77309 -2.00981,-0.82066 -0.21514,-1.54169 2.33177,-0.93683 19.60855,-1.06121 27.67944,-0.19928 l 6.09375,0.65079 -6.09375,-1.42661 c -3.35156,-0.78464 -11.34418,-1.7103 -17.76138,-2.05704 l -11.66764,-0.63042 0.35573,-14.53125 c 0.45805,-18.71168 0.51228,-14.35447 -0.79929,-64.21875 -0.62386,-23.71875 -1.22416,-56.07637 -1.33398,-71.90583 -0.19479,-28.07381 -0.15363,-28.79318 1.67531,-29.28407 1.03125,-0.27678 2.71875,-0.51181 3.75,-0.52227 2.13415,-0.0217 16.29757,3.75131 26.64952,7.09913 7.83533,2.53394 9.98915,2.48904 3.137,-0.0654 -4.26951,-1.59165 -5.87165,-2.26337 -16.66152,-6.98561 -2.57813,-1.12834 -7.89319,-2.52257 -11.81125,-3.09832 l -7.12376,-1.04679 -0.6524,-23.49658 c -1.23511,-44.4825 -2.26097,-25.17368 -2.28823,43.06925 l -0.0272,68.17442 -5.44639,4.81228 c -7.51609,6.64102 -12.49453,11.74873 -12.49453,12.81895 0,0.4948 -0.52734,0.93345 -1.17188,0.9748 -1.83373,0.11762 -19.22917,20.30422 -24.97932,28.98733 -2.65039,4.00228 5.0013,-3.97796 13.65093,-14.23707 8.60458,-10.20568 19.8742,-21.73974 25.01499,-25.60195 4.64504,-3.48976 7.98239,-3.8384 6.70038,-0.69995 -0.99813,2.4435 -1.34775,10.97112 -1.70049,41.47647 -0.17589,15.21094 0.009,31.45312 0.41134,36.09375 0.40212,4.64062 0.79045,34.76482 0.86296,66.94267 0.0725,32.17785 0.36473,59.1121 0.64939,59.8539 0.37157,0.96831 1.69842,0.0807 4.70402,-3.14657 l 4.18645,-4.49532 -0.59,-18.79609 c -1.11168,-35.41552 -2.54301,-62.85918 -3.38666,-64.93449 -0.51934,-1.27751 -0.49694,-2.29033 0.0582,-2.63345 1.25762,-0.77725 1.13235,-8.27921 -0.15983,-9.57138 -0.58409,-0.58409 -0.78623,-1.78059 -0.4492,-2.65886 0.56816,-1.48062 0.75412,-1.46896 2.55409,0.15999 3.4166,3.09198 7.21348,12.04473 14.99304,35.35246 6.21957,18.634 7.3121,43.15356 2.55631,57.37155 -2.079,6.21544 -2.33748,6.54694 -5.28046,6.77232 -1.70196,0.13034 -4.02227,0.72764 -5.15625,1.32733 -3.67222,1.94202 -11.59982,9.16399 -14.23765,12.97037 -2.3484,3.38875 -2.52908,4.25764 -2.09316,10.06599 0.26241,3.49639 0.7597,7.22169 1.10511,8.27844 0.44514,1.36191 -0.06,2.60938 -1.73494,4.2843 -1.29962,1.29962 -2.78647,3.47691 -3.30412,4.83842 -0.9032,2.37562 -0.85006,2.43396 1.3176,1.44631 1.64668,-0.75028 4.52617,-0.73839 10.62599,0.0439 z m 8.60312,-7.37802 c -0.74357,-0.45955 -1.14101,-1.04648 -0.8832,-1.3043 0.25781,-0.25781 1.07713,-0.0927 1.8207,0.3668 0.74357,0.45955 1.14101,1.04648 0.8832,1.3043 -0.25781,0.25781 -1.07713,0.0927 -1.8207,-0.3668 z m -3.75,-2.8125 c 0,-0.51563 0.42187,-0.9375 0.9375,-0.9375 0.51562,0 0.9375,0.42187 0.9375,0.9375 0,0.51562 -0.42188,0.9375 -0.9375,0.9375 -0.51563,0 -0.9375,-0.42188 -0.9375,-0.9375 z m 13.125,-7.08658 c 0,-0.80387 0.42187,-1.20084 0.9375,-0.88217 0.51562,0.31867 0.9375,0.97639 0.9375,1.46158 0,0.4852 -0.42188,0.88217 -0.9375,0.88217 -0.51563,0 -0.9375,-0.65771 -0.9375,-1.46158 z m 13.125,-2.70184 c 0,-1.31949 0.42187,-2.39908 0.9375,-2.39908 0.51562,0 0.9375,0.81885 0.9375,1.81967 0,1.00082 -0.42188,2.08041 -0.9375,2.39908 -0.53171,0.32861 -0.9375,-0.45902 -0.9375,-1.81967 z m -31.875,-3.76122 c 0,-2.80587 1.84848,-7.07536 3.06328,-7.07536 0.48803,0 0.59536,0.73828 0.23851,1.64062 -0.35684,0.90235 -0.87906,3.01172 -1.16046,4.6875 -0.59803,3.56119 -2.14133,4.09975 -2.14133,0.74724 z m 13.20525,-6.13786 c -0.0283,-1.28906 0.35741,-2.97656 0.85725,-3.75 0.75008,-1.16067 0.89978,-1.07881 0.85725,0.46875 -0.0283,1.03125 -0.4141,2.71875 -0.85725,3.75 -0.7379,1.71718 -0.81006,1.67773 -0.85725,-0.46875 z m 12.62809,-5.20834 c -0.88449,-1.34989 -1.39722,-2.66528 -1.13941,-2.92309 0.25781,-0.25782 1.19242,0.6357 2.07691,1.98559 0.88447,1.3499 1.39721,2.6653 1.1394,2.92311 -0.25781,0.25781 -1.19243,-0.63571 -2.0769,-1.98561 z m 33.15237,15.40022 c 14.98365,-2.56938 20.70749,-8.69058 21.18787,-22.6588 0.15641,-4.5479 0.61996,-5.88766 2.83832,-8.20313 l 2.65139,-2.76745 -3.54926,0 c -2.76956,0 -4.15304,-0.64635 -6.2977,-2.94221 -4.65003,-4.97787 -14.56094,-6.41464 -24.01946,-3.48206 -1.67578,0.51958 -3.04687,1.50714 -3.04687,2.1946 0,0.68745 -1.9498,2.19379 -4.3329,3.34744 -3.43952,1.66503 -4.72468,2.98319 -6.23301,6.393 l -1.9001,4.2955 2.07845,6.11249 c 1.14315,3.36186 2.57691,8.64374 3.18614,11.73749 1.10295,5.60103 1.12365,5.62743 4.85767,6.19508 5.9022,0.89729 6.06976,0.89432 12.57946,-0.22195 z m -9.08961,-6.02629 c -3.09565,-2.16827 -2.52308,-3.39096 0.72297,-1.54386 1.54362,0.87836 2.80924,1.91343 2.8125,2.30014 0.009,1.10414 -1.27009,0.83045 -3.53547,-0.75628 z m 12.9164,-7.03342 c 0,-1.06168 0.42187,-1.66959 0.9375,-1.35092 0.51562,0.31867 0.9375,1.18732 0.9375,1.93033 0,0.74301 -0.42188,1.35092 -0.9375,1.35092 -0.51563,0 -0.9375,-0.86865 -0.9375,-1.93033 z m 10.32685,-2.05405 c -0.008,-1.41796 0.40752,-2.57812 0.92315,-2.57812 1.18538,0 1.18538,1.91575 0,3.75 -0.70817,1.09582 -0.91195,0.83713 -0.92315,-1.17188 z m -30.09153,-4.56176 c -0.52347,-3.90461 0.54872,-8.86773 2.12634,-9.84274 0.75588,-0.46716 0.86035,-0.12788 0.34665,1.12572 -0.40444,0.98692 -1.02405,4.11472 -1.37694,6.95066 -0.60141,4.83337 -0.67005,4.94398 -1.09605,1.76636 z m 14.95078,-10.30031 c -1.55287,-1.70746 -1.99606,-2.71605 -1.19349,-2.71605 1.24917,0 4.73849,4.41175 4.02501,5.08906 -0.19875,0.18867 -1.47294,-0.87919 -2.83152,-2.37301 z m 12.3139,-4.17014 c 0,-0.79974 -1.47656,-2.07103 -3.28125,-2.82508 -3.64808,-1.52426 -4.16108,-2.28333 -1.54314,-2.28333 0.95595,0 2.85438,1.03454 4.21875,2.29898 2.53188,2.34648 3.22574,4.26352 1.54314,4.26352 -0.51563,0 -0.9375,-0.65434 -0.9375,-1.45409 z m -34.8264,4.87051 c 1.3501,-3.25737 2.91115,-5.39927 4.44412,-6.09774 2.95028,-1.34424 2.43059,-2.21506 -2.78504,-4.66669 -2.27082,-1.0674 -5.0126,-3.06438 -6.09288,-4.43772 -1.34573,-1.71082 -2.07658,-2.09337 -2.32128,-1.21501 -0.19644,0.70509 -1.20525,4.9944 -2.24182,9.53177 l -1.88466,8.2498 3.40085,1.72616 c 1.87048,0.94939 3.85057,1.77215 4.40023,1.82834 0.54964,0.0562 1.93586,-2.15732 3.08048,-4.91891 z m -23.87337,3.07498 c 3.63666,-0.91572 4.1448,-1.41212 5.51817,-5.39063 2.13133,-6.1742 3.79684,-20.96865 3.06524,-27.22804 -1.51661,-12.97601 -9.36251,-40.43068 -14.63645,-51.21648 l -1.83363,-3.75 0.46542,10.78125 c 0.25598,5.92969 0.68714,19.42969 0.95812,30 0.70568,27.5265 1.57497,47.8125 2.04883,47.8125 0.22483,0 2.21127,-0.45387 4.4143,-1.0086 z M 114.60096,495.09117 c 11.32051,-5.73139 20.17461,-11.57245 27.98596,-18.46236 10.6056,-9.35455 26.88705,-26.72338 36.00683,-38.41163 4.49673,-5.76317 13.0675,-21.27962 14.78645,-26.76926 8.514,-27.19037 9.29867,-31.19121 9.24923,-47.1592 -0.0222,-7.18027 -0.53737,-15.1959 -1.14474,-17.8125 -1.76937,-7.62257 -3.85361,-13.91671 -5.51068,-16.64156 l -1.53962,-2.53171 -2.76407,2.59813 c -7.02835,6.60642 -15.04321,16.59596 -16.17165,20.15602 -0.81925,2.58458 -1.04258,6.46647 -0.6798,11.81585 0.5424,7.99792 1.21613,10.93785 4.29732,18.75205 2.51991,6.39076 3.83616,17.73978 2.74021,23.62675 -1.15058,6.18038 -2.6089,9.85166 -4.14794,10.44224 -0.92019,0.3531 -0.89387,-0.38368 0.11867,-3.32257 3.12443,-9.06876 2.37033,-19.35412 -2.46051,-33.55892 -3.16005,-9.29194 -4.57254,-21.18744 -2.88931,-24.3326 0.61166,-1.14289 0.97245,-2.21599 0.80177,-2.38468 -0.41017,-0.40535 -11.81085,13.00229 -14.68956,17.27552 -1.2405,1.8414 -2.83983,3.68704 -3.55408,4.10141 -0.71424,0.41437 -2.16725,2.31281 -3.22891,4.21875 -1.06165,1.90594 -4.21996,7.05129 -7.01847,11.4341 -5.95583,9.32759 -10.80728,18.79681 -10.16379,19.83802 0.24879,0.40255 -0.24285,2.07629 -1.09254,3.71941 -2.37403,4.59087 -1.83448,13.22232 1.52767,24.43865 1.59262,5.31309 3.31963,11.45314 3.83781,13.64454 0.51817,2.19141 1.10329,3.98438 1.30025,3.98438 0.19697,0 2.49874,-0.84375 5.11504,-1.875 5.61289,-2.2124 6.1971,-2.28771 4.81342,-0.62048 -0.57263,0.68999 -2.71595,1.7563 -4.76293,2.36959 -2.04697,0.61329 -3.97644,1.52712 -4.28769,2.03075 -0.31126,0.50362 -0.64538,3.55058 -0.74249,6.77104 -0.13598,4.50952 -0.77822,6.87888 -2.7942,10.30847 -2.45638,4.17878 -2.85779,4.45313 -6.51563,4.45313 -4.08048,0 -3.98514,-1.45565 0.13296,-2.02999 1.23733,-0.17257 3.13577,-1.50552 4.21875,-2.96211 3.77287,-5.07443 2.1054,-22.48737 -3.6516,-38.1329 -0.89791,-2.44019 -1.62128,-7.47938 -1.71585,-11.95296 -0.0899,-4.25382 -0.27602,-7.73429 -0.41356,-7.73437 -0.56466,-3.8e-4 -13.42866,26.71913 -14.77976,30.69871 -0.80407,2.36832 -1.74724,4.76196 -2.09594,5.3192 -1.2524,2.00139 -1.12686,3.95812 0.81683,12.73192 3.12201,14.09266 3.27586,14.55844 4.68924,14.19656 4.26933,-1.0931 8.33845,-1.21876 8.33845,-0.2575 0,0.58352 -1.06823,1.06094 -2.37386,1.06094 -3.70451,0 -8.87614,2.51516 -8.87614,4.31679 0,2.16563 -4.45164,7.87071 -6.14146,7.87071 -1.87589,0 -1.75301,-0.31692 1.45396,-3.75 2.37261,-2.53988 2.81168,-3.76509 2.80727,-7.83352 -0.003,-2.6525 -0.43607,-6.37396 -0.96266,-8.26989 -0.52659,-1.89594 -1.28932,-5.90376 -1.69496,-8.90625 l -0.73751,-5.45909 -1.51391,3.46939 c -1.31347,3.01003 -8.36141,23.97398 -10.810493,32.15561 -0.668484,2.23319 -1.356412,2.80175 -3.339815,2.76029 -3.047555,-0.0637 -3.122725,0.49376 -0.389803,2.89073 4.951293,4.34264 8.262521,3.97669 20.617841,-2.2786 z m -18.03846,0.77569 c 1.940803,-1.35173 9.32809,-4.61686 10.44555,-4.61686 1.78495,0 -0.19916,1.73975 -4.18424,3.66889 -4.331776,2.09697 -8.90521,2.7894 -6.26131,0.94797 z m 55.3125,-46.4857 c 0,-0.37664 1.00799,-1.76259 2.23998,-3.07986 5.33393,-5.70319 6.43963,-20.13183 2.41066,-31.45755 -6.94577,-19.52507 -8.34553,-28.91757 -5.2125,-34.97619 0.85113,-1.64591 1.95855,-2.99256 2.46093,-2.99256 1.2679,0 1.15023,0.64207 -0.61001,3.32853 -2.49473,3.80744 -1.94712,12.72846 1.32069,21.51522 4.17575,11.22812 4.66885,12.66771 6.29464,18.37726 1.38743,4.87244 1.67075,5.21877 3.91795,4.7892 1.78296,-0.34084 2.3069,-0.11873 1.98493,0.84148 -0.24059,0.71751 -1.20769,1.30644 -2.14912,1.30874 -1.36453,0.004 -2.11878,1.61955 -3.71888,7.96875 -1.10395,4.38052 -2.7829,9.14185 -3.731,10.58077 -1.69663,2.57495 -5.20827,5.13453 -5.20827,3.79621 z m 15.98937,-25.39679 c 0.0764,-1.03571 5.57313,-5.21014 5.57313,-4.23245 0,1.15139 -3.62198,4.93558 -4.72403,4.93558 -0.49553,0 -0.87763,-0.31641 -0.8491,-0.70313 z M 183.75,404.17315 c 0,-0.51562 0.42187,-1.19823 0.9375,-1.5169 0.51562,-0.31867 0.9375,-0.15753 0.9375,0.3581 0,0.51562 -0.42188,1.19823 -0.9375,1.5169 -0.51563,0.31867 -0.9375,0.15753 -0.9375,-0.3581 z m 4.36616,-10.65753 c 0.74675,-3.99669 2.19634,-5.56324 2.19634,-2.37355 0,3.01689 -0.8655,5.42043 -1.95187,5.42043 -0.44756,0 -0.55757,-1.37109 -0.24447,-3.04688 z m 3.20998,-12.47706 c -0.0419,-1.57723 0.54326,-3.68661 1.3003,-4.6875 1.35799,-1.79543 1.37627,-1.79469 1.36396,0.0552 -0.007,1.03125 -0.59199,3.14062 -1.3003,4.6875 l -1.28781,2.8125 -0.0761,-2.86769 z m 2.74916,-13.11669 c 0.0206,-2.94417 1.07045,-6.04687 2.04603,-6.04687 0.52507,0 0.63409,1.27452 0.26064,3.04687 -0.76591,3.63491 -2.32532,5.66304 -2.30667,3 z m 1.8622,-20.13895 c 0,-2.07876 -0.86483,-6.34675 -1.92183,-9.48442 -2.27438,-6.75142 -1.68334,-8.48502 0.88098,-2.58401 2.17759,5.01108 3.59333,15.84801 2.0704,15.84801 -0.57749,0 -1.02955,-1.65957 -1.02955,-3.77958 z M 96.106903,489.13571 c 0.354778,-2.1887 1.687819,-6.62057 2.962313,-9.84859 1.274504,-3.22802 2.683224,-7.0249 3.130514,-8.4375 0.44728,-1.4126 1.45253,-4.57709 2.23389,-7.03221 1.35474,-4.25675 1.34157,-4.42151 -0.28394,-3.55157 -5.174852,2.7695 -17.265819,19.79393 -15.03645,21.17176 1.339398,0.82779 1.081588,4.40762 -0.285105,3.95885 -1.358433,-0.44606 -2.031231,-4.65002 -1.245318,-7.78136 0.297941,-1.18709 2.018382,-4.09289 3.823202,-6.45733 3.52211,-4.6142 4.381797,-9.7025 1.976552,-11.69868 -1.613045,-1.33871 -2.596576,-4.77158 -1.367077,-4.77158 0.496347,0 1.753632,1.92424 2.793966,4.27609 1.314872,2.97248 2.227659,4.02069 2.994159,3.43835 7.153111,-5.43452 9.443531,-7.8004 11.487671,-11.86607 1.3148,-2.61504 2.76955,-5.38743 3.23278,-6.16087 0.46322,-0.77344 1.92722,-3.9375 3.25333,-7.03125 1.3261,-3.09375 3.93354,-8.53746 5.7943,-12.09712 l 3.38319,-6.47211 -3.80758,2.25336 c -13.43184,7.94909 -18.04539,11.0455 -22.078787,14.81827 -5.441415,5.08981 -7.193513,8.21132 -7.193513,12.81583 0,2.87117 -0.221464,3.25881 -1.334196,2.33532 -2.826601,-2.34587 0.302049,-9.86236 6.845205,-16.4454 l 4.530901,-4.55852 -2.347932,-4.37715 c -1.712541,-3.19261 -2.170987,-5.08216 -1.694081,-6.98232 0.772303,-3.0771 1.628606,-2.59654 1.929272,1.0827 0.118078,1.44492 0.924081,4.2208 1.791131,6.16858 l 1.57644,3.54146 4.42976,-2.52302 c 2.43636,-1.38765 5.69538,-3.44612 7.24225,-4.57437 1.54688,-1.12825 4.17459,-2.75288 5.83937,-3.61029 3.38395,-1.74284 8.96165,-8.74545 13.16763,-16.53147 3.75798,-6.95674 12.36884,-20.72852 13.94786,-22.30754 0.7019,-0.70189 1.74996,-2.19249 2.32904,-3.31244 1.13973,-2.20426 1.2712,-2.30395 -7.62765,5.78396 -4.4167,4.01422 -15.35591,9.16452 -20.98106,9.87814 -4.98688,0.63264 -9.39239,2.99153 -14.94621,8.00279 -3.28709,2.96598 -6.953652,8.62107 -7.026899,10.8379 -0.01659,0.50274 -0.543262,1.08508 -1.170328,1.29411 -0.814556,0.27152 -0.951572,-0.39106 -0.479831,-2.32031 2.286138,-9.34953 17.478768,-20.98161 27.404008,-20.98161 4.5885,0 12.11822,-4.57532 19.90603,-12.09561 4.32408,-4.17554 8.20386,-7.59189 8.62176,-7.59189 0.4179,0 2.31212,-2.42578 4.20941,-5.39063 1.89728,-2.96484 4.65333,-7.18359 6.12454,-9.375 1.47121,-2.1914 2.28666,-3.98437 1.81209,-3.98437 -0.47457,0 -1.08725,0.36307 -1.36149,0.80682 -1.05557,1.70795 -11.73714,3.88784 -18.54885,3.78545 -9.87481,-0.14844 -15.26622,2.385 -21.24164,9.98152 -2.38426,3.03111 -3.87676,2.42096 -1.75242,-0.71641 6.08486,-8.98644 12.4521,-11.98238 25.46605,-11.98238 5.72898,0 9.34501,-0.5311 12.91405,-1.89673 5.86464,-2.24402 6.84081,-3.0485 14.79798,-12.1954 3.35001,-3.85089 6.82603,-7.81467 7.72447,-8.8084 0.89845,-0.99372 1.48462,-1.9557 1.30259,-2.13771 -0.63121,-0.63121 -14.19663,1.80292 -17.37132,3.11705 -1.75495,0.72644 -3.38456,1.12706 -3.62135,0.89026 -0.9443,-0.94429 6.07023,-4.25974 10.06289,-4.75625 7.56954,-0.94136 15.03053,-2.5765 15.03053,-3.29408 0,-1.85134 -16.23583,-2.71139 -17.34375,-0.91874 -0.31868,0.51562 -2.02728,0.9375 -3.7969,0.9375 -3.46975,0 -19.0416,7.55694 -24.79685,12.0338 -1.80469,1.40381 -4.44141,3.28803 -5.85938,4.18715 -1.41796,0.89913 -2.57812,2.25786 -2.57812,3.01941 0,0.76155 -0.61178,1.38464 -1.35951,1.38464 -2.1864,0 -13.81741,12.08307 -18.49971,19.21875 -5.32903,8.12128 -10.82658,18.04925 -13.75706,24.84375 -5.673126,13.15356 -9.651642,23.1367 -10.437975,26.19165 -0.472778,1.83678 -2.145789,7.88665 -3.717801,13.44416 -7.189068,25.4154 -7.638949,47.8168 -1.203339,59.91905 2.123576,3.99341 5.529625,7.20566 4.332488,4.08597 -0.910238,-2.37203 1.240346,-2.33946 2.322306,0.0352 1.431042,3.14079 2.63857,2.20179 3.427504,-2.66531 z M 119.04575,377.8125 c -0.79828,-3.05266 -0.64566,-4.68623 0.52893,-5.66104 1.95392,-1.62162 2.1313,-0.96335 0.76755,2.84854 -0.64564,1.80469 -1.22906,3.07031 -1.29648,2.8125 z m 18.76675,-29.53125 c 0.6419,-0.77344 1.58896,-1.40625 2.10458,-1.40625 0.52297,0 0.42145,0.62181 -0.22958,1.40625 -0.6419,0.77344 -1.58896,1.40625 -2.10458,1.40625 -0.52297,0 -0.42145,-0.62181 0.22958,-1.40625 z m 12.875,-9.02258 c 0.63594,-0.64071 1.39241,-0.92876 1.68106,-0.64011 0.28864,0.28865 -0.23167,0.81286 -1.15625,1.16492 -1.33613,0.50876 -1.44381,0.40108 -0.52481,-0.52481 z m 6.05078,-3.69226 c 0.22558,-0.67677 0.96386,-1.41504 1.64063,-1.64063 0.70312,-0.23437 1.05468,0.11719 0.82031,0.82031 -0.22559,0.67676 -0.96387,1.41504 -1.64063,1.64063 -0.70312,0.23437 -1.05468,-0.11719 -0.82031,-0.82031 z M 396.09375,487.62252 C 402.12724,484.73879 407.50868,480 404.75,480 c -0.83289,0 -1.81938,-0.49357 -2.19222,-1.09682 -0.46666,-0.75508 -0.14956,-0.89408 1.01775,-0.44615 3.6757,1.4105 6.7348,-4.94266 4.22262,-8.76953 -0.82058,-1.25 -1.02572,-1.25 -1.8463,0 -0.50773,0.77344 -0.96094,1.19531 -1.00716,0.9375 -0.0462,-0.25781 -0.26097,-1.41797 -0.47723,-2.57813 -0.41355,-2.21857 0.9756,-2.9475 1.78665,-0.9375 0.66884,1.65758 0.70762,-2.15927 0.047,-4.62262 -0.30213,-1.12652 -1.07599,-1.84202 -1.72353,-1.59354 -1.16277,0.44619 -4.26505,-3.36177 -4.26505,-5.23523 0,-1.8559 1.58172,-0.95458 2.82125,1.60764 1.87799,3.88199 2.32914,0.34451 0.51102,-4.00686 -0.8015,-1.91826 -1.45727,-4.13742 -1.45727,-4.93148 0,-2.04588 -8.13913,-15.85097 -12.12419,-20.5643 -9.70686,-11.48078 -18.84906,-19.84155 -27.30952,-24.97524 -4.86615,-2.95271 -9.48035,-5.76888 -10.25379,-6.25816 -3.35217,-2.1206 -17.92115,-8.42584 -24.375,-10.54914 -12.38672,-4.07519 -17.6097,-4.85704 -31.875,-4.77147 -23.64128,0.14179 -42.78387,5.07174 -57.03752,14.68935 -2.23782,1.50996 -3.71438,3.06258 -3.28125,3.45025 0.43314,0.38768 2.65789,1.15981 4.94389,1.71587 3.20499,0.77959 4.38523,0.74058 5.15625,-0.17044 1.86558,-2.20433 6.07998,-4.3315 8.58169,-4.3315 2.10839,0 2.31206,0.21624 1.32444,1.40625 -0.6419,0.77344 -1.85371,1.4212 -2.69291,1.43948 -0.83922,0.0183 -2.58053,0.62582 -3.86959,1.35013 -2.06108,1.15808 -2.11762,1.31558 -0.46875,1.3059 1.03125,-0.006 4.40625,0.39836 7.5,0.89869 6.11524,0.98897 24.81966,-0.0263 32.8125,-1.7812 4.92217,-1.08067 14.23802,-3.93727 27.76587,-8.51412 6.87031,-2.32442 8.66873,-2.6005 12.02612,-1.84614 5.99143,1.34619 5.68538,1.98787 -0.96386,2.02082 -3.79677,0.0188 -6.68686,0.53752 -7.83544,1.40625 -1.00089,0.75704 -2.51744,1.37644 -3.3701,1.37644 -0.85266,0 -4.04156,0.86119 -7.08644,1.91375 -13.29462,4.5957 -21.25441,6.40207 -32.9939,7.48758 -6.85177,0.63355 -12.33614,1.26405 -12.1875,1.4011 0.14864,0.13706 3.85619,1.62455 8.239,3.30553 4.38281,1.68097 13.24219,5.36941 19.6875,8.19652 6.44531,2.8271 13.61719,5.33142 15.9375,5.56514 3.81513,0.3843 11.84666,-0.76384 24.84375,-3.55151 2.57812,-0.55297 5.53125,-1.14425 6.5625,-1.31397 1.03125,-0.16972 4.56668,-1.19633 7.8565,-2.28136 7.51671,-2.47911 11.36671,-2.48152 18.68022,-0.0117 7.94373,2.68265 7.33831,3.8516 -0.87766,1.69456 -3.67658,-0.96525 -7.78986,-1.52167 -9.14063,-1.23649 -2.34478,0.49506 -11.89893,2.70119 -24.01843,5.54604 -9.84118,2.31005 -15.46532,3.28483 -18.9524,3.28483 -3.97776,0 -3.65914,0.45179 2.97126,4.21325 2.73205,1.5499 6.90128,4.00837 9.26496,5.46328 2.36367,1.45489 6.52926,3.503 9.25688,4.55135 2.72762,1.04835 6.6468,2.55215 8.7093,3.34179 2.80793,1.07503 6.57619,1.3616 15,1.14076 19.68383,-0.51607 27.33637,-0.0538 32.77116,1.97961 2.76472,1.03442 5.59255,2.57664 6.28406,3.42714 1.10752,1.36219 1.03394,1.46001 -0.61772,0.82135 -12.7644,-4.93573 -17.29154,-5.54401 -30.59063,-4.11021 -5.87429,0.6333 -11.17836,0.66415 -15.18339,0.0883 -3.3854,-0.48679 -5.94238,-0.54059 -5.68218,-0.11957 0.26022,0.42101 1.02413,0.76549 1.6976,0.76549 0.67347,0 2.25493,0.81054 3.51435,1.80121 3.09637,2.43559 10.92838,6.90547 19.99425,11.41108 4.125,2.05007 8.97656,4.50141 10.78125,5.44744 1.80469,0.94601 5.37626,2.69405 7.93685,3.88454 2.56057,1.19047 4.101,2.34936 3.42317,2.57531 -0.67783,0.22594 -2.14004,-0.0221 -3.24934,-0.55117 -12.30993,-5.87125 -28.35087,-14.10311 -32.48568,-16.67098 -5.55921,-3.45248 -7.93414,-4.21714 -4.87424,-1.56936 1.04279,0.90235 4.03999,5.89461 6.66043,11.09392 2.94429,5.84186 6.17552,10.75887 8.45808,12.87078 4.48571,4.15033 11.76201,7.09251 16.00164,6.47026 2.14787,-0.31525 2.88358,-0.12994 2.42568,0.61097 -1.86093,3.01105 -13.7868,0.0763 -19.01277,-4.6787 l -3.93493,-3.58031 -4.03382,2.30619 c -2.2186,1.2684 -4.87757,2.30408 -5.90882,2.30149 -1.24683,-0.003 -0.30457,-0.93592 2.8125,-2.78425 2.57813,-1.52876 5.07104,-2.91503 5.53982,-3.08062 0.46877,-0.16558 -0.90233,-3.30541 -3.04688,-6.9774 -2.14456,-3.67198 -3.89919,-7.08444 -3.89919,-7.58325 0,-0.4988 -1.89844,-3.01843 -4.21875,-5.59918 -2.32031,-2.58074 -4.21875,-5.09119 -4.21875,-5.57876 0,-0.48758 -1.56162,-1.69122 -3.47028,-2.67476 -1.90865,-0.98354 -6.56143,-3.58122 -10.3395,-5.77263 -3.77807,-2.1914 -7.13365,-3.98437 -7.45685,-3.98437 -0.3232,0 -1.93311,-1.02624 -3.57758,-2.28054 -3.21428,-2.45165 -14.63459,-8.24066 -15.1803,-7.69496 -0.1818,0.18181 1.27937,1.98947 3.24705,4.01702 4.24189,4.37098 10.80853,15.99839 13.29662,23.54401 3.08131,9.34473 4.20314,11.81634 7.68303,16.92721 3.80868,5.59379 8.54234,8.61226 13.50599,8.61226 1.98792,0 3.10543,0.37951 2.76057,0.9375 -0.31867,0.51563 -2.0923,0.9375 -3.9414,0.9375 -4.91376,0 -10.57811,-4.01733 -14.75072,-10.46165 -2.9699,-4.5868 -3.74952,-5.278 -4.62727,-4.1024 -0.58059,0.77759 -2.53217,1.64078 -4.33686,1.91823 -3.03746,0.46695 -3.10712,0.42595 -0.9375,-0.5518 6.01635,-2.71128 5.94938,-2.44678 3.06729,-12.11488 -3.79265,-12.72261 -12.44687,-26.12739 -18.32405,-28.38268 -0.89004,-0.34153 -1.61824,-1.04898 -1.61824,-1.5721 0,-1.10038 -7.1865,-4.86043 -12.65625,-6.62189 -2.0625,-0.6642 -4.59375,-1.74868 -5.625,-2.40997 -2.35023,-1.50708 -10.84851,-4.61925 -16.40625,-6.00817 -2.32031,-0.57986 -5.00391,-1.28342 -5.96353,-1.56347 -0.95964,-0.28005 1.21708,2.41763 4.83714,5.99485 3.62006,3.57723 7.37223,7.94475 8.33816,9.70561 0.96593,1.76087 2.99748,5.10001 4.51456,7.42032 1.51709,2.32031 3.49808,5.69531 4.40221,7.5 1.77657,3.54608 3.71844,6.75078 4.54459,7.5 0.28429,0.25781 1.26406,2.46131 2.17729,4.89667 0.91322,2.43535 3.54428,6.71625 5.8468,9.51309 3.26439,3.96521 5.22603,5.42523 8.90682,6.62916 2.59623,0.84917 5.52484,1.28865 6.50803,0.9766 0.98317,-0.31205 2.47626,-0.18196 3.31797,0.28908 3.08766,1.72794 -4.2599,2.13512 -9.79679,0.54291 -7.19579,-2.06925 -12.20067,-7.58357 -19.19497,-21.1488 -7.14522,-13.85794 -9.86434,-18.71674 -11.48496,-20.52253 -0.73058,-0.81404 -1.32832,-1.92138 -1.32832,-2.46076 0,-1.6552 -12.02024,-13.22586 -16.41583,-15.80185 -2.5253,-1.47992 -7.04688,-2.89392 -11.56963,-3.6181 l -7.42427,-1.18875 0.91332,2.89977 c 0.50233,1.59486 1.52363,5.43101 2.26954,8.52476 2.48803,10.31931 4.3218,15.25634 6.56539,17.67594 1.22319,1.31917 2.22398,2.76882 2.22398,3.22144 0,1.66861 21.80408,20.82245 28.59375,25.11823 1.54687,0.97871 5.13281,3.51193 7.96875,5.62939 13.91897,10.39264 27.63552,16.1326 45.46875,19.02732 10.27169,1.66733 10.81306,1.69496 36.09375,1.84272 l 23.90625,0.13973 5.625,-2.6885 z m -7.96875,-4.16808 c 0,-0.47463 9.6927,-5.32944 10.64032,-5.32944 1.82895,0 0.14453,1.78794 -2.90595,3.08455 -4.2557,1.80889 -7.73437,2.81857 -7.73437,2.24489 z m 7.96875,-7.20444 c -0.31867,-0.51563 0.0783,-0.9375 0.88217,-0.9375 0.80387,0 1.46158,0.42187 1.46158,0.9375 0,0.51562 -0.39698,0.9375 -0.88217,0.9375 -0.48519,0 -1.14291,-0.42188 -1.46158,-0.9375 z M 284.0625,457.5 c 0,-0.51563 0.44677,-0.9375 0.99283,-0.9375 0.54606,0 0.73209,0.42187 0.41342,0.9375 -0.31867,0.51562 -0.76545,0.9375 -0.99283,0.9375 -0.22738,0 -0.41342,-0.42188 -0.41342,-0.9375 z m -9.60938,-3.42971 c -3.48046,-1.85644 -6.32812,-3.73209 -6.32812,-4.16811 0,-0.64612 13.58129,5.92571 14.92188,7.22053 1.53184,1.47956 -3.34422,-0.25238 -8.59376,-3.05242 z M 262.96875,446.25 c -1.482,-1.54688 -2.21018,-2.8125 -1.61817,-2.8125 1.1982,0 4.89942,3.67468 4.89942,4.86428 0,1.20091 -0.41148,0.94362 -3.28125,-2.05178 z m 120.46875,-9.84375 c 0,-1.28906 0.42187,-2.34375 0.9375,-2.34375 0.51562,0 0.9375,1.05469 0.9375,2.34375 0,1.28906 -0.42188,2.34375 -0.9375,2.34375 -0.51563,0 -0.9375,-1.05469 -0.9375,-2.34375 z m -132.21532,-3.33322 c -0.5672,-1.05984 -0.86099,-2.43093 -0.65285,-3.04688 0.20813,-0.61595 1.09008,0.25119 1.95987,1.92697 0.8698,1.67579 1.16359,3.04688 0.65286,3.04688 -0.51073,0 -1.39267,-0.86714 -1.95988,-1.92697 z m 126.75519,-6.14076 c -3.20604,-3.62127 -3.45864,-4.11977 -2.08758,-4.11977 1.08514,0 6.10909,6.43862 5.49956,7.04814 -0.23904,0.23905 -1.77443,-1.07872 -3.41198,-2.92837 z m -132.19478,-7.98696 c -0.0866,-0.83789 -0.42432,-2.94726 -0.75032,-4.6875 -0.45653,-2.43706 -0.33413,-2.92319 0.53271,-2.11573 0.64849,0.60406 0.96647,2.59059 0.75032,4.6875 -0.20631,2.00154 -0.44603,2.95362 -0.53271,2.11573 z m 110.19073,-8.08594 c -0.47309,-2.46277 -0.17008,-3.80612 0.66923,-2.96683 0.9812,0.98121 1.60332,5.54496 0.75588,5.54496 -0.51142,0 -1.15271,-1.16016 -1.42511,-2.57813 z m -6.05145,-9.29276 c -1.29626,-0.52305 -1.61112,-2.19161 -0.41355,-2.19161 0.41707,0 1.57723,0.6194 2.57812,1.37644 1.35609,1.02569 1.46148,1.36517 0.41356,1.33223 -0.77344,-0.0243 -1.93359,-0.25699 -2.57813,-0.51706 z m -9.60937,-5.47286 c -1.28906,-0.73689 -3.08203,-1.35476 -3.98438,-1.37302 -0.90234,-0.0183 -1.64062,-0.48353 -1.64062,-1.03391 0,-0.60553 0.83293,-0.74373 2.10937,-0.34998 2.77259,0.85528 7.26563,3.15478 7.26563,3.71849 0,0.76612 -1.31963,0.42774 -3.75,-0.96158 z M 258.75,395.77549 c 0,-0.6815 4.00427,-2.96299 5.20036,-2.96299 1.34933,0 0.069,1.73608 -1.96322,2.66201 -2.84676,1.29707 -3.23714,1.33337 -3.23714,0.30098 z m 56.24858,-5.35023 c -2.25887,-1.25013 -2.26915,-1.2975 -0.28829,-1.32953 1.12973,-0.0183 2.33213,0.41671 2.67201,0.96664 0.99935,1.61698 0.1233,1.75034 -2.38372,0.36289 z m -43.59233,-0.74703 c 2.08971,-1.66462 6.09375,-2.06921 6.09375,-0.61573 0,0.51562 -0.73828,0.94326 -1.64063,0.9503 -0.90234,0.007 -2.69531,0.2707 -3.98437,0.58592 -2.28618,0.55903 -2.29769,0.53641 -0.46875,-0.92049 z m 12.02755,-2.17453 c 1.04915,-1.04915 6.41822,-1.34085 5.78373,-0.31423 -0.318,0.51454 -1.88923,0.93553 -3.49161,0.93553 -1.60238,0 -2.63384,-0.27959 -2.29212,-0.6213 z m 17.03495,-0.3162 c -1.78909,-0.7688 -1.77834,-0.80873 0.23437,-0.8716 1.16016,-0.0363 2.10938,0.35597 2.10938,0.8716 0,0.51562 -0.10547,0.90785 -0.23438,0.8716 -0.1289,-0.0363 -1.07812,-0.42845 -2.10937,-0.8716 z M 86.020216,417.34935 c 1.345375,-0.85417 6.497046,-14.53028 7.794415,-20.69179 0.477563,-2.26802 1.930163,-6.02358 3.22801,-8.34569 1.297856,-2.3221 2.20094,-4.38079 2.006868,-4.57486 -0.194072,-0.19407 -2.897868,1.03024 -6.008437,2.72069 -5.513186,2.99617 -13.353572,10.83088 -13.353572,13.34392 0,1.58332 -5.074626,7.07338 -6.538138,7.07338 -0.604103,0 0.19797,-1.57268 1.782384,-3.49485 1.584415,-1.92218 2.880754,-4.15022 2.880754,-4.95123 0,-2.69337 10.497681,-11.96743 16.875,-14.90803 6.72675,-3.10173 6.0292,-3.34209 -5.649594,-1.94676 -10.341154,1.23552 -16.975125,2.74237 -18.725406,4.25332 -0.773438,0.66769 -2.497616,1.48625 -3.831508,1.81902 -3.112296,0.77647 -11.489994,9.00563 -13.517109,13.27745 -1.74655,3.68059 -2.890971,3.59091 -1.951335,-0.15291 0.337002,-1.34272 3.360075,-5.21583 6.717943,-8.60691 5.997465,-6.05681 6.050683,-6.1546 3.015485,-5.54101 -1.699349,0.34353 -5.831914,1.02426 -9.183476,1.51274 -3.351562,0.48848 -9.001887,1.72808 -12.556277,2.75467 -3.55439,1.02659 -6.823921,1.64317 -7.265625,1.37019 -0.441704,-0.27299 -0.78968,-0.15505 -0.773283,0.2621 0.04913,1.24997 2.449953,4.03971 3.476526,4.03971 0.525738,0 2.631338,2.21912 4.679113,4.93138 2.252184,2.98299 5.537731,5.90431 8.315761,7.39389 4.800523,2.57405 10.865747,4.69618 7.63941,2.67291 -0.902344,-0.56586 -1.640625,-2.11423 -1.640625,-3.4408 0,-1.99264 -0.234623,-2.21725 -1.349557,-1.29193 -1.543479,1.28097 -6.322553,0.9837 -6.779236,-0.4217 -0.17415,-0.53593 1.401167,-0.893 3.677701,-0.83362 6.10182,0.15918 6.326092,0.23719 6.326092,2.20035 0,3.99866 11.893253,8.39626 14.8125,5.47702 0.625,-0.625 1.125,-0.70834 1.125,-0.1875 0,0.51562 -0.49242,1.42992 -1.094266,2.03177 -0.834022,0.83402 -0.778281,1.19539 0.234375,1.51947 0.730752,0.23386 1.961454,0.63626 2.734891,0.89422 2.292422,0.76457 11.621897,0.64982 12.895216,-0.15861 z m -7.277986,-2.27123 c -3.94662,-2.68757 -5.169144,-4.67794 -4.240466,-6.90382 0.6354,-1.52294 0.851104,-1.35973 1.555927,1.17722 0.621411,2.23672 1.720297,3.3062 4.567786,4.44554 2.062238,0.82514 3.749523,1.92555 3.749523,2.44535 0,1.55962 -2.344394,1.07504 -5.63277,-1.16429 z m 122.88784,-7.9556 c 3.11809,-6.18701 4.33364,-6.96239 6.89671,-4.3993 2.08261,2.08261 1.93993,-0.0418 -0.31933,-4.75447 -0.98877,-2.0625 -2.30651,-5.01563 -2.92831,-6.5625 -1.33532,-3.32193 -1.26553,-3.44606 -5.00793,8.90625 -3.69181,12.18532 -3.99628,13.8317 -2.29962,12.43502 0.77418,-0.6373 2.42051,-3.16855 3.65848,-5.625 z m 54.5418,-0.86841 c -0.64453,-0.26007 -1.69921,-0.26007 -2.34375,0 -0.64453,0.26007 -0.11718,0.47287 1.17188,0.47287 1.28906,0 1.81641,-0.2128 1.17187,-0.47287 z M 35.133577,383.92528 c 1.755016,-4.04412 3.964005,-6.7027 4.840747,-5.82595 0.413944,0.41394 0.294172,1.04609 -0.266161,1.40477 -0.560332,0.35868 -1.97588,2.55059 -3.145663,4.8709 -1.169783,2.32031 -2.597548,4.5287 -3.172813,4.90752 -1.610233,1.06037 -0.680735,0.92217 14.642708,-2.177 14.47023,-2.92662 17.479135,-3.45214 20.873855,-3.64579 1.350092,-0.0771 0.779017,-0.68561 -2.039906,-2.17397 -2.153199,-1.13685 -5.950635,-4.00042 -8.438748,-6.36347 -2.488112,-2.36305 -5.050623,-4.12087 -5.694469,-3.90625 -0.643845,0.21462 -1.170627,-0.27776 -1.170627,-1.09417 0,-0.8164 0.597656,-1.48437 1.328125,-1.48437 0.730468,0 1.540913,-0.52734 1.800987,-1.17188 0.260074,-0.64453 0.506168,-0.27117 0.546875,0.82968 0.04092,1.1067 1.22664,2.73401 2.652138,3.63987 1.417969,0.90106 3.554986,2.84427 4.748928,4.31823 3.247755,4.00947 10.48725,5.85375 18.117884,4.61557 3.278722,-0.53201 7.754282,-0.97049 9.945688,-0.97439 2.191406,-0.004 3.984375,-0.38793 3.984375,-0.85342 0,-0.46549 -2.344532,-2.40255 -5.210071,-4.30459 C 84.23823,371.05899 72.1875,359.72923 72.1875,358.28107 c 0,-1.20613 8.670995,-4.84357 11.546147,-4.84357 1.83528,0 -0.479819,1.41475 -3.881045,2.3717 -1.88729,0.53099 -3.557087,1.61789 -3.71066,2.41532 -0.325531,1.69035 10.694755,12.76948 14.526769,14.60433 1.436896,0.68802 4.046023,2.30174 5.798052,3.58605 3.157912,2.31486 5.720737,3.02627 5.720737,1.58802 0,-0.89456 7.92548,-13.07076 9.99934,-15.36234 1.32706,-1.46639 1.28014,-1.83862 -0.52037,-4.12759 -1.95752,-2.48858 -2.67834,-6.01299 -1.2298,-6.01299 0.41204,0 1.2831,1.47656 1.93568,3.28125 0.65258,1.80469 1.47562,3.27224 1.82896,3.26123 0.35334,-0.011 1.79338,-1.64761 3.20007,-3.63691 l 2.55764,-3.61689 -2.79201,-0.5584 c -1.5356,-0.30713 -4.1631,-0.33247 -5.83888,-0.0564 l -3.04688,0.50208 2.34375,-1.41656 c 1.58405,-0.9574 3.71121,-1.25827 6.5625,-0.9282 3.79237,0.43901 4.49609,0.19843 6.96291,-2.38043 1.50928,-1.57783 2.42393,-3.18959 2.03255,-3.58169 -0.39137,-0.3921 -6.4778,-0.85588 -13.52539,-1.03064 -13.214873,-0.32768 -13.634892,-0.26342 -31.896703,4.87981 -7.971534,2.2451 -22.641374,8.97972 -28.241037,12.96489 -2.825032,2.01051 -7.072905,6.06131 -9.439719,9.00176 -5.10897,6.34722 -14.208414,22.12673 -11.178325,19.38454 1.101652,-0.99698 2.555958,-3.08688 3.231791,-4.64423 z M 42.1875,375 c 0,-0.51563 0.421875,-0.9375 0.9375,-0.9375 0.515625,0 0.9375,0.42187 0.9375,0.9375 0,0.51562 -0.421875,0.9375 -0.9375,0.9375 -0.515625,0 -0.9375,-0.42188 -0.9375,-0.9375 z M 45,372.1875 c 1.835974,-1.1865 3.077046,-1.1865 2.34375,0 -0.318674,0.51562 -1.29279,0.93104 -2.164703,0.92315 C 43.812851,373.09827 43.788106,372.97069 45,372.1875 Z m 10.3125,-9.31078 c 0,-0.75951 4.103094,-3.81422 5.123266,-3.81422 1.395496,0 0.170572,1.58795 -2.316694,3.00327 -1.543614,0.87836 -2.806572,1.24329 -2.806572,0.81095 z m 9.37688,-4.9861 c -0.001,-0.38671 1.474682,-0.70312 3.27937,-0.70312 1.804687,0 3.28125,0.42162 3.28125,0.93694 0,0.51531 -1.475717,0.83172 -3.27937,0.70312 -1.803655,-0.12859 -3.280217,-0.55022 -3.28125,-0.93694 z m 39.6075,-6.05224 c -1.16016,-0.22346 -2.10938,-0.79882 -2.10938,-1.27858 0,-1.31137 2.21982,-1.04952 4.27394,0.50414 1.85078,1.39985 1.58194,1.49604 -2.16456,0.77444 z m 103.86873,20.58349 c 0.0223,-8.63671 0.2767,-24.4615 0.56524,-35.16618 0.28854,-10.70469 0.25492,-20.1659 -0.0747,-21.02492 -0.48964,-1.27598 -1.45109,-0.72292 -5.25275,3.02157 -2.55936,2.52088 -4.65339,5.1556 -4.65339,5.85493 0,0.69933 1.49573,5.77769 3.32382,11.28524 4.02116,12.11458 5.87816,30.78271 4.08588,41.07472 -1.06235,6.10043 -0.61521,10.65777 1.04566,10.65777 0.56297,0 0.93539,-6.0903 0.96025,-15.70313 z m 94.64689,-44.73355 c 1.28906,-0.0445 3.18154,-0.56435 4.2055,-1.15506 1.78246,-1.0283 1.75819,-1.10003 -0.56998,-1.68436 -1.439,-0.36118 -3.88436,-0.004 -5.99006,0.87644 -4.15753,1.73713 -5.52157,1.27281 -1.8745,-0.63808 l 2.49922,-1.30948 -4.05696,-1.21348 c -2.23134,-0.66741 -5.16867,-2.00382 -6.5274,-2.96979 -1.35873,-0.96597 -4.31186,-2.61025 -6.5625,-3.65396 -2.25064,-1.04371 -5.99051,-3.15706 -8.31082,-4.69634 -2.32031,-1.53928 -5.27344,-3.32784 -6.5625,-3.97457 -8.13098,-4.07941 -18.74755,-15.26917 -21.57365,-22.73839 l -1.06414,-2.8125 -1.69918,4.6875 c -0.93454,2.57812 -1.98434,5.3762 -2.33287,6.21793 -0.56009,1.35266 -0.11889,1.43424 3.79859,0.70239 4.05191,-0.75699 6.02563,-0.54345 4.94698,0.5352 -0.23334,0.23334 -2.72944,0.83282 -5.54687,1.33216 -14.86455,2.63452 -26.21636,6.89586 -26.21636,9.84133 0,1.47952 0.25,1.65224 1.125,0.77724 0.61875,-0.61875 1.67551,-1.125 2.34834,-1.125 0.67285,0 3.40962,-1.05469 6.08172,-2.34375 2.67209,-1.28906 5.80662,-2.34375 6.96561,-2.34375 1.159,0 3.08395,-0.36537 4.27767,-0.81194 3.8396,-1.43639 12.95166,-2.23176 12.95166,-1.13052 0,0.55273 -1.50893,1.00496 -3.35318,1.00496 l -3.35318,0 3.1188,2.5518 c 1.71534,1.40348 6.01782,5.20036 9.56106,8.4375 3.54324,3.23713 6.95889,5.8857 7.59034,5.8857 1.79078,0 7.06116,2.85022 7.06116,3.81866 0,1.31562 -0.52183,1.13663 -7.20299,-2.47077 -3.40187,-1.83678 -9.01173,-5.87025 -12.46635,-8.96326 -8.46779,-7.58139 -10.66173,-8.66278 -14.64955,-7.22076 l -3.11725,1.12721 3.46435,4.27633 c 4.62877,5.7137 5.5421,6.62009 6.67074,6.62009 0.52684,0 1.29525,0.56982 1.70759,1.26627 1.1698,1.97583 10.74847,7.93127 13.87471,8.62647 1.54687,0.344 4.71094,1.24857 7.03125,2.01016 6.3945,2.09886 21.44226,3.96771 26.71875,3.31833 2.57812,-0.31729 5.74219,-0.61335 7.03125,-0.65791 z M 286.875,325.3125 c 0,-0.51563 0.81885,-0.9375 1.81967,-0.9375 1.00082,0 2.08041,0.42187 2.39908,0.9375 0.32861,0.53171 -0.45902,0.9375 -1.81967,0.9375 -1.31949,0 -2.39908,-0.42188 -2.39908,-0.9375 z M 277.03125,322.5 c -0.32861,-0.53171 0.45902,-0.9375 1.81967,-0.9375 1.31949,0 2.39908,0.42187 2.39908,0.9375 0,0.51562 -0.81885,0.9375 -1.81967,0.9375 -1.00082,0 -2.08041,-0.42188 -2.39908,-0.9375 z m 96.57572,1.17862 c 11.81906,-3.19335 16.6615,-5.43415 20.51907,-9.49505 2.65219,-2.79198 2.70564,-3.04464 2.1504,-10.16399 -0.77667,-9.95842 -4.57695,-23.85339 -8.53515,-31.20708 -1.80401,-3.35156 -4.17954,-7.86524 -5.27897,-10.0304 -1.09941,-2.16515 -2.59539,-4.43165 -3.32438,-5.03667 -0.72899,-0.60501 -1.32544,-1.6068 -1.32544,-2.2262 0,-1.25395 -11.65783,-15.3589 -18.53183,-22.42189 -7.18537,-7.38293 -14.82291,-12.84171 -27.75325,-19.8361 -6.03542,-3.26473 -20.88468,-6.07374 -32.10759,-6.07374 -16.16816,0 -31.05683,5.37908 -41.44007,14.97177 l -4.98899,4.60915 3.90797,1.99369 c 2.14938,1.09653 4.14467,1.75698 4.43398,1.46768 0.2893,-0.28932 1.06443,-0.0792 1.7225,0.46698 1.67335,1.38875 10.98989,1.74854 17.93668,0.69266 3.2096,-0.48785 11.85804,-2.78854 19.21875,-5.11265 17.25302,-5.44757 22.64954,-6.36997 26.97685,-4.61104 1.80469,0.73357 4.78999,1.57829 6.634,1.87718 1.84401,0.29889 4.16432,1.18041 5.15625,1.95894 1.66986,1.31062 1.52562,1.37403 -1.9465,0.85577 -2.0625,-0.30786 -5.98045,-1.22379 -8.70656,-2.03542 -4.58261,-1.36437 -5.57283,-1.34898 -13.125,0.2039 -4.49264,0.92378 -10.91063,2.70241 -14.26219,3.9525 -7.56645,2.82221 -21.57414,5.85842 -27.1875,5.893 l -4.21875,0.026 3.81903,2.18419 c 9.23176,5.27984 34.95422,18.2721 38.36847,19.37968 3.80171,1.23328 19.35737,1.51794 21.18614,0.38771 2.03834,-1.25977 11.78311,-3.15847 16.37605,-3.19077 6.42214,-0.0452 15.09809,1.64216 19.12682,3.7198 3.38021,1.7432 10.46063,8.43431 8.92505,8.43431 -0.46613,0 -2.34186,-1.42631 -4.16829,-3.16958 -6.5572,-6.25867 -21.64935,-8.57852 -34.69152,-5.33251 -4.59936,1.14471 -10.90998,1.94765 -15.39867,1.95928 l -7.60558,0.0197 5.82361,3.73032 c 3.20299,2.05167 6.1962,3.73031 6.65157,3.73031 0.45538,0 1.5313,0.77717 2.39092,1.72703 0.85962,0.94988 5.03828,3.44411 9.28593,5.54274 6.63768,3.27949 9.10628,3.96113 17.56672,4.85068 14.70585,1.54619 22.1808,2.98711 25.28305,4.8737 3.40483,2.0706 8.66247,9.11855 7.81961,10.48232 -0.36472,0.59012 -1.19806,0.0677 -2.05633,-1.28899 -0.79369,-1.25468 -2.96092,-3.76989 -4.81605,-5.58935 -3.92126,-3.84588 -9.49165,-5.2091 -24.82403,-6.07509 -9.13074,-0.51572 -9.30265,-0.48849 -6.59832,1.0452 3.15357,1.78846 15.34093,10.49572 17.20327,12.29089 0.67648,0.65208 4.36451,3.54473 8.19562,6.4281 7.49687,5.64232 8.39018,6.56039 7.13702,7.3349 -0.44647,0.27593 -3.0322,-1.39364 -5.74607,-3.71016 -5.82836,-4.97501 -25.8543,-20.09947 -26.61322,-20.09947 -0.75213,0 1.44051,5.88478 5.28566,14.18597 2.13275,4.60437 4.43007,8.00592 6.44485,9.54267 3.63603,2.77333 11.40718,6.27136 13.93234,6.27136 0.95807,0 2.03417,0.47285 2.39135,1.05077 1.03887,1.68093 -7.30405,0.29965 -11.68286,-1.93425 -2.09207,-1.06729 -5.20433,-3.17025 -6.91614,-4.67324 -3.05236,-2.68001 -4.16373,-4.7371 -10.11643,-18.7251 -3.46539,-8.14314 -5.68115,-10.3463 -15.99307,-15.9021 -2.26133,-1.21835 -4.95525,-2.93953 -5.9865,-3.82485 -1.84214,-1.58147 -20.45675,-12.24123 -21.37625,-12.24123 -0.25837,0 0.69001,1.24155 2.10753,2.75901 3.18603,3.41065 9.57287,16.43202 11.72847,23.91175 2.53693,8.80294 8.64331,20.68131 12.26767,23.86353 3.46443,3.04181 7.80323,5.53771 11.67276,6.71477 2.31796,0.70509 2.31253,0.71587 -0.40107,0.79536 -3.59662,0.10536 -10.01108,-3.04622 -13.53407,-6.64961 -3.46419,-3.54326 -7.70697,-12.21431 -12.36209,-25.26462 -4.23822,-11.88161 -8.92148,-21.44775 -11.32682,-23.13647 -0.95969,-0.67377 -1.74488,-1.79384 -1.74488,-2.48904 0,-1.73621 -10.80885,-7.83046 -25.78125,-14.53601 -3.60938,-1.61649 -7.25609,-3.31516 -8.10382,-3.7748 -0.84772,-0.45964 -3.16658,-1.5148 -5.15302,-2.34479 l -3.61171,-1.50907 2.93116,3.09562 c 5.56111,5.87314 8.85186,15.42215 12.99397,37.70562 1.96421,10.56691 7.90635,21.58031 14.50408,26.88238 2.0803,1.67178 3.62476,3.1972 3.43213,3.38983 -0.82327,0.82326 -7.07898,-3.77928 -9.88843,-7.27526 -3.31899,-4.13004 -9.44811,-16.63782 -9.44811,-19.28088 0,-0.90231 -0.60551,-3.98855 -1.34558,-6.85832 -0.74007,-2.86976 -2.21009,-9.14801 -3.2667,-13.95166 -2.41553,-10.98161 -4.02377,-14.46567 -9.38366,-20.32859 -4.57921,-5.00898 -10.30272,-7.63981 -13.22191,-6.0775 -1.65797,0.88731 -2.75426,5.4443 -2.77183,11.52173 -0.006,1.96308 -0.48849,5.4682 -1.07291,7.78918 -0.84565,3.35839 -0.74372,6.46835 0.49929,15.23279 2.14746,15.14171 4.31919,20.08551 11.72669,26.6951 3.27149,2.91909 6.45349,5.30745 7.07112,5.30745 0.61762,0 3.19977,1.47656 5.7381,3.28125 2.53832,1.80469 5.07845,3.28125 5.64471,3.28125 0.56627,0 1.83325,0.88864 2.8155,1.97476 2.20614,2.4394 7.28673,5.06701 11.59891,5.99879 1.78776,0.3863 3.89713,1.06167 4.6875,1.50082 6.17783,3.4326 24.26369,8.7879 34.71827,10.28024 2.83594,0.40481 11.0625,0.60448 18.28125,0.44371 11.02197,-0.24549 14.7795,-0.73935 23.45072,-3.0822 z m -23.6851,-8.38737 c 0.90235,-0.2358 2.37891,-0.2358 3.28125,0 0.90235,0.23581 0.16407,0.42875 -1.64062,0.42875 -1.80469,0 -2.54297,-0.19294 -1.64063,-0.42875 z m 6.8506,-1.62085 c 1.00008,-0.73128 2.01771,-1.13021 2.26141,-0.88653 0.51596,0.51596 -1.90157,2.18069 -3.19744,2.20178 -0.48527,0.007 -0.064,-0.58397 0.93603,-1.31525 z M 382.5,314.0625 c 0,-0.51563 1.26562,-0.9375 2.8125,-0.9375 1.54687,0 2.8125,0.42187 2.8125,0.9375 0,0.51562 -1.26563,0.9375 -2.8125,0.9375 -1.54688,0 -2.8125,-0.42188 -2.8125,-0.9375 z M 313.125,311.25 c 0,-0.51563 0.86865,-0.9375 1.93033,-0.9375 1.06168,0 1.66959,0.42187 1.35092,0.9375 -0.31867,0.51562 -1.18732,0.9375 -1.93033,0.9375 -0.74301,0 -1.35092,-0.42188 -1.35092,-0.9375 z m -7.96875,-0.9375 c -0.69173,-1.11923 1.14542,-1.11923 3.75,0 1.67422,0.71944 1.60485,0.81277 -0.64779,0.8716 -1.38754,0.0362 -2.78354,-0.35598 -3.10221,-0.8716 z m 84.47467,-3.35959 c -0.35038,-0.91304 -0.14085,-1.34163 0.54422,-1.11328 1.40142,0.46714 2.17303,2.59787 0.94078,2.59787 -0.50342,0 -1.17167,-0.66806 -1.485,-1.48459 z m -0.18476,-4.49283 c -0.79426,-2.06982 0.26242,-3.1265 1.69447,-1.69445 0.84553,0.84553 0.84913,1.36961 0.0151,2.20364 -0.83402,0.83402 -1.24059,0.71292 -1.70957,-0.50919 z M 280.78125,297.1875 c -0.31867,-0.51563 0.0783,-0.9375 0.88217,-0.9375 0.80387,0 1.46158,0.42187 1.46158,0.9375 0,0.51562 -0.39698,0.9375 -0.88217,0.9375 -0.48519,0 -1.14291,-0.42188 -1.46158,-0.9375 z m -6.5625,-1.875 c -0.31867,-0.51563 -0.15753,-0.9375 0.3581,-0.9375 0.51562,0 1.19823,0.42187 1.5169,0.9375 0.31867,0.51562 0.15753,0.9375 -0.3581,0.9375 -0.51562,0 -1.19823,-0.42188 -1.5169,-0.9375 z m -7.98756,-3.30391 c -0.65223,-0.7859 -0.92502,-1.68976 -0.60619,-2.00859 0.68089,-0.6809 3.4375,1.41596 3.4375,2.61479 0,1.29136 -1.52798,0.96421 -2.83131,-0.6062 z m -6.51071,-6.94696 c -1.49395,-2.79148 -1.15889,-3.33524 0.90452,-1.46788 2.00881,1.81794 2.44161,3.28125 0.97048,3.28125 -0.49748,0 -1.34123,-0.81602 -1.875,-1.81337 z M 254.6875,275 c -0.92612,-0.92611 -0.75819,-5 0.20609,-5 0.45711,0 1.01685,1.26562 1.24389,2.8125 0.39714,2.70595 -0.13249,3.50498 -1.44998,2.1875 z m 123.125,-4.11783 c 0,-1.06168 0.42187,-1.66959 0.9375,-1.35092 0.51562,0.31867 0.9375,1.18732 0.9375,1.93033 0,0.74301 -0.42188,1.35092 -0.9375,1.35092 -0.51563,0 -0.9375,-0.86865 -0.9375,-1.93033 z m -124.31975,-7.98206 c -0.34202,-1.36273 -0.14583,-2.87203 0.45089,-3.46875 0.78348,-0.78348 1.05636,-0.16031 1.05636,2.41239 0,4.03956 -0.64505,4.49165 -1.50725,1.05636 z m 1.09179,-13.75949 c 0.79077,-2.57257 1.18639,-3.05718 1.90731,-2.33627 0.80792,0.80792 -0.5162,4.44565 -1.61821,4.44565 -0.53933,0 -0.66211,-0.89587 -0.2891,-2.10938 z m 1.41239,-7.38281 c -0.0327,-0.83789 -0.3231,-2.84179 -0.64537,-4.45312 -0.34885,-1.74426 -0.2003,-2.92969 0.36712,-2.92969 1.4402,0 2.20686,4.2428 1.21417,6.71946 -0.57074,1.42395 -0.89723,1.65535 -0.93592,0.66335 z M 353.58552,240 c 0,-1.28906 0.2128,-1.81641 0.47287,-1.17188 0.26007,0.64454 0.26007,1.69922 0,2.34375 -0.26007,0.64454 -0.47287,0.11719 -0.47287,-1.17187 z m -7.03397,-7.33944 c -2.27756,-2.51669 -1.89118,-3.23881 0.7922,-1.4806 2.298,1.50571 3.11836,3.19504 1.55155,3.19504 -0.43571,0 -1.4904,-0.7715 -2.34375,-1.71444 z m -86.86405,-4.32398 c 0,-0.80387 0.42187,-1.46158 0.9375,-1.46158 0.51562,0 0.9375,0.39697 0.9375,0.88217 0,0.48519 -0.42188,1.1429 -0.9375,1.46158 -0.51563,0.31868 -0.9375,-0.0783 -0.9375,-0.88217 z m 2.84621,-2.06085 c -0.0442,-1.40277 3.40734,-5.64128 4.06286,-4.98909 0.27937,0.27796 -0.51289,1.75452 -1.76059,3.28125 -1.2477,1.52673 -2.28372,2.29525 -2.30227,1.70784 z m 8.03844,-5.79593 c -0.68547,-1.1091 1.80291,-3.28186 3.21826,-2.81008 0.61539,0.20513 0.28306,1.03287 -0.81291,2.0247 -1.03862,0.93994 -2.09638,1.28531 -2.40535,0.78538 z M 277.5,216.46697 c 0,-1.35129 3.74515,-2.84382 6.37448,-2.54039 2.22638,0.25693 1.99461,0.47457 -1.92136,1.80428 -2.44921,0.83167 -4.45312,1.16291 -4.45312,0.73611 z m 12.1875,-4.81047 c 0,-0.99709 6.33503,-0.908 6.95666,0.0978 0.27766,0.44924 -1.174,0.77279 -3.22592,0.71899 -2.0519,-0.0538 -3.73074,-0.42138 -3.73074,-0.81682 z m 26.71875,0.2185 c -0.31867,-0.51563 -0.13264,-0.9375 0.41342,-0.9375 0.54606,0 0.99283,0.42187 0.99283,0.9375 0,0.51562 -0.18604,0.9375 -0.41342,0.9375 -0.22738,0 -0.67416,-0.42188 -0.99283,-0.9375 z m -86.92896,84.47428 c 1.21997,-0.68252 1.64239,-2.24564 1.72218,-6.37283 0.13409,-6.93626 3.5629,-14.00511 8.85695,-18.25951 l 3.82866,-3.0768 -0.62391,-5.37563 c -0.72226,-6.22309 1.00561,-21.43545 2.92476,-25.74994 2.21275,-4.97453 1.79733,-5.59204 -5.4828,-8.15005 -7.60099,-2.67075 -21.06135,-5.8813 -21.75392,-5.18872 -1.66842,1.6684 -0.82028,67.60747 0.94721,73.64143 0.56923,1.9433 0.7641,1.97681 4.2804,0.73619 2.02621,-0.71489 4.41142,-1.70675 5.30047,-2.20414 z m 9.17581,-1.75426 c 0.54827,-0.37882 1.97416,-3.33445 3.16863,-6.56807 1.19448,-3.2336 2.53886,-6.10616 2.98752,-6.38344 1.11222,-0.6874 1.02916,-4.8055 -0.14101,-6.99198 -0.90918,-1.69884 -1.05162,-1.70742 -2.86524,-0.17275 -4.62198,3.91113 -8.10054,12.73738 -7.56428,19.19309 0.13831,1.66511 2.59653,2.17918 4.41438,0.92315 z m -68.0662,-6.54815 c -0.021,-0.38671 -1.28658,-2.16375 -2.8125,-3.94896 -2.50997,-2.93647 -2.7744,-3.04816 -2.7744,-1.17188 0,1.14069 0.84375,2.91772 1.875,3.94897 1.88333,1.88333 3.78295,2.48306 3.7119,1.17187 z m 12.04749,-2.2815 c 0.3925,-3.39764 -1.75458,-7.26727 -8.78786,-15.83815 -6.78981,-8.27419 -8.85137,-12.5478 -8.97562,-18.60655 -0.12986,-6.33138 3.77736,-18.36493 7.39218,-22.76665 1.39403,-1.69748 5.86191,-10.22916 5.86191,-11.19365 0,-1.15536 -4.4631,-0.97928 -6.85851,0.27059 -4.67648,2.44008 -17.38057,15.86091 -21.20959,22.40621 -6.3555,10.86403 -13.1819,27.46203 -13.1819,32.05102 0,3.01333 0.16873,3.18731 2.72703,2.81183 3.54094,-0.5197 6.98115,-4.34871 8.40339,-9.35315 0.80896,-2.84649 1.62843,-3.98437 2.86941,-3.98437 2.41525,0 3.02636,2.23764 1.56215,5.71998 -2.68505,6.38587 4.1691,19.3076 8.38536,15.80841 1.25308,-1.03996 1.44551,-2.51623 1.051,-8.06294 -0.75718,-10.64553 2.91623,-11.30067 4.53731,-0.8092 0.78263,5.06517 2.07353,7.14752 6.93881,11.19292 5.04328,4.19342 8.82471,4.33747 9.28493,0.3537 z m -33.05266,-2.72205 c 0.34645,-0.56056 0.1604,-1.48869 -0.41341,-2.0625 -0.57383,-0.57383 -1.04332,-2.22457 -1.04332,-3.66832 0,-3.02549 -0.58334,-3.23611 -2.97306,-1.07345 -3.06622,2.77489 -1.66736,7.82345 2.16773,7.82345 0.89769,0 1.91562,-0.45863 2.26206,-1.01918 z m -23.00451,-10.70843 c 0.49936,-6.76899 3.35555,-14.39954 8.59413,-22.95989 1.41993,-2.32031 3.41436,-5.73603 4.43207,-7.59048 1.0177,-1.85445 4.24188,-6.28414 7.16484,-9.84375 7.05837,-8.59575 9.91552,-14.58953 9.66066,-20.2663 -0.17538,-3.90632 -0.49964,-4.52429 -2.79356,-5.32395 -2.44049,-0.85076 -2.71051,-0.66639 -4.53082,3.0939 -2.02858,4.19047 -13.68227,15.85929 -20.75003,20.77695 -4.86768,3.38688 -19.40412,10.12597 -24.76076,11.4791 -2.0625,0.52101 -6.421828,1.43002 -9.687403,2.02003 -3.265569,0.59 -7.018388,1.48373 -8.339596,1.98605 l -2.402198,0.91332 2.200851,2.3427 c 1.243753,1.3239 2.799369,2.11302 3.577146,1.81455 0.756962,-0.29047 1.673898,-0.0466 2.037636,0.54195 0.478691,0.77454 1.873787,0.81149 5.051342,0.13378 4.903622,-1.04585 8.030972,-0.58063 8.030972,1.19466 0,0.64836 -1.08389,3.11813 -2.40865,5.48838 -3.876922,6.93656 -2.034069,12.00963 3.82816,10.53831 1.45597,-0.36543 5.11813,-3.22913 8.13813,-6.36377 3.02001,-3.13466 5.75915,-5.43114 6.08699,-5.1033 0.32783,0.32783 0.0637,2.20889 -0.5868,4.18014 -1.98145,6.00385 -0.26113,16.03942 2.9783,17.37405 3.18751,1.31323 3.99288,0.1576 4.47859,-6.42643 z m -12.21657,-1.63177 c -0.008,-0.64453 -0.37704,-1.74425 -0.82032,-2.44383 -1.02999,-1.62554 -2.38667,0.26055 -1.62158,2.25436 0.63937,1.66614 2.46172,1.80754 2.4419,0.18947 z m -22.815598,-3.4556 c 2.730154,-0.78264 2.602926,-0.93291 -2.008437,-2.37229 -2.15012,-0.67113 -5.274588,-6.32973 -4.843058,-8.77106 0.283783,-1.60548 -0.17875,-2.39136 -1.761647,-2.99318 -3.665194,-1.3935 -3.941508,-5.71966 -0.61286,-9.59536 0.774979,-0.90235 2.166419,-1.64063 3.09209,-1.64063 0.925672,0 3.286067,-1.96079 5.245324,-4.3573 1.959258,-2.39652 5.528992,-6.50981 7.932733,-9.14063 2.403753,-2.63083 5.322023,-5.99432 6.485043,-7.47442 1.93581,-2.46358 1.96261,-2.64491 0.31704,-2.14465 -0.98864,0.30056 -8.182833,1.61698 -15.98709,2.92541 -7.804259,1.30841 -15.398009,3.00918 -16.875,3.77949 -1.476992,0.7703 -3.42419,1.40315 -4.327107,1.40633 -0.902916,0.003 -3.223229,1.62632 -5.15625,3.60701 -4.381968,4.49001 -14.574369,10.9686 -20.355077,12.93829 -2.523728,0.85992 -4.193599,1.9512 -3.951422,2.5823 0.302531,0.78838 -1.836696,1.04376 -7.675578,0.91628 -10.390072,-0.22684 -12.539397,-0.55562 -13.017355,-1.99124 -0.214583,-0.64453 0.06688,-1.17187 0.625474,-1.17187 0.558594,0 1.048931,0.52734 1.089638,1.17187 0.04071,0.64454 0.251006,0.75 0.46733,0.23438 0.21813,-0.51993 2.664732,-0.79596 5.492936,-0.61973 2.948661,0.18375 7.397803,-0.34731 10.548294,-1.25906 7.775694,-2.25028 20.507518,-9.42765 23.361865,-13.16989 1.325241,-1.73748 3.247617,-3.42505 4.271946,-3.75016 5.038621,-1.5992 -0.762889,-0.84704 -22.185134,2.87626 -34.2864894,5.95918 -32.3521732,5.41984 -29.671685,8.2731 2.887733,3.07384 2.484938,3.83398 -0.760252,1.43471 -1.526628,-1.12869 -2.5564177,-2.40694 -2.2884217,-2.84057 0.267996,-0.43362 0.065391,-0.78841 -0.4502344,-0.78841 -2.6153071,0 -1.3154301,2.2675 4.9794181,8.68608 8.989874,9.16657 15.407845,13.81453 23.503675,17.02159 3.609375,1.4298 7.40625,2.9821 8.4375,3.44953 7.842931,3.55493 37.192845,5.32436 46.076302,2.77782 z m -38.339141,-8.23383 c -2.307826,-0.24738 -3.861441,-1.02791 -4.529081,-2.27541 -1.417527,-2.64868 -0.72189,-2.9287 2.849506,-1.14705 4.485882,2.23785 15.425523,1.29638 20.317844,-1.74856 5.955948,-3.70695 5.96832,-3.71188 5.96832,-2.37733 0,0.69493 -2.214844,2.57481 -4.921875,4.17753 -5.078426,3.00672 -12.009295,4.19357 -19.684714,3.37082 z m -12.086426,-8.67 c -1.217279,-1.01409 -1.961645,-1.85784 -1.654146,-1.875 0.823,-0.0459 6.472161,2.85081 6.472161,3.31872 0,1.05454 -2.841132,0.20319 -4.818015,-1.44372 z m 56.060443,8.70405 1.211241,-2.98352 -3.02371,0.002 c -5.730372,0.004 -8.119851,0.80252 -7.512178,2.51235 1.075932,3.02736 2.473579,4.0154 5.283586,3.73514 2.177827,-0.21722 3.108886,-0.96966 4.041061,-3.26576 z m 293.066522,-3.90707 c 6.27411,-6.70753 11.86464,-19.54342 9.22299,-21.17605 -0.56757,-0.35078 -1.03194,-0.2108 -1.03194,0.31107 0,0.52186 -1.37109,1.59043 -3.04688,2.3746 -3.58543,1.67777 -18.68008,5.37276 -19.32284,4.72999 -0.6989,-0.69891 0.36259,-1.40378 2.78974,-1.8525 8.10822,-1.499 14.816,-3.72346 17.23623,-5.71595 2.68493,-2.21041 2.73325,-2.37531 1.06529,-3.63555 -3.41911,-2.58332 -18.45893,-5.45438 -30.9372,-5.90582 l -12.05942,-0.43629 5.8816,5.97354 c 7.03417,7.14412 17.2381,19.26346 21.40809,25.42666 1.65713,2.44922 3.35684,4.45313 3.77714,4.45313 0.42029,0 2.67803,-2.04608 5.0172,-4.54683 z m -4.93395,1.71285 c 0,-0.53617 0.65101,-1.22468 1.44668,-1.53001 2.19879,-0.84376 2.45697,0.067 0.38568,1.36055 -1.15975,0.72427 -1.83236,0.78649 -1.83236,0.16946 z m 4.72919,-3.25977 c 0,-0.51563 0.82499,-1.99219 1.83331,-3.28125 1.00832,-1.28906 1.83331,-1.92188 1.83331,-1.40625 0,0.51562 -0.82499,1.99219 -1.83331,3.28125 -1.00832,1.28906 -1.83331,1.92187 -1.83331,1.40625 z m 5.58331,-12.86878 c 0,-1.70901 1.66202,-3.12545 2.5847,-2.20278 0.32172,0.32172 -0.12823,1.29812 -0.99988,2.16978 -1.46151,1.4615 -1.58482,1.46407 -1.58482,0.033 z m -30.9375,-7.18717 c 0,-0.46046 0.66731,-1.09327 1.48293,-1.40625 2.29339,-0.88006 2.5964,-0.68925 1.32957,0.8372 -1.29342,1.55848 -2.8125,1.86583 -2.8125,0.56905 z m 5.44922,-4.49072 c 0.67675,-0.27081 1.48535,-0.23751 1.79688,0.074 0.31152,0.31153 -0.2422,0.5331 -1.23047,0.4924 -1.09214,-0.045 -1.31428,-0.26713 -0.56641,-0.5664 z M 378.75,227.8125 c -1.13715,-0.73488 -1.0026,-0.91153 0.70312,-0.92315 1.16016,-0.008 2.10938,0.40752 2.10938,0.92315 0,1.17461 -0.99491,1.17461 -2.8125,0 z m -236.65832,21.33841 c 0.36414,-1.16581 2.71434,-5.53952 5.22269,-9.71935 2.50835,-4.17984 4.56063,-7.91311 4.56063,-8.29618 0,-1.32002 -8.40003,9.3398 -9.94043,12.61462 -0.84887,1.80469 -2.54549,4.6242 -3.77025,6.26557 -2.90593,3.89445 -2.80859,4.39592 0.51924,2.67504 1.51033,-0.78102 3.04399,-2.37389 3.40812,-3.5397 z M 99.375,239.94415 c 2.32031,-0.52113 5.48438,-1.53106 7.03125,-2.24429 1.54688,-0.71323 5.04022,-2.13934 7.76301,-3.16913 7.34393,-2.77758 17.81121,-9.697 23.57456,-15.584 l 5.08757,-5.19673 -2.87463,0 c -3.31074,0 -16.77869,2.33436 -22.30051,3.86527 -7.26097,2.0131 -8.89466,2.94526 -12.71375,7.25433 -2.12003,2.39203 -5.242909,5.82571 -6.939738,7.6304 -1.696818,1.80469 -3.81824,4.44141 -4.714269,5.85938 -1.563012,2.47348 -1.558169,2.57719 0.11931,2.5552 0.96165,-0.0126 3.646884,-0.4493 5.967197,-0.97043 z m -85.254117,-7.51148 c 0.805548,-0.41127 11.559649,-2.49425 23.898002,-4.62884 12.338353,-2.1346 22.601058,-4.04877 22.806012,-4.25373 0.204954,-0.20495 -0.635084,-0.80889 -1.866752,-1.3421 -1.231667,-0.5332 -4.770645,-2.43218 -7.864395,-4.21995 -13.476668,-7.78771 -19.844568,-9.63733 -27.946939,-8.11747 -2.480191,0.46524 -5.538784,1.81291 -6.796875,2.99482 -2.511786,2.35971 -3.059524,1.46661 -0.948747,-1.54695 1.930129,-2.75564 7.745029,-4.36466 14.414889,-3.98869 5.961897,0.33605 6.746422,-0.10492 6.746422,-3.79216 0,-1.78349 3.275654,-5.7251 4.757818,-5.7251 0.514128,0 -0.135119,1.57449 -1.44277,3.49887 -3.677326,5.41167 -3.217538,6.91356 3.013077,9.8421 2.964844,1.39356 8.554687,4.23434 12.421875,6.31286 3.867187,2.07854 8.107031,3.78016 9.421875,3.78141 1.314844,9.4e-4 2.791406,0.37972 3.28125,0.84104 0.93696,0.88243 4.059789,0.52075 21.984375,-2.5462 5.929687,-1.01459 12.78516,-2.12602 15.23438,-2.46984 4.87691,-0.68461 5.59029,-1.72568 2.34375,-3.42033 -1.16016,-0.60559 -4.64063,-2.98887 -7.73438,-5.29617 -10.778472,-8.03851 -25.001096,-13.97698 -38.90625,-16.24476 -3.867188,-0.6307 -7.453125,-1.54252 -7.96875,-2.02627 -1.416041,-1.32848 15.582217,0.26704 17.809792,1.6717 1.03274,0.65122 3.35427,1.49189 5.158958,1.86815 5.156423,1.07508 20.662097,8.77086 25.3125,12.5631 6.58394,5.36898 10.373,7.27763 15.80104,7.95941 3.82821,0.48082 5.27472,0.30958 6.09375,-0.72144 0.68238,-0.85899 3.63766,-1.54391 8.10521,-1.87848 16.65992,-1.24762 18.37942,-2.81713 9.82039,-8.96375 -2.27347,-1.63268 -4.71433,-3.54927 -5.42416,-4.2591 -1.87682,-1.87681 -12.68482,-8.28382 -17.05248,-10.10874 -5.81018,-2.42763 -15.38753,-4.75469 -21.328125,-5.18218 -5.677645,-0.40857 -6.994583,-1.49055 -3.026456,-2.48648 2.214722,-0.55587 17.398401,2.34885 21.542081,4.1211 1.03125,0.44106 3.27915,1.24817 4.99534,1.79356 3.79802,1.20698 13.64348,7.71828 21.25466,14.05678 5.40184,4.49857 8.29454,4.98258 4.43636,0.74227 -2.96706,-3.26094 -4.05864,-6.04075 -3.40099,-8.66103 0.43479,-1.73235 0.0261,-3.23092 -1.41163,-5.17548 -2.15743,-2.91807 -1.71173,-3.64467 0.82658,-1.34753 1.37199,1.24164 1.87891,1.10186 4.76132,-1.31288 l 3.22586,-2.70245 -2.8125,-1.1476 c -5.28764,-2.15755 -6.56948,-2.5618 -13.125,-4.13918 -11.40258,-2.74368 -14.67967,-3.18984 -28.125,-3.82912 -10.978725,-0.522 -15.194625,-0.29681 -25.78125,1.37704 -19.828003,3.13503 -40.184398,9.92311 -51.527348,17.1824 -9.269726,5.93246 -20.5829337,19.48364 -23.658383,28.33847 -1.6202946,4.66515 -2.2446808,12.72584 -1.0762583,13.89426 0.7131545,0.71315 7.6118803,-0.2097 9.7578723,-1.30534 z m -6.1638936,-5.53904 c 1.2955308,-2.05226 2.3555106,-4.14177 2.3555106,-4.64339 0,-1.55668 2.135184,-5.68774 2.939779,-5.68774 0.866377,0 -0.167033,3.11636 -3.186547,9.60937 -1.1389856,2.44922 -2.6093913,4.45313 -3.267568,4.45313 -0.7764782,0 -0.3695655,-1.31024 1.1588254,-3.73137 z M 43.125,195.20213 c 0,-0.88512 5.023132,-3.95213 6.472774,-3.95213 2.08793,0 0.930146,1.57402 -2.285831,3.10762 -3.750316,1.7884 -4.186943,1.87647 -4.186943,0.84451 z m 36.5625,-3.76333 c 0,-1.20676 8.256734,-9.5638 9.449013,-9.5638 1.395831,0 1.061817,0.51858 -2.860067,4.44047 -5.186251,5.18625 -6.588946,6.27694 -6.588946,5.12333 z m 52.52715,-7.65218 c -0.7585,-0.47969 -1.12469,-1.12658 -0.81375,-1.43752 0.79523,-0.79524 5.4741,0.48902 5.4741,1.50253 0,1.08993 -2.89805,1.0495 -4.66035,-0.065 z m -6.35528,-1.47685 c -3.36453,-1.4154 -3.92603,-2.32574 -1.40625,-2.27996 1.7481,0.0318 5.525,2.49281 4.85344,3.16253 -0.22017,0.21956 -1.7714,-0.17759 -3.44719,-0.88257 z M 111.5625,179.7195 c 0,-0.83996 1.01842,-1.09911 3.28125,-0.83493 1.80469,0.21069 3.28125,0.75879 3.28125,1.218 0,0.45921 -1.47656,0.83493 -3.28125,0.83493 -2.06627,0 -3.28125,-0.451 -3.28125,-1.218 z m 55.62385,36.80709 c 1.65714,-1.52087 1.62986,-1.67104 -0.77474,-4.26565 l -2.49234,-2.68927 0.58941,2.34841 c 0.4487,1.78773 0.004,2.89869 -1.86394,4.65323 -1.34935,1.26765 -3.12198,3.71383 -3.93919,5.43596 -0.8172,1.72213 -2.47745,3.78088 -3.68944,4.57501 -1.21199,0.79413 -2.20361,1.88409 -2.20361,2.42214 0,0.53805 2.84766,-1.69511 6.32813,-4.96258 3.48046,-3.26747 7.10104,-6.65023 8.04572,-7.51725 z m 41.87615,0.91808 c 0,-1.06168 -0.3556,-1.71055 -0.79024,-1.44193 -0.43462,0.26861 -3.36296,-0.76677 -6.50741,-2.30085 -8.06108,-3.93274 -10.8201,-4.33531 -13.77617,-2.01006 l -2.42345,1.90628 5.63501,0.027 c 4.33946,0.0207 6.98348,0.68483 11.5003,2.88844 3.22591,1.57382 5.97704,2.8615 6.11363,2.8615 0.13658,-5e-5 0.24833,-0.8687 0.24833,-1.93038 z m -45.9375,-5.5519 c 0,-0.60102 -0.73828,-0.9529 -1.64063,-0.78195 -1.10974,0.21022 -1.74106,1.36641 -1.95104,3.57308 l -0.3104,3.26229 1.95103,-2.48034 c 1.07307,-1.36418 1.95104,-2.97208 1.95104,-3.57308 z m 19.77433,0.40607 c 3.13403,-1.62066 4.60067,-4.60292 4.60067,-9.35499 0,-2.94418 -0.29517,-3.26356 -3.91772,-4.23901 -5.00533,-1.3478 -11.5568,-0.3734 -13.81955,2.05538 -3.9633,4.25411 -2.63548,9.91065 2.76171,11.76499 4.46843,1.53524 7.07844,1.4783 10.37489,-0.22637 z m 25.98272,-34.17476 c 0.15759,-33.67731 0.1538,-33.74836 -1.74176,-32.57812 -3.26083,2.01309 -9.88038,11.18145 -15.43624,21.37986 -2.93422,5.38611 -5.71242,10.25696 -6.17377,10.8241 -1.48029,1.81974 0.0235,12.61722 2.42238,17.3933 1.2487,2.48609 2.54838,6.00216 2.88819,7.81347 0.47477,2.53079 1.08207,3.301 2.62286,3.32654 1.10277,0.0183 3.05973,0.63613 4.34879,1.37302 1.28906,0.73689 3.1875,1.36098 4.21875,1.38685 1.40811,0.0353 6.0791,1.96638 6.62768,2.73998 0.0358,0.0505 0.13626,-15.09599 0.22312,-33.659 z m -44.81955,29.41738 c 0,-1.302 -0.23627,-1.3402 -1.64063,-0.26528 -0.90234,0.69066 -1.8164,1.37513 -2.03125,1.52104 -0.21484,0.1459 0.52345,0.26528 1.64063,0.26528 1.24869,0 2.03125,-0.586 2.03125,-1.52104 z m -2.42708,-6.05089 c 3.33648,-3.96519 3.71467,-12.09448 0.70531,-15.16097 -2.48162,-2.52874 -9.02581,-2.44093 -11.79248,0.15822 -2.39989,2.25456 -3.83111,7.42831 -2.88208,10.41842 0.67618,2.13046 7.71493,7.36603 9.98487,7.42696 0.8565,0.023 2.64947,-1.2562 3.98438,-2.84263 z m 8.98958,-5.55307 c 0,-0.51563 -0.44678,-0.9375 -0.99283,-0.9375 -0.54606,0 -0.7321,0.42187 -0.41342,0.9375 0.31868,0.51562 0.76545,0.9375 0.99283,0.9375 0.22738,0 0.41342,-0.42188 0.41342,-0.9375 z m 13.58894,-1.64063 c -0.37078,-0.90234 -1.23483,-3.6951 -1.92009,-6.20613 -1.11879,-4.09962 -1.06056,-5.06097 0.57065,-9.42078 0.99912,-2.67039 3.1088,-6.89286 4.68816,-9.38326 1.57936,-2.49039 3.551,-6.26667 4.38141,-8.39172 1.5906,-4.07037 4.13862,-7.4955 12.20655,-16.4084 2.70704,-2.99055 4.92188,-5.69619 4.92188,-6.01255 0,-0.31636 -1.37109,0.34039 -3.04688,1.45945 -4.59542,3.06875 -12.60605,12.51848 -16.86908,19.89959 -2.08801,3.61525 -5.09962,8.80502 -6.69245,11.53284 C 179.77654,175.95138 174.94942,180 172.1598,180 c -0.64379,0 -2.53178,1.00431 -4.19555,2.23179 -2.2941,1.69254 -2.68515,2.36221 -1.6184,2.77155 0.77363,0.29687 1.65595,0.13633 1.9607,-0.35678 0.30477,-0.49311 1.47843,-0.90594 2.60816,-0.91741 1.12972,-0.0114 3.10873,-0.84583 4.39779,-1.85415 3.21802,-2.51718 3.75,-2.35006 3.75,1.17806 0,4.15095 1.48778,9.02769 3.39816,11.13862 1.98115,2.18915 2.6255,2.22782 1.75328,0.1052 z m -6.29222,-0.69443 c 0.14601,-0.12492 -0.0191,-2.00671 -0.36691,-4.18176 -0.6321,-3.95293 -0.63381,-3.95435 -3.9982,-3.32319 -1.85122,0.34729 -4.1447,1.04827 -5.09663,1.55772 -1.57651,0.84372 -1.41091,1.20806 1.85775,4.08723 3.15847,2.78213 5.77745,3.42275 7.60399,1.86 z m 35.63526,-29.20598 c -0.27321,-1.2889 -0.50895,-1.05315 -0.90901,0.909 -0.3488,1.71076 -0.21814,2.32721 0.36887,1.7402 0.49995,-0.49995 0.74301,-1.69209 0.54014,-2.6492 z m 0.12712,-4.78709 c -0.0576,-2.2507 -0.16168,-2.34 -0.82018,-0.70312 -0.41486,1.03125 -0.57125,2.19141 -0.34753,2.57812 0.79412,1.3727 1.23272,0.66844 1.16771,-1.875 z m 0.63476,-8.78627 c 0.27296,-2.77302 0.57303,-5.8402 0.66684,-6.81595 0.21112,-2.19607 -1.74038,-3.04978 -2.49232,-1.09028 -0.57625,1.5017 0.32291,13.95435 0.96149,13.31577 0.20222,-0.20224 0.59102,-2.63653 0.86399,-5.40954 z m -0.99343,-27.07684 c 0.0243,-8.24795 -0.25694,-14.99626 -0.62499,-14.99626 -0.66256,0 -0.75969,1.3849 -1.18356,16.875 -0.22924,8.37782 0.19733,13.12752 1.17843,13.12126 0.32227,-0.002 0.60582,-6.75206 0.63012,-15 z m -36.50009,11.13525 c 2.12113,-0.99003 6.11855,-3.8473 8.88317,-6.3495 4.48877,-4.06269 4.8856,-4.71932 3.7089,-6.13716 -1.26569,-1.52507 -1.99427,-1.5334 -6.13616,-0.0702 -1.5405,0.54422 -1.46564,0.32849 0.41962,-1.20928 l 2.29464,-1.87166 -5.4133,-0.67635 c -5.90542,-0.73783 -14.77598,0.96466 -21.63733,4.15277 -2.08375,0.96821 -6.60849,2.49486 -10.05498,3.39255 -5.266,1.37161 -7.34462,1.47213 -13.0207,0.62968 -3.71488,-0.55137 -7.22314,-1.50468 -7.79614,-2.11846 -0.79336,-0.84984 -0.48288,-0.98901 1.30194,-0.58359 7.40476,1.68199 14.10772,1.74888 19.374,0.1933 6.91251,-2.04185 15.45823,-5.23116 16.84616,-6.28708 0.58515,-0.44518 3.85468,-1.07002 7.26563,-1.38854 3.41094,-0.31852 6.20171,-0.89991 6.20171,-1.29197 0,-0.39207 -1.95555,-1.9131 -4.34566,-3.38006 -2.39011,-1.46697 -5.27771,-3.30002 -6.41689,-4.07346 -9.50161,-6.45108 -12.11298,-7.48228 -18.97031,-7.49121 -8.94175,-0.0116 -21.67671,4.39679 -28.17828,9.75437 -1.40669,1.15917 -5.15811,3.52195 -8.33651,5.25062 -5.33799,2.90323 -6.11948,3.07626 -10.24268,2.26776 -2.45506,-0.48141 -4.650567,-1.4469 -4.878886,-2.14555 -0.314943,-0.9637 0.120703,-1.08203 1.805175,-0.49033 5.576971,1.95902 12.903421,-0.22749 19.891401,-5.9364 5.18686,-4.23747 17.5924,-9.381549 24.51639,-10.165965 3.60937,-0.4089 7.19531,-0.650559 7.96875,-0.537019 0.77344,0.113541 -0.91406,-1.115615 -3.75,-2.731462 -2.83594,-1.615838 -8.51223,-4.855503 -12.61399,-7.199244 l -7.45773,-4.261347 -7.07352,0.588354 c -6.49744,0.540437 -13.1595,1.821329 -21.60476,4.153875 -1.804687,0.498447 -8.239107,3.301543 -14.298712,6.229099 C 74.838555,100.04418 72.1875,100.7083 72.1875,98.326847 c 0,-0.515625 0.40343,-0.688172 0.89651,-0.383428 0.49308,0.304734 4.706992,-1.359666 9.364249,-3.698682 12.984338,-6.521126 20.210691,-8.982991 31.457991,-10.717079 l 10.3125,-1.58996 L 116.25,78.062699 C 98.921456,69.636275 97.580119,69.190393 88.59375,68.869333 82.655082,68.65716 78.768009,69.01817 75.46875,70.088309 69.733806,71.948481 61.148797,76.372705 58.534987,78.815005 55.139078,81.988085 44.0625,79.410473 44.0625,75.447138 c 0,-1.995259 0.87849,-1.712516 2.979994,0.959112 2.363659,3.004906 6.22811,3.05913 10.866761,0.152476 C 68.62279,69.84545 77.352,66.602347 84.84375,66.551941 l 5.625,-0.03785 -6.5625,-2.349525 C 80.296875,62.87233 75.867187,61.362798 74.0625,60.810053 72.257812,60.257306 70.359375,59.482295 69.84375,59.087803 67.725757,57.467382 58.475512,56.040411 52.959484,56.483184 c -5.685094,0.456345 -14.552486,4.140445 -12.836497,5.333128 0.818816,0.569111 3.06347,9.684731 2.518892,10.229309 -0.816709,0.816708 -2.329928,-1.101631 -2.335155,-2.960324 -0.0032,-1.129726 -0.667341,-3.319672 -1.47592,-4.866547 -1.441165,-2.757057 -1.410924,-2.862056 1.534043,-5.326389 1.652305,-1.38264 5.147336,-3.028023 7.766738,-3.656408 4.388998,-1.052904 4.581643,-1.210856 2.456106,-2.013784 -4.770747,-1.802164 -22.942389,-5.246607 -23.243941,-4.405899 -0.553528,1.543201 -2.03125,0.926635 -2.03125,-0.84752 0,-2.658775 0.710305,-2.856752 5.443708,-1.517275 2.420023,0.684827 8.393201,2.094461 13.273731,3.132519 8.378739,1.782106 11.303053,1.854391 8.648486,0.213778 -1.602032,-0.990109 -4.878553,-9.850931 -4.811141,-13.010954 0.04013,-1.880865 0.730017,-0.810943 2.578125,3.998286 3.734726,9.718675 5.923284,12.175571 12.486088,14.017 3.041269,0.853337 9.321151,2.961166 13.955292,4.684065 4.634141,1.722899 8.425711,2.754271 8.425711,2.291938 0,-0.462334 -0.381788,-0.840607 -0.848417,-0.840607 -1.1153,0 -5.410613,-7.370708 -6.254336,-10.732371 -0.364068,-1.450562 -1.457966,-2.84555 -2.430884,-3.099974 -1.191171,-0.311498 -1.596344,-1.006398 -1.240505,-2.12755 0.445737,-1.404395 -1.137103,-5.954894 -4.231496,-12.165105 -0.752474,-1.510158 -3.269339,-1.709887 -8.311802,-0.659593 -2.613682,0.544404 -2.976613,0.436042 -2.095483,-0.625655 1.233403,-1.486159 7.162387,-2.467693 10.75626,-1.78068 1.837498,0.35126 2.469163,1.03878 2.469163,2.687498 0,1.853686 2.597456,9.75343 3.206953,9.75343 0.881919,0 8.053152,-3.945397 8.507522,-4.680583 0.321025,-0.519429 1.929878,-0.915864 3.575228,-0.880967 2.958442,0.06275 2.965611,0.07419 0.647797,1.033906 -1.289063,0.533751 -3.1875,1.426558 -4.21875,1.984016 -1.03125,0.557459 -3.035156,1.599663 -4.453125,2.316009 -1.417969,0.716346 -2.578125,1.654097 -2.578125,2.083892 0,1.929957 5.568304,12.853089 7.371759,14.460903 1.101783,0.982259 2.003241,2.518556 2.003241,3.413993 0,0.975475 0.986586,1.875683 2.461308,2.245815 1.35372,0.339762 5.888873,2.254985 10.07813,4.256051 4.189242,2.001067 8.882442,3.93636 10.429312,4.300653 1.54688,0.364294 3.23438,0.964844 3.75,1.334557 0.51563,0.369714 2.30257,1.131244 3.97097,1.69229 l 3.03348,1.020083 -1.6176,-2.524684 c -0.88968,-1.388577 -2.48877,-3.833259 -3.55353,-5.432627 -1.89023,-2.839266 -2.94719,-6.728287 -5.19738,-19.123307 -0.60844,-3.351563 -1.62108,-6.517244 -2.2503,-7.034848 -0.62923,-0.517605 -1.44064,-1.875567 -1.80313,-3.017696 -0.69943,-2.203691 -5.2559,-3.971591 -10.39501,-4.033236 -2.43782,-0.02924 -2.584707,-0.166203 -1.102594,-1.028082 1.259391,-0.732367 3.270994,-0.571779 7.635034,0.609513 6.61159,1.789675 6.94917,2.214259 9.45785,11.895589 0.83879,3.236977 2.01027,6.185286 2.60331,6.551798 0.79477,0.4912 0.80265,0.941963 0.03,1.714654 -1.44762,1.447614 0.0628,7.78059 3.09049,12.958023 4.46954,7.643011 8.49492,10.802851 20.47345,16.071231 6.1875,2.721378 11.91603,5.522293 12.73007,6.224257 0.814,0.701963 2.22259,1.276297 3.13017,1.276297 1.40685,0 1.29229,-0.425287 -0.77695,-2.88443 -1.33489,-1.586436 -2.42968,-3.379405 -2.43286,-3.984375 -0.003,-0.604969 -0.59623,-2.231684 -1.31789,-3.61492 -1.92365,-3.687129 -2.66697,-7.677156 -3.28252,-17.62018 l -0.55006,-8.885156 -5.96009,-3.461434 c -6.17689,-3.587343 -8.5633,-3.847385 -15.43804,-1.682242 -1.96027,0.617373 -2.55093,0.535941 -2.27392,-0.313503 0.50954,-1.562487 8.12097,-2.953753 12.08803,-2.209527 1.77606,0.333191 5.49637,2.066456 8.26735,3.851698 l 5.03814,3.245895 0.27224,7.701614 c 0.1536,4.34572 1.13667,10.588102 2.25609,14.325962 2.45988,8.213762 9.30646,18.793117 13.39923,20.704529 1.63678,0.76441 5.29628,2.828953 8.13222,4.587869 2.83594,1.75892 5.35497,3.00132 5.59785,2.76089 0.24288,-0.24043 -0.0102,-0.73061 -0.56256,-1.08929 -0.55228,-0.35868 -1.17287,-1.07408 -1.3791,-1.58978 -0.20622,-0.51569 -2.18871,-3.950251 -4.40554,-7.632339 C 167.81532,89.10698 166.5271,85.74394 165.78563,80.961408 164.83897,74.855349 163.12267,70.577205 159.72702,65.859375 158.892,64.699219 158.6028,63.75 159.08435,63.75 c 1.02662,0 4.07852,3.967848 6.12923,7.96875 0.79287,1.546875 1.74234,5.132812 2.10995,7.96875 0.77589,5.985862 4.79384,13.748074 12.25155,23.66865 5.49762,7.31317 13.44056,13.62629 14.68375,11.67078 2.12752,-3.34654 -1.72779,-19.598861 -6.04799,-25.49568 -1.13329,-1.546875 -3.16825,-4.834855 -4.52214,-7.306623 -1.35388,-2.471768 -5.7963,-8.43343 -9.87203,-13.248138 C 164.01296,57.39526 156.36487,52.25325 138.75,45.400276 131.27344,42.491557 121.14844,38.516485 116.25,36.566782 106.36028,32.630421 102.38226,31.714274 85.3125,29.441823 68.023848,27.140229 51.100876,28.611212 35.12459,33.804267 25.945403,36.787941 19.6875,43.253584 19.6875,49.753812 c 0,3.465106 2.877351,9.986813 6.712956,15.215359 1.721936,2.347278 5.010751,6.935557 7.308474,10.196178 13.549159,19.227139 26.95701,31.029331 46.44732,40.885041 9.55144,4.82989 26.99919,12.38711 28.59877,12.38711 0.4857,0 5.42936,1.02516 10.98591,2.27813 30.74711,6.9333 48.3958,8.22125 57.08441,4.16588 z m -21.90347,-7.0649 c -1.29626,-0.52305 -1.61112,-2.19161 -0.41355,-2.19161 0.41707,0 1.57723,0.6194 2.57812,1.37644 1.35609,1.02569 1.46148,1.36517 0.41356,1.33223 -0.77344,-0.0243 -1.93359,-0.25699 -2.57813,-0.51706 z m 14.76563,-1.648 c 8.01127,-2.20989 9.375,-2.45135 9.375,-1.65998 0,0.90329 -8.47024,3.03448 -11.5559,2.90754 -1.12082,-0.0461 -0.13941,-0.6075 2.1809,-1.24756 z m -47.26552,-8.64654 c -0.78485,-2.0453 0.25724,-2.99597 1.36464,-1.24492 1.10863,1.75299 1.13223,2.78535 0.0637,2.78535 -0.46047,0 -1.10321,-0.6932 -1.42832,-1.54043 z M 122.34375,112.5 c 0.31868,-0.51562 0.76545,-0.9375 0.99283,-0.9375 0.22738,0 0.41342,0.42188 0.41342,0.9375 0,0.51563 -0.44678,0.9375 -0.99283,0.9375 -0.54606,0 -0.7321,-0.42187 -0.41342,-0.9375 z M 90.9375,109.6875 c -1.609497,-1.6095 -2.512821,-3.75 -1.582554,-3.75 0.160844,0 1.228161,1.26563 2.371816,2.8125 2.379141,3.21796 1.973285,3.70005 -0.789262,0.9375 z M 187.5,108.75 c 0,-1.03125 0.42187,-1.875 0.9375,-1.875 0.51562,0 0.9375,0.84375 0.9375,1.875 0,1.03125 -0.42188,1.875 -0.9375,1.875 -0.51563,0 -0.9375,-0.84375 -0.9375,-1.875 z M 86.225187,104.01614 c -0.565554,-1.05675 -0.896804,-3.04034 -0.736109,-4.407984 0.234096,-1.992337 0.490951,-1.610418 1.292194,1.921374 1.101574,4.8556 0.986691,5.36931 -0.556085,2.48661 z m 100.559153,-2.0012 c -0.61971,-1.64177 -0.91878,-3.193009 -0.6646,-3.447184 0.71826,-0.718265 3.1921,2.956794 3.22545,4.791624 0.0477,2.6252 -1.33685,1.89832 -2.56085,-1.34444 z M 66.726698,97.884488 c -2.177921,-1.525472 -5.135909,-7.517927 -4.553167,-9.224054 0.188643,-0.552301 1.314985,0.892826 2.502982,3.211394 1.187998,2.318572 2.835961,4.709853 3.662143,5.313978 2.295651,1.678613 0.746033,2.350285 -1.611958,0.698682 z M 184.4336,96.933591 c -0.37599,-0.375975 -0.6836,-1.330463 -0.6836,-2.121094 0,-1.055241 0.27734,-1.160154 1.04297,-0.394528 0.57363,0.573637 0.88125,1.528125 0.6836,2.121094 -0.19767,0.592968 -0.667,0.770512 -1.04297,0.394528 z M 180,88.255825 c 0,-0.443671 -1.07554,-2.39157 -2.39009,-4.328664 -3.61865,-5.332377 -1.88652,-5.434384 2.18803,-0.128856 2.19014,2.851796 2.71236,5.264195 1.13956,5.264195 -0.51563,0 -0.9375,-0.363004 -0.9375,-0.806675 z M 61.875,83.850922 c 0,-0.803868 0.428756,-1.196593 0.952792,-0.872721 0.524036,0.323872 0.710076,0.981582 0.413422,1.461578 C 62.437552,85.740133 61.875,85.497665 61.875,83.850922 Z M 168.065,69.84375 c -1.59775,-1.804688 -2.58073,-3.28125 -2.1844,-3.28125 1.12017,0 5.6819,4.480113 5.6819,5.580235 0,1.486753 -0.34891,1.257408 -3.4975,-2.298985 z M 32.83965,60.974119 c -0.758504,-0.479694 -1.093105,-1.158163 -0.743557,-1.507712 0.857899,-0.8579 3.528907,0.233291 3.528907,1.44167 0,1.190723 -0.970583,1.213737 -2.78535,0.06605 z M 28.660715,58.526785 C 27.298749,57.16482 26.607615,54.375 27.632175,54.375 c 0.244571,0 1.099155,1.265625 1.899075,2.8125 1.617616,3.128124 1.342129,3.55195 -0.870535,1.339285 z M 152.53436,57.626789 c -2.19183,-3.011499 -0.68432,-2.990872 2.15314,0.02946 1.5075,1.604662 1.78076,2.334459 0.86654,2.314289 -0.73441,-0.0162 -2.09327,-1.070891 -3.01968,-2.34375 z M 26.324013,51.953125 c 0.04498,-1.092134 0.267132,-1.314281 0.566406,-0.566406 0.270817,0.676758 0.23751,1.485351 -0.07402,1.796875 -0.311524,0.311523 -0.533101,-0.242188 -0.492394,-1.230469 z m 13.05396,-17.482139 c -0.0043,-0.992873 4.433922,-1.955256 6.088681,-1.320266 2.646187,1.015438 1.413109,2.096945 -2.338681,2.051208 -2.060865,-0.02513 -3.748365,-0.354047 -3.75,-0.730942 z M 54.375,33.75 c 0,-0.515625 0.657711,-0.9375 1.461578,-0.9375 0.803868,0 1.200846,0.421875 0.882172,0.9375 -0.318674,0.515625 -0.976384,0.9375 -1.461578,0.9375 -0.485195,0 -0.882172,-0.421875 -0.882172,-0.9375 z m 164.0625,101.80746 c 0,-1.74336 2.61653,-6.72773 4.2382,-8.0736 0.76274,-0.63302 1.3868,-1.81449 1.3868,-2.62548 0,-0.811 0.98754,-2.55231 2.19454,-3.86958 2.47357,-2.69958 6.66978,-9.4263 5.88024,-9.4263 -0.80705,0 -7.35734,9.17869 -11.66593,16.34706 -3.64538,6.06497 -5.12594,10.7658 -2.97135,9.43419 0.51562,-0.31868 0.9375,-1.12251 0.9375,-1.78629 z m -9.375,-2.43246 c 0,-1.03125 -0.36865,-1.875 -0.81923,-1.875 -0.45057,0 -3.50916,-2.30364 -6.79687,-5.11922 -10.87498,-9.31325 -12.64422,-10.71785 -18.86901,-14.98006 -3.39481,-2.32447 -8.21116,-5.3468 -10.703,-6.71629 -2.49185,-1.36949 -5.21464,-3.08436 -6.05064,-3.81083 -3.2063,-2.78625 -32.7599,-16.840947 -30.26422,-14.392645 0.46569,0.456855 3.19332,2.060414 6.06139,3.563463 10.58977,5.549698 20.8958,11.837842 34.4686,21.030722 6.87674,4.65763 9.449,6.59323 22.19173,16.69901 5.15625,4.08923 9.69141,7.44416 10.07812,7.4554 0.38672,0.0113 0.70313,-0.8233 0.70313,-1.85455 z m 76.1929,-17.48752 c 4.75797,-1.88377 11.81491,-4.98648 15.6821,-6.89493 3.86719,-1.90844 8.08594,-3.80084 9.375,-4.20533 1.28906,-0.40448 4.56679,-2.15333 7.28383,-3.88632 2.71705,-1.732997 5.20568,-3.1509 5.5303,-3.1509 1.5474,0 21.07846,-13.378912 27.8435,-19.072987 9.7318,-8.191172 16.61768,-15.883119 23.27677,-26.001556 15.24639,-23.166801 19.18788,-37.245779 12.33978,-44.0775908 -2.03412,-2.0292781 -4.41787,-3.0325609 -9.88604,-4.1608792 -6.56985,-1.3556417 -8.39455,-1.3565348 -20.68099,-0.010123 -7.41146,0.8121863 -14.8872,1.8816061 -16.61276,2.3764883 -1.72555,0.4948822 -4.82165,1.1509966 -6.88023,1.4580319 -2.05858,0.3070354 -6.52783,1.6058877 -9.93164,2.8863379 -3.40382,1.28045 -8.29815,3.113861 -10.87627,4.074247 -11.08037,4.127582 -32.09125,15.954186 -38.99167,21.947623 -1.85166,1.608287 -5.56605,4.611658 -8.25417,6.674158 -5.60157,4.297866 -12.80017,12.934755 -20.40499,24.481911 -7.69341,11.681649 -9.65781,17.028533 -9.60478,26.143089 0.0654,11.24521 0.39347,11.55462 6.28573,5.92891 6.1056,-5.829423 13.31412,-16.381018 15.89913,-23.27266 1.06375,-2.835938 3.23596,-8.53125 4.82714,-12.65625 1.59119,-4.125 2.89459,-7.961959 2.89646,-8.526574 0.002,-0.564616 0.84715,-1.790158 1.8784,-2.723426 1.03125,-0.933268 1.875,-2.281919 1.875,-2.997001 0,-1.440217 3.48663,-5.547621 4.14787,-4.886379 0.22972,0.229719 -1.02973,2.730268 -2.79876,5.556775 -1.76904,2.826508 -4.24587,8.303167 -5.5041,12.170355 -3.00698,9.242109 -9.21969,23.588362 -11.75993,27.155798 l -2.02032,2.837264 5.52229,-3.28961 c 3.03727,-1.809287 6.40026,-4.107557 7.47332,-5.107268 1.07306,-0.99971 4.20549,-3.182426 6.96096,-4.850479 7.3069,-4.423329 8.50946,-5.458236 13.55944,-11.669082 6.03487,-7.422118 8.72921,-11.899036 11.23637,-18.670373 1.17218,-3.165802 2.85084,-11.600665 2.29806,-11.547172 -3.98786,0.385909 -9.42329,-0.357757 -8.89246,-1.21665 0.39304,-0.635962 2.38783,-0.877695 5.09568,-0.617505 l 4.44979,0.427569 1.11705,-4.99151 c 0.61438,-2.74533 1.51029,-5.234538 1.9909,-5.531574 1.09725,-0.678135 1.1002,0.51857 0.0135,5.483573 -0.47317,2.161923 -1.37698,6.462019 -2.00848,9.555769 -1.97305,9.666082 -3.82336,14.476309 -7.91643,20.58014 -5.64743,8.421793 -5.65347,8.432776 -4.12527,7.497261 0.7242,-0.443328 1.73861,-1.143076 2.25423,-1.554993 0.51563,-0.411916 5.57813,-3.813276 11.25,-7.558576 23.43623,-15.475602 28.56323,-22.077193 32.38417,-41.698207 0.62756,-3.222656 1.49478,-5.859375 1.92713,-5.859375 0.43236,0 0.53165,0.738281 0.22065,1.640625 -0.528,1.531973 -0.47948,1.535685 0.73256,0.05603 1.43191,-1.748067 10.55528,-5.4454417 13.43862,-5.4461872 2.85698,-7.388e-4 0.57802,1.3646876 -5.17552,3.1008722 -6.71127,2.02519 -9.13931,4.654917 -10.20105,11.048407 -0.90229,5.433387 -3.85964,12.836901 -6.79951,17.022123 -2.11394,3.009429 -1.25523,3.301577 2.0667,0.703125 1.28907,-1.00832 2.68547,-1.842688 3.10312,-1.854154 0.41765,-0.01147 2.69316,-1.497408 5.05669,-3.302096 2.36353,-1.804687 4.90761,-3.28125 5.65351,-3.28125 1.87686,0 9.83497,-8.438973 12.91612,-13.69656 l 2.54602,-4.344452 -2.6846,-2.195779 c -2.89497,-2.367842 -1.88952,-3.1635047 1.12058,-0.886774 2.4608,1.861255 2.89638,1.781665 3.68485,-0.67331 0.51346,-1.5987502 0.77603,-1.7510811 1.08467,-0.6292743 0.59525,2.1636393 -3.13863,10.0388213 -6.52715,13.7664673 l -1.92856,2.121568 3.22176,-1.095949 c 1.77196,-0.602773 4.69831,-2.198003 6.50299,-3.544956 1.80469,-1.346953 5.74933,-4.103834 8.76588,-6.126402 5.20923,-3.492744 5.37399,-3.719553 3.28125,-4.516969 -1.21186,-0.4617656 -4.20728,-0.6120712 -6.6565,-0.3340124 -4.29336,0.4874244 -6.02824,-0.4760672 -2.9702,-1.6495455 2.36566,-0.9077733 8.66385,-0.658206 9.29836,0.3684489 0.31867,0.515625 1.85222,0.9375 3.40789,0.9375 l 2.82847,0 -2.18068,2.633153 c -2.2985,2.775427 -12.93149,9.992312 -18.88349,12.816721 -1.93626,0.91882 -3.39993,1.788047 -3.25259,1.931616 0.14735,0.14357 2.53528,-0.188886 5.30652,-0.73879 3.76599,-0.747292 6.18277,-0.706591 9.56848,0.161143 2.49143,0.638532 5.39202,0.887331 6.44576,0.552887 1.09785,-0.348445 1.91589,-0.188442 1.91589,0.374732 0,1.610075 -4.52295,2.251673 -7.41842,1.052331 -2.82178,-1.168822 -7.57644,-0.7898 -16.95658,1.351717 -7.03327,1.605717 -11.57181,3.627835 -16.86744,7.515193 -2.46264,1.807738 -4.9182,3.286797 -5.45683,3.286797 -0.53862,0 -1.53705,0.557748 -2.21874,1.23944 -1.38602,1.386018 -12.09131,8.974729 -14.91666,10.574038 -1.00294,0.567724 -1.99167,1.200537 -2.19716,1.40625 -0.62819,0.628853 40.0068,0.896529 43.82776,0.288708 2.31662,-0.368519 4.70075,-1.692614 6.76562,-3.75749 3.17664,-3.176641 5.12595,-4.032636 5.12595,-2.250946 0,0.515625 -0.40864,0.9375 -0.90808,0.9375 -0.49944,0 -0.70563,0.527551 -0.4582,1.172335 0.2542,0.66245 -1.49153,2.384937 -4.01381,3.960366 l -4.46366,2.788031 -23.90625,0.120411 c -13.14844,0.06623 -25.06391,0.356014 -26.47884,0.643973 -1.41493,0.287961 -4.32224,1.909315 -6.46071,3.603011 -2.13847,1.693695 -5.03757,3.735023 -6.44246,4.536285 -1.40488,0.80126 -4.47346,2.752831 -6.81905,4.336821 l -4.26471,2.879984 9.99851,1.207768 c 5.49919,0.664273 10.42039,1.530122 10.93601,1.92411 0.83626,0.638983 3.62117,1.297566 9.375,2.217026 1.03125,0.164792 5.76284,0.0038 10.51464,-0.357847 7.00797,-0.5333 9.77763,-1.223352 14.66512,-3.653764 5.4305,-2.700436 6.22143,-3.467849 8.01014,-7.771982 2.49219,-5.996876 3.62349,-5.256988 1.54236,1.008722 -1.50381,4.527548 -1.80613,4.801566 -9.63424,8.732609 l -8.0817,4.058391 -11.32066,-0.0757 c -8.52768,-0.05703 -13.1502,-0.577443 -18.73625,-2.109375 -10.07903,-2.7641 -18.51963,-2.691616 -25.0931,0.215489 -5.51708,2.439913 -12.91541,7.156553 -14.81421,9.444464 -0.65336,0.787257 -1.72236,1.431377 -2.37553,1.431377 -0.65318,0 -2.10174,0.738281 -3.21904,1.640625 -1.96625,1.587973 -1.76649,1.631338 6.22427,1.351249 5.57548,-0.195431 10.08186,0.211975 13.8807,1.254904 13.83468,3.798163 22.60329,5.089578 28.26358,4.162597 7.92989,-1.298681 9.9592,-1.070531 5.95517,0.669525 -1.80469,0.784275 -3.49219,1.699078 -3.75,2.0329 -0.25781,0.33383 -1.28602,1.23976 -2.2849,2.0132 -1.65103,1.27839 -1.76025,1.25708 -1.20131,-0.23437 0.51641,-1.37792 0.0566,-1.64182 -2.87133,-1.64806 -1.91742,-0.004 -8.54871,-1.097892 -14.73621,-2.43067 -6.1875,-1.332769 -12.9375,-2.787619 -15,-3.232987 -6.07176,-1.311105 -14.88948,-1.058494 -16.93019,0.485024 -1.00089,0.757032 -2.63749,1.389844 -3.63687,1.40625 -1.74417,0.02859 -12.71419,10.498623 -12.71419,12.134673 0,0.43685 1.976,2.41345 4.39111,4.39246 5.39537,4.4211 11.15248,5.81555 24.45804,5.92411 8.9736,0.0732 10.22042,-0.15503 18.28125,-3.34646 z m -25.5679,-3.92308 c 0,-0.43207 1.58203,-0.84233 3.51562,-0.91169 2.56164,-0.0919 3.13403,0.11742 2.10938,0.77125 -1.73983,1.11019 -5.625,1.2072 -5.625,0.14044 z m -10.8198,-1.15177 c -1.09934,-1.77877 0.50402,-2.2177 2.13677,-0.58495 1.46151,1.46151 1.46407,1.58482 0.033,1.58482 -0.8535,0 -1.82989,-0.44994 -2.16977,-0.99987 z m 22.0698,0.26187 c 0,-0.40589 0.84375,-0.80155 1.875,-0.87923 1.03125,-0.0777 1.875,0.25441 1.875,0.738 0,0.48358 -0.84375,0.87923 -1.875,0.87923 -1.03125,0 -1.875,-0.3321 -1.875,-0.738 z m 10.96666,-0.79535 c -1.29504,-1.29502 -0.60459,-1.90415 2.15834,-1.90415 1.54687,0 2.8125,0.35156 2.8125,0.78125 0,0.42969 -0.38738,0.78125 -0.86082,0.78125 -0.47346,0 -1.44471,0.22405 -2.15835,0.49791 -0.71364,0.27384 -1.59189,0.20353 -1.95167,-0.15626 z m 8.72084,-2.21665 c 1.85237,-1.19709 4.9586,-1.19709 4.21875,0 -0.31867,0.51563 -1.71467,0.93104 -3.10221,0.92315 -1.97321,-0.0112 -2.21644,-0.21234 -1.11654,-0.92315 z m -46.4448,-1.93737 c -0.33987,-0.54993 -0.39284,-1.22499 -0.1177,-1.50013 0.67155,-0.67154 2.5,0.51171 2.5,1.61783 0,1.1981 -1.61851,1.11813 -2.3823,-0.1177 z M 316.875,91.40625 c 1.21102,-1.289063 2.5599,-2.34375 2.99753,-2.34375 0.43763,0 0.10464,1.054687 -0.73999,2.34375 -0.84462,1.289062 -2.19352,2.34375 -2.99753,2.34375 -1.1268,0 -0.95719,-0.537176 0.73999,-2.34375 z m 4.87027,-7.5 c 0.0191,-1.546875 0.22921,-2.06619 0.46691,-1.154033 0.23769,0.912157 0.22206,2.177782 -0.0348,2.8125 -0.25677,0.634718 -0.45124,-0.111592 -0.43213,-1.658467 z M 240,81.677292 c 0,-0.45249 0.59962,-1.32035 1.3325,-1.928579 1.09336,-0.907408 1.24198,-0.759762 0.82815,0.822708 C 241.66789,82.455749 240,83.309413 240,81.677292 Z m 11.86106,-19.688584 c 2.8592,-4.453408 8.46511,-10.426208 9.78577,-10.426208 0.67974,0 -0.95267,2.177114 -3.62757,4.838032 -2.67491,2.660918 -5.10975,5.614043 -5.41079,6.5625 -0.30103,0.948457 -0.98219,1.724468 -1.51371,1.724468 -0.53152,0 -0.18668,-1.214456 0.7663,-2.698792 z M 350.3125,60.3125 c -0.89597,-0.895966 -0.77068,-2.1875 0.2122,-2.1875 0.46046,0 1.08003,0.632812 1.37683,1.40625 0.54836,1.429009 -0.45028,1.919994 -1.58903,0.78125 z m 19.61645,-19.296875 c 0.27889,-1.675781 0.75727,-4.101563 1.06308,-5.390625 0.3058,-1.289063 0.47709,-3.1875 0.38064,-4.21875 -0.16543,-1.768871 -0.11601,-1.778293 0.87308,-0.166465 0.61975,1.009953 0.7593,2.734902 0.3413,4.21875 -0.38892,1.380617 -0.61183,2.904891 -0.49535,3.387273 0.38091,1.577641 -0.85633,5.216692 -1.77362,5.216692 -0.49291,0 -0.66803,-1.371094 -0.38913,-3.046875 z M 279.84375,39.375 C 281.52916,37.512646 285,36.780289 285,38.287017 285,39.142801 280.86493,41.25 279.18559,41.25 c -0.57128,0 -0.27511,-0.84375 0.65816,-1.875 z M 302.8125,27.22402 c 0,-1.322561 3.89189,-4.72402 5.40514,-4.72402 0.77469,0 0.16307,1.138525 -1.51091,2.8125 -2.94748,2.947481 -3.89423,3.412202 -3.89423,1.91152 z m 77.8125,-2.715567 c 0,-0.528163 0.45588,-1.242044 1.01306,-1.586403 0.62826,-0.388285 0.82456,-2.545907 0.51681,-5.680328 -0.55959,-5.699363 0.8129,-6.954985 1.68181,-1.538597 0.6432,4.00944 -0.432,8.839065 -2.09092,9.392037 -0.61641,0.205474 -1.12076,-0.05855 -1.12076,-0.586709 z M 325.3125,23.4375 c -0.77344,-0.499834 -3.83203,-0.915248 -6.79688,-0.923144 -4.28113,-0.0114 -5.39062,-0.31912 -5.39062,-1.495095 0,-1.109881 0.6457,-1.357251 2.57812,-0.987683 1.41797,0.271182 4.34681,0.759555 6.50853,1.085276 2.16173,0.32572 4.42823,1.192052 5.03668,1.925182 1.26232,1.521015 0.15567,1.747091 -1.93583,0.395464 z M 212.72509,97.5 c -0.49467,-0.877134 -0.75965,0.710203 -0.70423,4.21875 l 0.0889,5.625 0.70424,-4.21875 c 0.38733,-2.32031 0.34735,-4.851563 -0.0889,-5.625 z m 0.95901,-8.203125 c 0.0362,-0.644531 -0.35598,-1.171875 -0.8716,-1.171875 -0.51563,0 -0.90785,1.371094 -0.8716,3.046875 0.0552,2.553307 0.1964,2.743144 0.8716,1.171875 0.44315,-1.03125 0.83537,-2.402344 0.8716,-3.046875 z m 0.0516,-7.555328 c 0.008,-1.207095 -0.40039,-1.90839 -0.92317,-1.585297 -0.51563,0.318674 -0.93104,1.925603 -0.92315,3.570953 0.011,2.276318 0.23164,2.655336 0.92315,1.585297 0.49984,-0.773438 0.91525,-2.380367 0.92315,-3.570953 z m -79.67317,3.202505 c 0,-0.202646 -0.65472,-0.619689 -1.45494,-0.926762 -0.8343,-0.320152 -1.21062,-0.162983 -0.88217,0.368448 0.55055,0.890816 2.33711,1.317608 2.33711,0.558314 z m 79.43766,-16.716146 c -0.19805,-2.205036 -0.36287,-0.634156 -0.36628,3.490844 -0.004,4.125 0.15864,5.92912 0.36008,4.009156 0.20145,-1.919964 0.20423,-5.294964 0.007,-7.5 z m 1.14969,-11.330109 c -0.0207,-2.160976 -1.01385,-6.191087 -2.20698,-8.955804 -1.92132,-4.452065 -2.2371,-4.773608 -2.76205,-2.8125 -0.326,1.217842 -0.59848,4.507379 -0.60552,7.310084 -0.01,3.932266 0.44644,5.584673 1.99847,7.23673 2.63347,2.803201 3.6222,2.034985 3.57608,-2.77851 z M 218.76863,48.75 c -0.0687,-4.995635 -3.09279,-12.863345 -4.43018,-11.525948 -1.06732,1.067318 -0.61298,7.470683 0.8178,11.525948 0.77344,2.192155 1.41907,5.092852 1.43476,6.445994 0.027,2.328391 0.088,2.35976 1.13852,0.585256 0.61051,-1.03125 1.0781,-4.195313 1.0391,-7.03125 z"
     id="path4186"
     inkscape:connector-curvature="0" />
</svg>
