<svg id="Layer_1" data-name="Layer 1" xmlns="http://www.w3.org/2000/svg" xmlns:xlink="http://www.w3.org/1999/xlink" viewBox="0 0 310 120"><defs><style>.cls-1{fill:#fff;}.cls-2{fill:url(#radial-gradient);}</style><radialGradient id="radial-gradient" cx="37.26" cy="51.64" r="44.77" gradientUnits="userSpaceOnUse"><stop offset="0" stop-color="#ffcb04"/><stop offset="1" stop-color="#d8a91d"/></radialGradient></defs><path class="cls-1" d="M81.67,54.62A15.53,15.53,0,1,1,97,39.11,15.41,15.41,0,0,1,81.67,54.62Zm0-25.16a9.63,9.63,0,1,0,9.46,9.65A9.54,9.54,0,0,0,81.67,29.46Z"/><path class="cls-1" d="M121.53,53.85H100.85V24.33h5.9V48h8.88v-5.9h0a5.9,5.9,0,0,1,5.9,5.9Z"/><path class="cls-1" d="M166.7,30.23h-2.94V48h2.94v5.89H154.91V48h3V30.23h-3v-5.9H166.7Z"/><path class="cls-1" d="M191.59,53.85H170.91V24.33h5.9V48h8.88v-5.9h0a5.9,5.9,0,0,1,5.9,5.9Z"/><path class="cls-1" d="M207.71,54.62a15.53,15.53,0,1,1,15.35-15.51A15.42,15.42,0,0,1,207.71,54.62Zm0-25.16a9.63,9.63,0,1,0,9.45,9.65A9.55,9.55,0,0,0,207.71,29.46Z"/><path class="cls-1" d="M237.22,30.46l17,17.38a15.19,15.19,0,0,1-12.75,6.78,15.53,15.53,0,0,1,0-31,15.16,15.16,0,0,1,10.88,4.48l-4.21,4.17a9.35,9.35,0,0,0-5.21-2.64A9.46,9.46,0,0,0,237.22,30.46Zm4.25,18.26a9.61,9.61,0,0,0,4.25-1l-12.67-13.1a9.74,9.74,0,0,0-1,4.48A9.5,9.5,0,0,0,241.47,48.72Z"/><path class="cls-1" d="M274.4,24.33h7.85L269.34,39.11l12.91,14.74H274.4l-9-10.26-2.22,2.53v7.73h-5.9V24.33h5.9l5.71,6.32ZM263.18,37.16l2.22-2.57-2.22-2.52Z"/><path class="cls-1" d="M295.57,54.62c-6.16,0-11.79-3.1-11.79-8.85V45.2h5.89v.57c0,1.73,3.26,2.95,5.9,2.95,2.41,0,5.9-.92,5.9-2.95V41.68H283.78V32.41c0-5.36,5.63-8.84,11.79-8.84s11.79,3.44,11.79,8.84V33h-5.89v-.57c0-1.95-3.26-2.95-5.9-2.95-2.41,0-5.9,1-5.9,3.14v3.52h17.69v9.65C307.36,51.44,301.73,54.62,295.57,54.62Z"/><path class="cls-1" d="M137.07,24.33H125V42.06h5.9V36.12h0V30.23h6.2a8.74,8.74,0,0,1,8.35,5.89l.05.15a8.6,8.6,0,0,1,.5,2.94h0a7.78,7.78,0,0,1-1,3.95,8.8,8.8,0,0,1-7.86,4.8h-6.2V45H125v8.84h12.1a14.76,14.76,0,1,0,0-29.52Z"/><path class="cls-1" d="M46.21,7.49a25,25,0,0,0-19.36,0A24.85,24.85,0,0,0,13.59,20.74a25,25,0,0,0-.74,17.31c1.75-2.55,2.59-5.75,3.4-8.84A36.23,36.23,0,0,1,18,23.75a17.71,17.71,0,0,1,3.8-5.6,18.09,18.09,0,0,1,5.57-3.72,19.52,19.52,0,0,1,16.29.92,16.71,16.71,0,0,1,4.7,3.31l5.74-5.81A24.39,24.39,0,0,0,46.21,7.49Z"/><path class="cls-1" d="M53.5,34.52h1.12c1.15,0,2.92.78,5.49,3.7a24.77,24.77,0,0,0,1.27-7.81,20,20,0,0,0-.11-2.05c-.06-.69-.14-1.37-.24-2.05h-20a10.82,10.82,0,0,0-10.5,8.19H52.7S53.06,34.52,53.5,34.52Z"/><path class="cls-2" d="M62.12,61.49c2,1.58,6.84,5.54,8,7.17,0,0-3-13.21-3.72-15.07s-7.85-9.39-7.85-9.39,4.4,1,5.14,1.59c0,0-.36-.69-1-1.72-4.93-7.55-7.45-8.17-8.13-8.17H52.24a17.6,17.6,0,0,1-3.91,6.31,16.41,16.41,0,0,1-5.43,3.62,16.9,16.9,0,0,1-6.39,1.23,16.59,16.59,0,0,1-6.35-1.23,16.39,16.39,0,0,1-5.4-3.62,16.81,16.81,0,0,1-3.65-5.43,16.38,16.38,0,0,1-1.27-6.39A16.07,16.07,0,0,1,21.11,24a17.17,17.17,0,0,1,9.05-9c.13-.06.27-.1.41-.15a13.47,13.47,0,0,0-2.66.84,16.75,16.75,0,0,0-5.17,3.45,16,16,0,0,0-3.51,5.17,18.83,18.83,0,0,0-.73,2c-.1.33-.21.65-.3,1,0,.08-.05.16-.07.24-.36,1.3-.7,2.68-1.1,4.07A23.84,23.84,0,0,1,13.89,39a79.39,79.39,0,0,0-5.6,8.8l4.22-1.87s-4.62,6.37-5.1,7.48S3.27,65.64,2.64,67.55c0,0,4.24-4.36,7.18-5.87.14-.3.28-.6.43-.9a25.27,25.27,0,0,1,1.68-2.89A20.23,20.23,0,0,1,14,55.3c.75-.8,1.52-1.57,2.24-2.39-.62.9-1.3,1.76-2,2.64a19.6,19.6,0,0,0-1.73,2.73,24.11,24.11,0,0,0-1.28,2.95c-.15.4-.28.79-.41,1.2a83.4,83.4,0,0,0-2,8.62c0,1.27,4.08,22.5,4.35,23.56a66.49,66.49,0,0,1,3.46-5.69c-.14-1.81-.3-3.62-.45-5.43L15.92,80l0-.45,0-.46c0-.3,0-.61,0-.91A18.15,18.15,0,0,1,16,76.34a33.72,33.72,0,0,1,1.79-6.89A52.43,52.43,0,0,1,20.64,63a55.66,55.66,0,0,0-2.43,6.61,33,33,0,0,0-1.33,6.84,16.45,16.45,0,0,0,0,1.72c0,.28,0,.56,0,.84l.05.42.07.44.5,3.48c.22,1.45.43,2.89.64,4.33a122.19,122.19,0,0,0,4.54,15.6s.52-3.4,1.23-6c-.16-.73-.3-1.46-.43-2.19-.19-1.06-.36-2.12-.51-3.17l-.23-1.57c0-.26-.09-.5-.12-.82s0-.56,0-.84c0-1.09,0-2.16.1-3.22s.17-2.14.3-3.19.29-2.12.51-3.16A16,16,0,0,1,24.4,76a15.65,15.65,0,0,0-.58,3.11c-.11,1-.17,2.1-.19,3.15s0,2.11,0,3.16.1,2.1.22,3.13c0,.25.06.5.11.74s.11.48.17.74l.35,1.55c.24,1,.48,2,.74,3.07.33,1.28.71,2.55,1.14,3.78.84,1.91,1.82,4.07,2.47,5.25,1.33,2.38,7.11,10.45,7.48,10.77a110.94,110.94,0,0,1,3.83-13.08c.45-1.5.85-3,1.17-4.57a30.87,30.87,0,0,0,.52-3.45,9.91,9.91,0,0,0-.21-3.47,10.27,10.27,0,0,1,.65,3.48,30.18,30.18,0,0,1-.08,3.56,56.71,56.71,0,0,1-.79,5.81,8.92,8.92,0,0,0,.27,3.39s3.47-4.41,5.06-6.67c.72-1.29,1.4-2.62,2-4a45.3,45.3,0,0,0,2-5A34.23,34.23,0,0,0,52,85.31a25.58,25.58,0,0,0,.34-5.39,26,26,0,0,1,.12,5.44,33.36,33.36,0,0,1-.84,5.42A47.54,47.54,0,0,1,50,96c-.32.86-.66,1.71-1,2.55-.27.63-.54,1.24-.82,1.86.37,1,.77,2.19,1,3,0,0,3.3-3.53,6.44-11.84.51-1.34,1.29-4.23,1.66-5.67.16-1.06.3-2.12.43-3.18s.22-2,.3-3a18.44,18.44,0,0,0,0-3,2,2,0,0,0-.06-.35l-.07-.36-.2-.72-.22-.72-.25-.72c-.33-1-.69-1.9-1.07-2.85-.75-1.88-1.55-3.76-2.37-5.62q1.41,2.72,2.72,5.47c.43.92.86,1.85,1.25,2.8l.3.71.27.72.25.74.11.38c0,.13.07.26.09.4a18.44,18.44,0,0,1,.18,3.13c0,1-.06,2-.12,3.07-.1,1.7-.23,3.4-.4,5.1a63.9,63.9,0,0,1,2.06,7.29S63.66,74.82,63.87,73c.15-1.27-1.21-6.85-2-10l-.39-.57c-.54-.78-1.1-1.54-1.68-2.29a24.59,24.59,0,0,0-3.94-4.09,24.9,24.9,0,0,1,4.5,3.59C61,60.24,61.54,60.86,62.12,61.49Z"/></svg>