<svg id="Layer_1" data-name="Layer 1" xmlns="http://www.w3.org/2000/svg" xmlns:xlink="http://www.w3.org/1999/xlink" viewBox="0 0 400 300"><defs><style>.cls-1{fill:#d8a91d;}.cls-2{fill:#fff;}.cls-3{fill:url(#radial-gradient);}</style><radialGradient id="radial-gradient" cx="202.32" cy="99.38" r="87.92" gradientUnits="userSpaceOnUse"><stop offset="0" stop-color="#ffcb04"/><stop offset="1" stop-color="#d8a91d"/></radialGradient></defs><path class="cls-1" d="M74.93,291.14a22,22,0,1,1,21.78-22A21.87,21.87,0,0,1,74.93,291.14Zm0-35.7a13.67,13.67,0,1,0,13.42,13.7A13.55,13.55,0,0,0,74.93,255.44Z"/><path class="cls-1" d="M131.48,290.06H102.14v-41.9h8.37v33.53h12.61v-8.37h0a8.36,8.36,0,0,1,8.36,8.37Z"/><path class="cls-1" d="M195.59,256.53h-4.18v25.16h4.18v8.37H178.86v-8.37H183V256.53h-4.18v-8.37h16.73Z"/><path class="cls-1" d="M230.91,290.06H201.56v-41.9h8.37v33.53h12.61v-8.37h0a8.37,8.37,0,0,1,8.37,8.37Z"/><path class="cls-1" d="M253.78,291.14a22,22,0,1,1,21.79-22A21.87,21.87,0,0,1,253.78,291.14Zm0-35.7a13.67,13.67,0,1,0,13.42,13.7A13.55,13.55,0,0,0,253.78,255.44Z"/><path class="cls-1" d="M295.66,256.86l24.13,24.67a21.55,21.55,0,0,1-18.09,9.61,22,22,0,0,1,0-44.06,21.57,21.57,0,0,1,15.43,6.35l-6,5.93a13.2,13.2,0,0,0-7.39-3.75A13.4,13.4,0,0,0,295.66,256.86Zm6,25.91a13.56,13.56,0,0,0,6-1.41l-18-18.58a13.84,13.84,0,0,0-1.47,6.36A13.5,13.5,0,0,0,301.7,282.77Z"/><path class="cls-1" d="M348.42,248.16h11.14l-18.31,21,18.31,20.92H348.42l-12.77-14.57-3.15,3.59v11h-8.37v-41.9h8.37l8.09,9ZM332.5,266.37l3.15-3.64-3.15-3.59Z"/><path class="cls-1" d="M378.46,291.14c-8.75,0-16.73-4.4-16.73-12.55v-.81h8.36v.81c0,2.45,4.62,4.18,8.37,4.18,3.42,0,8.37-1.3,8.37-4.18v-5.81h-25.1V259.63c0-7.61,8-12.55,16.73-12.55,8.59,0,16.74,4.89,16.74,12.55v.81h-8.37v-.81c0-2.77-4.62-4.19-8.37-4.19-3.42,0-8.37,1.42-8.37,4.46v5H395.2v13.69C395.2,286.63,387.21,291.14,378.46,291.14Z"/><path class="cls-1" d="M48.71,267.26c.06.61.09,1.21.09,1.81a21.63,21.63,0,0,1-1.72,8.56,22,22,0,0,1-11.73,11.72,22.11,22.11,0,0,1-17.1,0A21.93,21.93,0,0,1,6.53,277.63a22,22,0,0,1,0-17.11A21.93,21.93,0,0,1,18.25,248.8a21.45,21.45,0,0,1,8.55-1.72,21.38,21.38,0,0,1,8.58,1.72,21.66,21.66,0,0,1,6.95,4.74l-5.07,5.14a14.82,14.82,0,0,0-4.81-3.23,14.49,14.49,0,0,0-5.65-1.12,14.28,14.28,0,0,0-5.62,1.12,14.76,14.76,0,0,0-4.77,3.23,15,15,0,0,0-3.24,4.77,14.49,14.49,0,0,0-1.12,5.62,14.64,14.64,0,0,0,1.12,5.65,14.79,14.79,0,0,0,3.24,4.81,14.36,14.36,0,0,0,4.77,3.2,14.62,14.62,0,0,0,5.62,1.09,14.84,14.84,0,0,0,5.65-1.09,14.42,14.42,0,0,0,4.81-3.2,15.41,15.41,0,0,0,3.86-6.83H21.54a9.58,9.58,0,0,1,9.29-7.25H48.5C48.58,266.05,48.65,266.66,48.71,267.26Z"/><path class="cls-1" d="M153.54,248.16H136.37v25.16h8.37V264.9h0v-8.37h8.8a12.41,12.41,0,0,1,11.85,8.37l.07.21a12.13,12.13,0,0,1,.71,4.17h0a11,11,0,0,1-1.48,5.6,12.45,12.45,0,0,1-11.15,6.81h-8.8V277.5h-8.37v12.56h17.17a21,21,0,1,0,0-41.9Z"/><path class="cls-2" d="M219.9,12.68a49.24,49.24,0,0,0-38,0,48.71,48.71,0,0,0-26,26,48.87,48.87,0,0,0-1.46,34c3.43-5,5.08-11.29,6.66-17.36a70.7,70.7,0,0,1,3.39-10.73,34.44,34.44,0,0,1,7.46-11,35.5,35.5,0,0,1,10.95-7.32c6.72-3,20.16-4.66,32,1.81a32.88,32.88,0,0,1,9.22,6.49l11.27-11.4A48,48,0,0,0,219.9,12.68Z"/><path class="cls-2" d="M234.21,65.78h2.21c2.25,0,5.74,1.53,10.77,7.25a48.06,48.06,0,0,0,2.49-15.34,39,39,0,0,0-.2-4c-.13-1.34-.29-2.68-.47-4H209.8a21.26,21.26,0,0,0-20.62,16.1h43.47Z"/><path class="cls-3" d="M251.15,118.73c3.9,3.11,13.43,10.88,15.74,14.09,0,0-5.84-25.95-7.3-29.59s-15.42-18.45-15.42-18.45,8.65,1.88,10.11,3.13c0,0-.72-1.36-1.89-3.38-9.69-14.83-14.64-16-16-16h-4.67a34.58,34.58,0,0,1-7.69,12.38A31.7,31.7,0,0,1,213.4,88a33.14,33.14,0,0,1-12.55,2.42A32.59,32.59,0,0,1,188.38,88a31.86,31.86,0,0,1-10.6-7.11A32.82,32.82,0,0,1,170.6,70.2a32.43,32.43,0,0,1-2.48-12.54,32,32,0,0,1,2.48-12.48,33.83,33.83,0,0,1,17.78-17.77c.26-.12.53-.19.8-.29A25.93,25.93,0,0,0,184,28.77a33,33,0,0,0-10.16,6.77,31.63,31.63,0,0,0-6.88,10.16,36.33,36.33,0,0,0-1.44,3.87c-.2.64-.4,1.28-.59,2,0,.15-.09.31-.13.46-.71,2.56-1.39,5.27-2.16,8-1.38,5-3.14,10.2-6.17,14.53a155.94,155.94,0,0,0-11,17.29l8.28-3.69s-9.07,12.51-10,14.7-8.13,24.07-9.38,27.82c0,0,8.33-8.56,14.1-11.52.28-.59.56-1.18.85-1.76a48,48,0,0,1,3.29-5.69,40.45,40.45,0,0,1,4.11-5.07c1.48-1.58,3-3.09,4.4-4.71-1.21,1.77-2.55,3.46-3.83,5.18a40.41,40.41,0,0,0-3.4,5.37,46.56,46.56,0,0,0-2.51,5.8c-.29.77-.55,1.55-.8,2.34-1.29,4.77-4,15-4,16.94,0,2.5,8,44.19,8.55,46.27,0,0,3.7-6.83,6.8-11.17-.28-3.55-.59-7.12-.89-10.68l-.56-6.91-.06-.87-.06-.9q0-.9,0-1.8a34.9,34.9,0,0,1,.28-3.55,67,67,0,0,1,3.52-13.53,108.94,108.94,0,0,1,5.57-12.71,108.46,108.46,0,0,0-4.75,13,65.06,65.06,0,0,0-2.62,13.44c-.08,1.12-.1,2.25-.07,3.36,0,.56.06,1.12.12,1.67l.09.82.13.85,1,6.86c.42,2.83.84,5.65,1.26,8.49.83,3.67,4.74,20.47,8.9,30.64,0,0,1-6.69,2.43-11.85-.32-1.43-.6-2.87-.86-4.3-.37-2.08-.69-4.15-1-6.22l-.46-3.08c-.07-.51-.16-1-.22-1.62s-.07-1.1-.08-1.64c0-2.15.05-4.24.19-6.34s.32-4.18.58-6.26.58-4.15,1-6.21a32.12,32.12,0,0,1,1.76-6,31.79,31.79,0,0,0-1.14,6.11c-.22,2.06-.33,4.13-.38,6.2s0,4.14,0,6.2.2,4.13.43,6.14c.06.5.13,1,.22,1.46s.21.94.33,1.45l.7,3c.46,2,.93,4,1.45,6,.65,2.52,1.39,5,2.25,7.44,1.63,3.74,3.56,8,4.84,10.29,2.6,4.69,14,20.53,14.69,21.16,0,0,3.37-15,7.51-25.69.9-2.95,1.68-5.95,2.31-9a59.78,59.78,0,0,0,1-6.77,19.58,19.58,0,0,0-.42-6.82,20,20,0,0,1,1.29,6.83,58.39,58.39,0,0,1-.17,7,104.59,104.59,0,0,1-1.55,11.41c-.14,2.74-.06,5.31.54,6.65,0,0,6.81-8.65,9.94-13.1,1.4-2.52,2.74-5.13,4-7.77a90.56,90.56,0,0,0,3.93-9.77,66.91,66.91,0,0,0,2.49-10.25,51.25,51.25,0,0,0,.67-10.58,51.59,51.59,0,0,1,.22,10.69,63.28,63.28,0,0,1-1.66,10.64,90.18,90.18,0,0,1-3.22,10.29c-.63,1.69-1.29,3.36-2,5-.52,1.23-1,2.43-1.6,3.65.72,2,1.52,4.3,1.93,5.92,0,0,6.47-6.93,12.65-23.25,1-2.63,2.52-8.3,3.26-11.14q.45-3.11.83-6.23c.23-2,.45-3.95.59-5.92a34.46,34.46,0,0,0,0-5.83,4.13,4.13,0,0,0-.11-.69l-.14-.7-.39-1.42-.44-1.41-.48-1.41c-.66-1.88-1.37-3.74-2.1-5.59q-2.22-5.56-4.67-11,2.77,5.33,5.35,10.75c.85,1.81,1.68,3.64,2.46,5.49l.58,1.4.54,1.41.49,1.45.21.76a6.63,6.63,0,0,1,.18.77,36.59,36.59,0,0,1,.34,6.14c0,2-.11,4-.22,6-.19,3.35-.46,6.68-.78,10,1.7,5.32,4,12.69,4,14.31,0,0,6.25-40.12,6.67-43.66.3-2.51-2.38-13.46-4-19.66l-.77-1.11q-1.59-2.3-3.31-4.49a47.87,47.87,0,0,0-7.74-8,48.64,48.64,0,0,1,8.85,7C248.85,116.28,250,117.49,251.15,118.73Z"/></svg>