<svg id="Layer_1" data-name="Layer 1" xmlns="http://www.w3.org/2000/svg" xmlns:xlink="http://www.w3.org/1999/xlink" viewBox="0 0 400 130"><defs><style>.cls-1{fill:#d8a91d;}.cls-2{fill:#fff;}.cls-3{fill:url(#radial-gradient);}</style><radialGradient id="radial-gradient" cx="41.13" cy="56.64" r="44.77" gradientUnits="userSpaceOnUse"><stop offset="0" stop-color="#ffcb04"/><stop offset="1" stop-color="#d8a91d"/></radialGradient></defs><path class="cls-1" d="M144.88,82.1A17.1,17.1,0,1,1,161.8,65,17,17,0,0,1,144.88,82.1Zm0-27.71A10.61,10.61,0,1,0,155.3,65,10.52,10.52,0,0,0,144.88,54.39Z"/><path class="cls-1" d="M188.79,81.26H166V48.74h6.49v26h9.79V68.27h0a6.5,6.5,0,0,1,6.5,6.49Z"/><path class="cls-1" d="M238.55,55.24H235.3V74.76h3.25v6.5h-13v-6.5h3.25V55.24h-3.25v-6.5h13Z"/><path class="cls-1" d="M266,81.26H243.19V48.74h6.49v26h9.79V68.27h0A6.5,6.5,0,0,1,266,74.76Z"/><path class="cls-1" d="M283.72,82.1A17.1,17.1,0,1,1,300.63,65,17,17,0,0,1,283.72,82.1Zm0-27.71A10.61,10.61,0,1,0,294.14,65,10.52,10.52,0,0,0,283.72,54.39Z"/><path class="cls-1" d="M316.23,55.49,335,74.64a16.74,16.74,0,0,1-14,7.46,17.1,17.1,0,0,1,0-34.2,16.74,16.74,0,0,1,12,4.93l-4.64,4.6a10.23,10.23,0,0,0-5.73-2.91A10.43,10.43,0,0,0,316.23,55.49Zm4.68,20.12a10.59,10.59,0,0,0,4.69-1.1l-14-14.42A10.71,10.71,0,0,0,310.5,65,10.47,10.47,0,0,0,320.91,75.61Z"/><path class="cls-1" d="M357.18,48.74h8.65L351.62,65l14.21,16.24h-8.65L347.27,70l-2.44,2.78v8.52h-6.5V48.74h6.5l6.28,7ZM344.83,62.87,347.27,60l-2.44-2.78Z"/><path class="cls-1" d="M380.51,82.1c-6.8,0-13-3.41-13-9.74v-.63H374v.63c0,1.9,3.59,3.25,6.5,3.25,2.65,0,6.49-1,6.49-3.25V67.85H367.51V57.64c0-5.9,6.2-9.74,13-9.74s13,3.79,13,9.74v.63H387v-.63c0-2.15-3.58-3.25-6.49-3.25-2.66,0-6.5,1.1-6.5,3.46v3.88H393.5V72.36C393.5,78.6,387.3,82.1,380.51,82.1Z"/><path class="cls-1" d="M124.53,63.57a13,13,0,0,1,.07,1.4,16.69,16.69,0,0,1-1.34,6.64,17.08,17.08,0,0,1-9.1,9.1,17.1,17.1,0,0,1-13.27,0,17.19,17.19,0,0,1-5.45-3.66,17.48,17.48,0,0,1-3.66-5.44,17.24,17.24,0,0,1,0-13.28,17.6,17.6,0,0,1,3.66-5.44,17.19,17.19,0,0,1,5.45-3.66,16.86,16.86,0,0,1,18.69,3.69l-3.94,4a11.63,11.63,0,0,0-3.73-2.51,11.45,11.45,0,0,0-4.39-.86,11.3,11.3,0,0,0-4.36.86,11.65,11.65,0,0,0-3.71,2.51A11.46,11.46,0,0,0,97,60.61,11.13,11.13,0,0,0,96.08,65,11.27,11.27,0,0,0,97,69.36a11.44,11.44,0,0,0,2.5,3.73,11.3,11.3,0,0,0,8.07,3.33,11.44,11.44,0,0,0,4.39-.85,11.22,11.22,0,0,0,3.73-2.48,12,12,0,0,0,3-5.3h-15.2a7.43,7.43,0,0,1,7.21-5.63h13.71C124.43,62.63,124.48,63.1,124.53,63.57Z"/><path class="cls-1" d="M205.91,48.74H192.58V68.27h6.5V61.73h0V55.24h6.84a9.63,9.63,0,0,1,9.19,6.49l.06.17a9.54,9.54,0,0,1,.55,3.24h0a8.51,8.51,0,0,1-1.15,4.34,9.66,9.66,0,0,1-8.65,5.28h-6.84V71.52h-6.49v9.74h13.33a16.26,16.26,0,1,0,0-32.52Z"/><path class="cls-2" d="M50.08,12.49a25,25,0,0,0-19.37,0A24.88,24.88,0,0,0,17.46,25.74a24.25,24.25,0,0,0-2,9.67,24.58,24.58,0,0,0,1.21,7.64c1.75-2.55,2.59-5.75,3.39-8.84a35.1,35.1,0,0,1,1.73-5.46,17.51,17.51,0,0,1,3.79-5.6,18.26,18.26,0,0,1,5.58-3.72,19.52,19.52,0,0,1,16.29.92,16.71,16.71,0,0,1,4.7,3.31l5.73-5.81A24.45,24.45,0,0,0,50.08,12.49Z"/><path class="cls-2" d="M57.37,39.52h1.12c1.15,0,2.92.78,5.48,3.7a24.49,24.49,0,0,0,1.27-7.81,20,20,0,0,0-.1-2c-.07-.69-.15-1.37-.24-2.05h-20A10.81,10.81,0,0,0,34.44,39.5H56.57S56.93,39.52,57.37,39.52Z"/><path class="cls-3" d="M66,66.49c2,1.58,6.84,5.54,8,7.17,0,0-3-13.21-3.71-15.07s-7.86-9.39-7.86-9.39,4.41,1,5.15,1.59c0,0-.36-.69-1-1.72-4.93-7.55-7.45-8.17-8.13-8.17H56.11a17.74,17.74,0,0,1-3.91,6.31,16.41,16.41,0,0,1-5.43,3.62,16.9,16.9,0,0,1-6.39,1.23A16.59,16.59,0,0,1,34,50.83a16.29,16.29,0,0,1-5.4-3.62A16.81,16.81,0,0,1,25,41.78a16.38,16.38,0,0,1-1.27-6.39A16.07,16.07,0,0,1,25,29,17.17,17.17,0,0,1,34,20c.13-.06.27-.1.4-.15a13.36,13.36,0,0,0-2.65.84,16.75,16.75,0,0,0-5.17,3.45A16,16,0,0,0,23.1,29.3a18.83,18.83,0,0,0-.73,2c-.1.33-.21.65-.3,1a2.17,2.17,0,0,0-.07.24c-.36,1.3-.71,2.68-1.1,4.07A23.84,23.84,0,0,1,17.76,44a79.39,79.39,0,0,0-5.6,8.8l4.21-1.87s-4.61,6.37-5.09,7.48S7.14,70.64,6.5,72.55c0,0,4.25-4.36,7.19-5.87.14-.3.28-.6.43-.9a25.19,25.19,0,0,1,1.67-2.89,21.13,21.13,0,0,1,2.09-2.59c.76-.8,1.53-1.57,2.25-2.39-.62.9-1.3,1.76-1.95,2.64a20.64,20.64,0,0,0-1.74,2.73,24.05,24.05,0,0,0-1.27,3c-.15.4-.28.79-.41,1.2a83.91,83.91,0,0,0-2,8.62c0,1.27,4.09,22.5,4.35,23.56,0,0,1.89-3.48,3.47-5.69-.14-1.81-.3-3.62-.45-5.43L19.79,85l0-.45,0-.46c0-.3,0-.61,0-.91a18.14,18.14,0,0,1,.14-1.81,35.07,35.07,0,0,1,1.79-6.89A55.63,55.63,0,0,1,24.5,68a53.91,53.91,0,0,0-2.42,6.61,33,33,0,0,0-1.33,6.84,16.46,16.46,0,0,0,0,1.72q0,.42.06.84l.05.42.06.44.51,3.48c.21,1.45.43,2.89.64,4.33a120.13,120.13,0,0,0,4.53,15.6s.53-3.4,1.24-6c-.16-.73-.31-1.46-.44-2.19-.19-1.06-.35-2.12-.5-3.17l-.23-1.57c0-.26-.09-.5-.12-.82a8,8,0,0,1,0-.84c0-1.09,0-2.16.1-3.22s.16-2.14.29-3.19.3-2.12.51-3.16a16.06,16.06,0,0,1,.9-3.06,15.65,15.65,0,0,0-.58,3.11c-.11,1-.17,2.1-.19,3.15s0,2.11,0,3.16.09,2.1.21,3.13c0,.25.07.5.11.74s.11.48.17.74l.36,1.55c.23,1,.47,2,.74,3.07.33,1.28.71,2.55,1.14,3.78.83,1.91,1.82,4.07,2.47,5.25,1.32,2.38,7.11,10.45,7.48,10.77A110,110,0,0,1,44,106.38c.46-1.5.86-3,1.18-4.57a30.87,30.87,0,0,0,.52-3.45,10.15,10.15,0,0,0-.21-3.47,10.27,10.27,0,0,1,.65,3.48,30.18,30.18,0,0,1-.09,3.56,54,54,0,0,1-.78,5.81,8.53,8.53,0,0,0,.27,3.39s3.47-4.41,5.06-6.67c.72-1.29,1.4-2.62,2-4a47.38,47.38,0,0,0,2-5,34.23,34.23,0,0,0,1.26-5.22,25.58,25.58,0,0,0,.34-5.39,26.73,26.73,0,0,1,.12,5.44,32.33,32.33,0,0,1-.85,5.42A45.45,45.45,0,0,1,53.88,101q-.48,1.29-1,2.55c-.26.63-.53,1.24-.81,1.86.36,1,.77,2.19,1,3,0,0,3.3-3.53,6.44-11.84.51-1.34,1.28-4.23,1.66-5.67.15-1.06.3-2.12.43-3.18s.22-2,.29-3a17.38,17.38,0,0,0,0-3c0-.12,0-.24-.06-.35l-.07-.36-.2-.72-.23-.72-.24-.72c-.34-1-.7-1.9-1.07-2.85-.75-1.88-1.55-3.76-2.38-5.62q1.42,2.72,2.73,5.47c.43.92.85,1.85,1.25,2.8l.29.71.28.72.25.74.11.38c0,.13.07.26.09.4a18.42,18.42,0,0,1,.17,3.13c0,1,0,2-.11,3.07-.1,1.7-.23,3.4-.4,5.1a61.25,61.25,0,0,1,2.05,7.29S67.53,79.82,67.74,78c.15-1.27-1.21-6.85-2-10l-.39-.57c-.54-.78-1.1-1.54-1.69-2.29a23.82,23.82,0,0,0-3.94-4.09,24.62,24.62,0,0,1,4.51,3.59C64.82,65.24,65.41,65.86,66,66.49Z"/></svg>