<?xml version="1.0" encoding="UTF-8" standalone="no"?>
<!-- Created with Inkscape (http://www.inkscape.org/) -->

<svg
   xmlns:dc="http://purl.org/dc/elements/1.1/"
   xmlns:cc="http://creativecommons.org/ns#"
   xmlns:rdf="http://www.w3.org/1999/02/22-rdf-syntax-ns#"
   xmlns:svg="http://www.w3.org/2000/svg"
   xmlns="http://www.w3.org/2000/svg"
   xmlns:sodipodi="http://sodipodi.sourceforge.net/DTD/sodipodi-0.dtd"
   xmlns:inkscape="http://www.inkscape.org/namespaces/inkscape"
   id="svg4156"
   version="1.1"
   inkscape:version="0.91 r13725"
   width="408.75"
   height="597.1875"
   viewBox="0 0 408.75 597.1875"
   sodipodi:docname="WoodlandBeardtongue.svg">
  <metadata
     id="metadata4162">
    <rdf:RDF>
      <cc:Work
         rdf:about="">
        <dc:format>image/svg+xml</dc:format>
        <dc:type
           rdf:resource="http://purl.org/dc/dcmitype/StillImage" />
        <dc:title></dc:title>
      </cc:Work>
    </rdf:RDF>
  </metadata>
  <defs
     id="defs4160" />
  <sodipodi:namedview
     pagecolor="#ffffff"
     bordercolor="#666666"
     borderopacity="1"
     objecttolerance="10"
     gridtolerance="10"
     guidetolerance="10"
     inkscape:pageopacity="0"
     inkscape:pageshadow="2"
     inkscape:window-width="1600"
     inkscape:window-height="837"
     id="namedview4158"
     showgrid="false"
     inkscape:zoom="1.1219257"
     inkscape:cx="204.375"
     inkscape:cy="298.59375"
     inkscape:window-x="-8"
     inkscape:window-y="-8"
     inkscape:window-maximized="1"
     inkscape:current-layer="svg4156" />
  <path
     style="fill:#000000"
     d="m 57.950413,594.26375 c -2.949591,-3.16383 -5.908122,-3.43392 -10.878386,-0.99315 -1.913052,0.93945 -4.322027,1.52687 -5.353277,1.30536 -3.943794,-0.84708 -4.272195,-1.85403 -3.62188,-11.10551 0.352745,-5.01822 0.256679,-8.7891 -0.22412,-8.7973 -0.462825,-0.007 -1.443032,-0.39506 -2.178237,-0.86035 -1.092986,-0.69172 -0.83656,-1.44407 1.40625,-4.12589 6.254635,-7.47891 8.015171,-11.41092 7.712815,-17.22588 -0.267547,-5.14551 -0.417303,-5.44531 -2.860453,-5.72642 -4.211005,-0.48453 -3.497255,-1.73403 4.30717,-7.54019 6.946793,-5.16811 10.27595,-12.59567 7.078669,-15.79296 -0.756381,-0.75638 0.651553,-1.87592 5.215973,-4.14755 5.361417,-2.66829 6.725012,-3.89016 9.572511,-8.57765 3.065985,-5.04716 3.206107,-5.59255 1.828077,-7.11525 -1.713791,-1.89372 -0.482311,-3.87351 2.409418,-3.87351 6.409666,0 18.572557,-8.39482 18.572557,-12.81877 0,-2.06529 0.236809,-2.11985 8.328075,-1.91911 6.903675,0.17129 8.650095,-0.0831 10.210805,-1.48726 1.1433,-1.02863 1.69562,-2.40936 1.40633,-3.51563 -0.63306,-2.42082 0.32815,-2.31444 8.53112,0.94413 3.82945,1.52121 9.9387,3.48416 13.57609,4.36209 l 6.61346,1.59625 3.53426,-2.69571 c 5.27663,-4.02469 9.76667,-6.14071 13.32949,-6.2818 l 3.18588,-0.12617 -0.63111,-19.73214 c -0.3471,-10.85267 -1.272,-28.08612 -2.05533,-38.29655 -0.78333,-10.21044 -1.5749,-22.02294 -1.75906,-26.25 -0.95374,-21.89258 -1.78891,-30.20518 -3.13434,-31.19692 -1.08253,-0.79794 -1.39007,-3.7651 -1.45753,-14.0625 -0.0677,-10.32598 -0.37425,-13.27181 -1.46832,-14.10787 -1.18303,-0.90406 -1.00367,-1.50729 1.24144,-4.17545 2.32352,-2.76135 2.57674,-3.69146 2.20975,-8.11689 -0.51048,-6.15573 -1.68794,-7.61136 -4.80672,-5.94224 -1.66218,0.88957 -2.75675,2.95959 -4.21048,7.96275 -1.40314,4.82903 -3.29355,8.48468 -6.61639,12.79461 -2.55858,3.31866 -5.97678,8.24877 -7.596,10.95581 -2.89025,4.83196 -4.36156,5.79988 -6.13455,4.03564 -1.19754,-1.19164 -12.69073,6.47591 -16.08673,10.73208 -2.91497,3.65331 -5.89764,4.36343 -5.89764,1.40415 0,-1.03125 -0.37016,-1.875 -0.82258,-1.875 -2.500014,0 -18.079535,5.68133 -20.512823,7.48034 C 77.032914,371.48586 75,371.30097 75,368.90837 c 0,-1.75024 -6.51012,-2.69503 -19.025708,-2.76115 -9.958684,-0.0526 -10.111223,-0.0863 -9.60114,-2.12449 0.44823,-1.79097 -0.02157,-2.2156 -3.474292,-3.14017 -2.195935,-0.58803 -6.405679,-2.08185 -9.354986,-3.3196 -3.473805,-1.45787 -7.188301,-2.25046 -10.546875,-2.25046 -5.309672,0 -6.205288,-0.72028 -3.838517,-3.08706 1.738995,-1.73899 0.169898,-3.46723 -3.174107,-3.49603 C 11.011178,348.68658 0,342.34548 0,339.52435 c 0,-0.9153 1.5019172,-2.33389 3.515625,-3.32059 1.9335937,-0.94745 4.1484375,-2.04667 4.921875,-2.4427 0.8990289,-0.46034 1.3029056,-1.75462 1.1197322,-3.58834 -0.2604483,-2.60732 0.0381,-2.95844 3.2812498,-3.85903 1.962273,-0.5449 4.449053,-0.99309 5.526178,-0.99596 2.134665,-0.006 8.411334,-4.3778 9.262859,-6.45218 0.291407,-0.70989 0.06436,-1.85157 -0.504554,-2.53706 -1.692134,-2.0389 -0.09371,-3.20349 4.396835,-3.20349 4.513627,0 12.583423,-2.25997 16.082295,-4.50388 1.402838,-0.89968 1.951567,-1.94091 1.60249,-3.04075 -0.778818,-2.45384 1.071805,-3.15829 8.920415,-3.39562 9.377288,-0.28357 14.482414,-2.07237 14.510333,-5.08435 0.02672,-2.88266 2.653413,-3.33144 8.856246,-1.51313 3.916916,1.14821 8.416886,1.36556 16.242796,0.78454 0.957159,-0.0711 1.640625,-0.87986 1.640625,-1.94148 0,-2.95119 1.54508,-3.08918 6.29244,-0.56196 2.79133,1.48594 5.98755,2.38163 8.49871,2.38163 3.65997,0 3.93863,-0.16104 3.07404,-1.77655 -0.70547,-1.31818 -0.59425,-2.07247 0.43107,-2.9234 1.59129,-1.32067 3.6472,-0.22718 10.9394,5.81842 2.41555,2.00262 6.25712,4.27666 8.53682,5.05344 2.2797,0.77676 5.3393,2.65898 6.79911,4.1827 2.59571,2.70933 6.42962,4.10437 4.39312,1.59851 -0.52381,-0.64453 -2.31278,-3.70312 -3.97548,-6.79687 -1.6627,-3.09375 -4.38439,-7.73438 -6.0482,-10.3125 -1.6638,-2.57813 -5.25364,-8.48438 -7.9774,-13.125 -2.72376,-4.64063 -7.32438,-11.53597 -10.22359,-15.32298 -2.89921,-3.78701 -7.00843,-9.27139 -9.1316,-12.1875 -3.81566,-5.2407 -3.92057,-5.30525 -9.07148,-5.58111 -2.866144,-0.15351 -6.613379,0.0837 -8.327192,0.52711 -3.039166,0.78632 -3.133355,0.96175 -3.818969,7.11298 -0.760929,6.82694 -2.359692,10.53871 -9.031225,20.96734 -4.873605,7.61819 -7.139892,8.86871 -6.108433,3.37056 l 0.648603,-3.45735 -2.607552,2.0511 c -1.771247,1.39327 -3.910817,2.0511 -6.671064,2.0511 -3.881042,0 -4.203536,0.22102 -7.181792,4.92187 -1.715055,2.70704 -3.850176,6.60938 -4.744715,8.67188 -0.894539,2.0625 -2.238985,4.80469 -2.987657,6.09375 -0.748672,1.28906 -1.994347,3.68414 -2.768166,5.32239 -0.773818,1.63826 -2.212311,3.23426 -3.196648,3.54668 -0.984338,0.31241 -2.017797,1.44025 -2.296576,2.5063 -0.609515,2.3308 -2.508074,1.46146 -2.508074,-1.14841 0,-1.01744 0.87061,-2.17194 1.934691,-2.56557 2.088383,-0.77255 4.755794,-4.78725 9.25362,-13.92759 1.569062,-3.1886 3.232784,-6.03226 3.697159,-6.31927 0.464375,-0.287 1.12996,-1.6599 1.479076,-3.0509 0.349118,-1.39098 1.194436,-2.977 1.878486,-3.52447 0.927862,-0.74261 1.120196,-2.94904 0.757318,-8.68789 -0.468845,-7.41469 -0.543901,-7.62147 -2.078523,-5.7263 -0.875662,1.0814 -2.076436,1.80083 -2.668386,1.59873 -1.592352,-0.54364 2.321629,-7.76678 7.095376,-13.0943 4.978136,-5.55562 10.46147,-8.27834 17.640981,-8.75954 3.047799,-0.20429 7.228952,-1.10216 9.291452,-1.99529 2.0625,-0.89313 5.997516,-1.88138 8.744484,-2.1961 l 4.994496,-0.57222 -2.915627,-4.01838 c -1.603594,-2.2101 -4.062047,-4.45933 -5.463234,-4.99827 -7.28725,-2.80294 -12.942348,-6.49708 -18.23438,-11.91146 -3.231656,-3.30637 -5.411476,-6.18694 -4.844042,-6.40126 1.215367,-0.45905 -18.12922,-20.32581 -26.551807,-27.26852 -6.029068,-4.96974 -12.147311,-8.44978 -18.57927,-10.56782 -4.633109,-1.52569 -12.704418,-7.41019 -15.4471,-11.26192 -3.0934717,-4.34439 -2.3741881,-13.41445 1.502294,-18.94371 3.056188,-4.35922 8.78429,-8.02734 12.722042,-8.14684 2.000638,-0.0608 2.395429,-0.43858 2.007621,-1.92155 -0.787059,-3.00972 4.757829,-9.21216 8.914406,-9.97155 2.031816,-0.37121 4.650737,-1.83735 6.337931,-3.54816 5.331013,-5.40563 10.290035,-8.1684 16.494628,-9.18949 7.542427,-1.24126 10.21413,-0.24648 13.556034,5.04744 3.065691,4.85637 3.259444,5.69091 6.923229,29.82024 1.604991,10.57031 3.558508,21.75 4.341147,24.84375 2.16458,8.55652 8.505772,23.67014 11.54347,27.51275 3.498262,4.4252 5.672428,12.01278 5.672428,19.79612 0,5.49728 0.38224,6.79838 3.42747,11.66684 3.36685,5.38261 3.44784,5.44013 4.57852,3.25191 2.02275,-3.91465 2.45586,-9.5077 0.93478,-12.07137 -3.33994,-5.62919 -4.51225,-9.32076 -4.9123,-15.46875 -0.23488,-3.60938 -0.79177,-8.23856 -1.23755,-10.28708 -0.44578,-2.04852 -0.64149,-3.8936 -0.4349,-4.10019 1.03213,-1.03214 3.16461,0.9966 3.72382,3.54267 0.92078,4.19232 2.35786,3.51628 2.35646,-1.10853 -9.4e-4,-3.84512 0.7309,-10.3089 3.22864,-28.50772 0.9616,-7.00633 0.95115,-9.59338 -0.0568,-14.0625 -2.90467,-12.8787 -5.98313,-30.85726 -5.98313,-34.9421 0,-6.31139 2.34398,-13.34697 5.36858,-16.114094 2.53384,-2.318128 2.83932,-2.36295 11.97517,-1.757165 6.01235,0.398672 10.49911,1.206225 12.509,2.251434 1.72369,0.896385 3.24221,1.493205 3.37447,1.326285 0.13226,-0.16694 -0.11332,-1.61046 -0.54574,-3.207838 -0.97957,-3.61861 -10.03511,-10.689422 -13.68985,-10.689422 -1.91081,0 -4.31195,-1.902069 -10.27386,-8.138511 -7.98051,-8.347969 -9.18069,-10.25889 -5.90527,-9.402349 2.22734,0.582463 2.37219,-0.193425 0.49856,-2.670581 -0.75703,-1.000895 -1.38984,-2.346176 -1.40625,-2.989514 -0.0356,-1.397401 -6.48154,-10.549045 -7.43017,-10.549045 -1.642399,0 -12.617305,-8.86328 -14.013231,-11.317014 -1.137525,-1.999522 -2.263098,-2.735223 -4.191339,-2.739558 -3.880105,-0.0087 -12.497834,-4.40264 -14.699756,-7.494954 -3.142317,-4.412978 -5.591635,-10.577616 -5.591635,-14.073474 0,-3.78726 2.997901,-10.9475434 5.368512,-12.8223296 4.939251,-3.9061816 9.009592,-5.21823811 14.757095,-4.75688382 5.583767,0.44821119 9.389616,2.20358282 15.14552,6.98556802 C 99.557728,9.1881898 114.375,28.834343 114.375,30.007936 c 0,0.4376 0.55257,1.353113 1.22794,2.034474 1.63787,1.652401 7.60592,15.985088 9.10398,21.86384 0.65698,2.578125 1.61627,5.109375 2.13177,5.625 0.62475,0.624898 0.74478,0.390446 0.35996,-0.703125 -0.4231,-1.20241 -0.0844,-1.640625 1.26827,-1.640625 2.22349,0 2.21491,0.186199 0.33638,-7.304208 -2.90937,-11.600824 0.19815,-25.261282 6.65418,-29.251329 3.66724,-2.266475 10.09504,-2.469425 14.88072,-0.469841 7.44737,3.111709 9.8888,16.615249 5.59243,30.931628 -3.81673,12.718085 -3.61851,15.809523 0.48663,7.589761 2.55795,-5.121805 3.84565,-6.106911 4.53532,-3.469598 0.42511,1.625617 1.16882,0.872668 4.30531,-4.358798 2.08529,-3.478126 4.04049,-6.534803 4.3449,-6.792615 0.3044,-0.257813 2.15632,-2.850182 4.11538,-5.760822 4.60425,-6.840717 13.43562,-15.240147 18.05182,-17.168921 1.99493,-0.833532 5.97671,-1.761092 8.84841,-2.061244 4.69969,-0.491215 5.51648,-0.297337 8.17636,1.940809 3.93062,3.307402 5.3306,7.871602 4.65,15.159951 -1.06927,11.450543 -4.54843,15.390227 -13.59121,15.390227 -4.10637,0 -5.22167,0.490412 -10.12732,4.453125 -3.03201,2.449219 -6.56626,5.507812 -7.85386,6.796875 -1.28762,1.289062 -3.39581,3.059903 -4.68487,3.935201 -1.86566,1.266823 -2.00909,1.601482 -0.70313,1.640625 0.90235,0.02705 1.64063,0.419948 1.64063,0.873116 0,1.758876 -13.48104,13.425954 -17.64099,15.267282 -9.98137,4.418072 -10.77156,4.971528 -12.48591,8.74521 -0.93881,2.066525 -1.71619,4.638819 -1.72751,5.716204 -0.0272,2.588662 4.04191,4.535322 6.60871,3.161612 1.28516,-0.68779 3.3048,-0.6741 6.74329,0.0457 2.69977,0.56519 6.66516,1.35455 8.81199,1.75413 4.91442,0.91471 8.31865,3.12528 10.71621,6.95868 2.2578,3.60996 1.86321,7.94672 -1.25576,13.80115 -2.14036,4.01755 -10.32688,12.13798 -12.2933,12.19407 -1.22364,0.0349 -2.37994,2.2848 -9.86146,19.18822 l -5.39423,12.1875 0.68197,13.125 c 0.81526,15.6906 2.30101,33.16791 3.58636,42.1875 1.38132,9.69297 3.67187,34.14388 4.30342,45.9375 0.82162,15.34289 1.28793,21.8821 2.00563,28.125 l 0.64666,5.625 1.13304,-4.21875 c 0.62319,-2.32031 2.46103,-7.59375 4.08411,-11.71875 1.62308,-4.125 3.72485,-9.60938 4.67061,-12.1875 0.94577,-2.57813 3.33316,-8.90188 5.30533,-14.0528 7.52264,-19.64765 10.69284,-33.87559 8.37395,-37.58238 -2.0659,-3.30232 -4.19962,-11.75165 -4.19962,-16.63001 0,-5.52548 1.91629,-16.57856 2.87424,-16.57856 1.01227,0 1.81326,2.60149 1.81326,5.88918 0,5.26601 1.52463,1.32558 2.64137,-6.82668 0.60038,-4.38281 1.5146,-13.24219 2.03158,-19.6875 0.51698,-6.44531 1.18825,-13.42316 1.4917,-15.50634 0.80952,-5.55734 -1.12953,-14.57358 -4.895,-22.76087 -2.98306,-6.4861 -3.25831,-7.76036 -2.77064,-12.82654 0.45289,-4.70505 1.00564,-6.04664 3.37976,-8.20312 2.28819,-2.07844 3.73214,-2.57813 7.44999,-2.57813 2.53642,0 5.78283,-0.44527 7.21424,-0.98949 3.23859,-1.23131 5.56679,-0.67146 10.15441,2.44179 3.57061,2.42308 3.61002,2.42739 6.74666,0.73821 3.10082,-1.66992 3.22434,-1.66235 7.18695,0.43981 3.21495,1.70552 4.52634,1.95094 6.47202,1.2112 1.34205,-0.51024 5.43901,-0.8995 9.10434,-0.86501 7.85943,0.074 11.46725,1.98605 14.77854,7.83246 4.14393,7.31651 2.34577,11.01377 -10.04842,20.66084 -4.38281,3.41139 -9.34051,7.95672 -11.01712,10.10073 -1.67659,2.14402 -3.71846,4.74196 -4.53748,5.77321 -3.59177,4.52252 -10.48773,20.2595 -14.47633,33.03585 -1.48709,4.76347 -3.17407,9.53956 -3.74885,10.61355 -0.57479,1.07399 -1.64157,4.24283 -2.37062,7.04187 -1.77778,6.82538 -5.08626,11.92737 -12.14688,18.73171 -4.06457,3.91704 -6.19855,6.80255 -6.89427,9.32229 -0.5542,2.00712 -0.82229,3.83463 -0.59578,4.06115 0.22652,0.22652 1.84693,-0.80444 3.6009,-2.29103 1.75397,-1.48659 4.63766,-3.81432 6.40819,-5.17273 1.9537,-1.49894 3.72325,-3.99724 4.50147,-6.35532 1.59845,-4.84333 7.8365,-10.74203 14.45579,-13.6694 2.70567,-1.19657 6.55234,-3.28374 8.54817,-4.63814 1.99583,-1.35441 4.17679,-2.25226 4.84659,-1.99524 0.66979,0.25703 3.28768,-0.57232 5.81754,-1.843 2.52985,-1.27067 4.8776,-2.31031 5.21723,-2.31031 0.33962,0 4.91898,-2.05368 10.17635,-4.56372 11.14477,-5.3209 28.32229,-12.20803 37.68385,-15.10891 3.90898,-1.21129 7.69972,-3.12203 9.375,-4.7255 7.26885,-6.95732 21.46702,-9.95392 33.61643,-7.09494 5.32435,1.25292 7.47715,1.3303 12.52982,0.45042 4.44121,-0.7734 6.27476,-0.78112 6.73999,-0.0283 0.43103,0.69742 1.69304,0.3487 3.87643,-1.07115 8.63805,-5.6173 21.05865,-8.26356 29.70456,-6.32869 4.19374,0.93852 5.39515,1.7003 7.357,4.66485 1.28962,1.94874 2.59459,5.08275 2.89995,6.96446 0.63647,3.92208 -1.54963,10.6866 -4.9195,15.22261 l -2.16362,2.91235 4.73705,2.2187 c 6.08158,2.84846 11.67636,9.13118 12.50641,14.0442 1.06348,6.2947 -4.84668,14.52868 -12.32127,17.16587 -2.10147,0.74144 -5.32834,1.27718 -7.17083,1.19051 -2.91095,-0.13691 -3.53679,0.23416 -4.77531,2.83137 -1.70719,3.58004 -12.0715,10.05776 -18.39836,11.49903 -7.18291,1.6363 -17.70181,1.22618 -23.32013,-0.90922 -7.22047,-2.74434 -12.06968,-5.3484 -12.53373,-6.7307 -0.32157,-0.9579 -0.85372,-0.96616 -2.6646,-0.0413 -10.16388,5.19065 -26.15642,1.87072 -30.38572,-6.30785 -0.80106,-1.54908 -1.76204,-2.82988 -2.13552,-2.84623 -0.37348,-0.0164 -4.8978,-0.641 -10.05405,-1.38806 -17.29719,-2.5061 -41.71178,-1.45825 -42.97921,1.84464 -0.47658,1.24194 -1.99923,2.15395 -12.09376,7.24375 -4.96746,2.50466 -6.06432,2.69438 -14.13151,2.44426 l -8.74603,-0.27115 -5.18065,4.21875 -5.18066,4.21875 4.54896,0.60102 c 6.95212,0.91854 12.10956,3.78306 15.6249,8.67833 2.98755,4.16029 7.07108,7.1269 9.81015,7.1269 1.85294,0 8.03703,6.41045 10.13842,10.50953 2.29503,4.4768 2.25267,4.7988 -0.56061,4.26102 -2.25078,-0.43027 -2.34457,-0.25796 -2.36434,4.34383 -0.0117,2.73018 -0.81844,6.55019 -1.875,8.87862 -2.23955,4.93553 -2.33073,7.00711 -0.37964,8.62637 1.96376,1.62978 4.51605,6.88987 5.9997,12.36501 0.66369,2.44921 1.57375,4.45312 2.02237,4.45312 0.44861,0 0.81566,0.50726 0.81566,1.12724 0,0.61999 1.34226,2.51211 2.9828,4.20471 2.93656,3.02976 3.18692,4.96938 0.44221,3.42586 -1.68968,-0.9502 -8.11251,-9.2249 -8.11251,-10.45155 0,-1.79755 -4.20068,-11.07486 -6.27726,-13.8635 -1.18813,-1.59555 -2.16024,-3.38852 -2.16024,-3.98438 0,-0.59586 -1.16016,-1.09264 -2.57813,-1.10397 -3.86285,-0.0308 -9.83201,-3.07792 -12.69503,-6.48044 -1.39664,-1.6598 -2.53934,-2.56358 -2.53934,-2.0084 0,1.56715 -2.54315,1.18859 -3.18095,-0.4735 -1.73415,-4.5191 1.39109,-19.30204 4.65292,-22.00911 3.78295,-3.13958 -1.72608,-10.44002 -8.77716,-11.63129 -11.19586,-1.89153 -19.35934,9.24891 -27.79857,37.93583 -2.35117,7.99219 -4.69592,15.82683 -5.21055,17.41031 -1.46601,4.51081 -1.14167,5.71439 1.87681,6.96469 1.54687,0.64073 2.8125,1.62968 2.8125,2.19767 0,0.56798 1.18416,-0.22149 2.63146,-1.75436 4.55018,-4.81925 6.47755,-5.45313 17.72184,-5.82839 l 10.50957,-0.35074 4.09536,4.27416 c 2.25245,2.35078 4.75456,4.27416 5.56024,4.27416 0.80568,0 3.50698,1.6875 6.0029,3.75 2.4959,2.0625 4.99375,3.75 5.55076,3.75 1.40867,0 5.11537,5.20014 5.11537,7.17637 0,0.895 1.02727,2.70506 2.28284,4.02233 1.25557,1.31728 3.56535,4.98689 5.13286,8.15469 1.56751,3.16781 3.91522,7.02558 5.21716,8.57284 2.61331,3.10573 3.14872,6.76127 0.99031,6.76127 -0.8506,0 -1.16648,0.54815 -0.82647,1.43419 0.66299,1.72773 3.27791,1.09117 7.35955,-1.79157 3.0737,-2.17084 2.998,-2.15811 17.57812,-2.95792 5.54297,-0.30407 10.09151,-0.20986 10.10786,0.20935 0.0163,0.41922 0.62683,4.93962 1.35662,10.04536 1.15337,8.06927 1.14948,9.62621 -0.0297,11.90657 -0.74614,1.44288 -1.35661,4.3258 -1.35661,6.40651 0,2.08071 -0.51546,5.71033 -1.14546,8.06583 -0.96491,3.6077 -0.93066,4.41547 0.21726,5.12493 1.14853,0.70982 0.94633,1.69652 -1.28646,6.2776 -1.45703,2.98947 -4.36009,7.66553 -6.45123,10.39126 -3.45829,4.50775 -3.69372,5.15833 -2.60371,7.19501 1.08663,2.0304 0.88121,2.62618 -2.20352,6.3907 -1.87106,2.28334 -3.4019,5.066 -3.4019,6.18368 0,1.32896 -1.39511,3.01551 -4.03178,4.874 -5.27463,3.71791 -8.06447,8.67413 -6.39101,11.35379 1.06116,1.69918 0.84606,2.22054 -1.92568,4.66743 -5.01518,4.4274 -13.76441,9.98169 -16.75962,10.63954 -1.81381,0.39838 -2.76691,1.18875 -2.76691,2.29449 0,2.33107 -3.7402,3.54131 -12.81265,4.14585 -6.68876,0.4457 -7.97337,0.82714 -10.16427,3.01804 -2.35706,2.35707 -2.88318,2.47515 -8.74984,1.96386 -3.4331,-0.2992 -8.89969,-1.63469 -12.14799,-2.96776 -3.24829,-1.33308 -6.31491,-2.17104 -6.8147,-1.86216 -1.548,0.95672 -5.46839,9.43403 -6.56093,14.18712 -1.62903,7.08711 -1.25977,25.88867 1.4329,72.96055 1.54089,26.93681 1.63293,31.17788 0.68936,31.76105 -0.54578,0.33731 -1.3305,0.079 -1.74384,-0.57388 -0.88323,-1.39526 -2.78987,-40.41792 -3.69959,-75.71842 -0.72164,-28.00238 -0.22643,-31.53067 5.77746,-41.16325 3.04688,-4.88841 3.49362,-7.87436 0.84982,-5.6802 -1.91758,1.59145 -6.05573,10.34425 -6.05573,12.80877 0,2.46744 -1.39483,2.8882 -2.24345,0.67675 -0.31298,-0.8156 -0.58285,-3.8742 -0.59973,-6.79687 -0.0169,-2.92267 -0.46179,-8.26708 -0.98871,-11.87645 -0.52692,-3.60937 -1.14037,-19.21875 -1.36321,-34.6875 -0.22284,-15.46875 -0.83261,-31.21412 -1.35503,-34.98971 -0.52244,-3.7756 -0.94987,-9.35878 -0.94987,-12.40708 0,-4.90088 -0.33392,-5.89675 -2.88501,-8.60404 l -2.885,-3.06167 0.574,9.84375 c 0.3157,5.41406 0.78684,14.69531 1.04698,20.625 0.26015,5.92969 0.86439,13.52344 1.34275,16.875 0.47838,3.35156 1.3135,19.17187 1.85582,35.15625 0.54234,15.98437 1.23594,30.43359 1.54135,32.10937 0.35406,1.9428 0.17776,3.04688 -0.48656,3.04688 -0.57301,0 -1.04183,-0.41384 -1.04183,-0.91964 0,-1.94139 -4.59788,-2.02025 -8.82293,-0.15129 -5.00086,2.21211 -5.64171,3.19925 -1.26138,1.94298 4.18963,-1.20156 7.43336,-1.04548 9.40817,0.45272 1.39944,1.0617 1.74071,3.20522 2.12219,13.32956 0.25001,6.63543 0.65099,13.75192 0.89104,15.81442 1.0526,9.04347 1.63912,76.40625 0.66526,76.40625 -0.55055,0 -1.21113,-0.73828 -1.46797,-1.64063 -0.25684,-0.90234 -0.72857,-16.40625 -1.04831,-34.45312 -0.5679,-32.05454 -1.9112,-61.53586 -3.00538,-65.95895 -0.49622,-2.00596 -0.90094,-2.15433 -4.40419,-1.61455 -4.62147,0.71208 -8.43667,3.28427 -8.83566,5.95696 -0.15972,1.06994 1.20093,4.19167 3.02367,6.93719 1.82275,2.74552 3.59922,6.41809 3.94773,8.16127 0.34851,1.74316 0.0773,9.25154 -0.60253,16.68525 -1.17353,12.83085 -1.33512,13.5017 -3.18857,13.23684 -1.54787,-0.2212 -2.79953,1.15806 -6.04102,6.65684 -2.24875,3.81472 -4.71419,8.77175 -5.47875,11.01562 -1.44659,4.24549 -2.0466,4.74705 -3.70044,3.09321 -1.53504,-1.53504 -14.10549,12.39172 -15.34722,17.00316 -0.54367,2.019 -1.20024,3.67091 -1.45906,3.67091 -0.25882,0 -1.74357,-0.94117 -3.29946,-2.09148 l -2.82887,-2.09149 -5.80504,3.0228 c -5.804927,3.02276 -11.420315,7.64501 -13.440451,11.06338 -0.935319,1.58269 -1.334947,1.65869 -3.116026,0.59253 -1.697457,-1.0161 -2.705473,-0.98993 -5.958329,0.15467 -2.153373,0.75772 -6.963247,2.30679 -10.688606,3.44239 -3.725361,1.13559 -7.257486,2.64803 -7.849167,3.36096 -1.523558,1.83577 -2.825603,1.46454 -5.708288,-1.62751 z M 73.125,589.00312 c 4.898437,-1.78624 10.59375,-3.35317 12.65625,-3.48207 2.913729,-0.18208 4.646462,-1.07778 7.769911,-4.01649 2.210948,-2.08018 6.811279,-5.15634 10.222959,-6.8359 5.02485,-2.47373 6.66521,-2.88603 8.63633,-2.17073 2.18484,0.79286 2.67968,0.519 4.84621,-2.68205 3.30835,-4.88808 13.91123,-15.75338 15.37292,-15.75338 0.65541,0 3.81262,-4.64063 7.016,-10.3125 3.20339,-5.67188 6.37925,-10.3125 7.05748,-10.3125 1.36208,0 2.01331,-3.8842 2.93292,-17.49334 0.52756,-7.80725 0.37887,-8.99127 -1.63724,-13.03781 -1.21961,-2.44791 -3.40137,-5.72015 -4.84835,-7.27164 -2.62514,-2.81477 -2.63491,-2.81685 -4.4937,-0.95806 -1.54731,1.5473 -1.69717,2.29859 -0.88477,4.43537 1.14971,3.02396 1.27128,21.14711 0.17367,25.88798 -0.41783,1.80469 -0.491,5.70703 -0.16261,8.67187 0.60774,5.48696 -0.28292,7.09602 -1.81627,3.28125 -0.82914,-2.0628 -0.84918,-2.0655 -0.90728,-0.12212 -0.0609,2.03922 -3.29418,12.82686 -4.36243,14.55532 -1.20007,1.94174 -2.28601,-0.71737 -1.41986,-3.47675 0.47533,-1.51433 2.20679,-8.55371 3.84766,-15.64306 2.55851,-11.05393 2.93788,-14.28106 2.66368,-22.65849 -0.17585,-5.3728 -0.6157,-10.0637 -0.97744,-10.42422 -0.36175,-0.36052 -5.08898,3.46519 -10.50496,8.50157 -8.19641,7.62191 -9.69711,9.43758 -8.95166,10.83045 1.231,2.30015 1.1304,17.01282 -0.13848,20.25127 -1.1742,2.9968 -1.43982,15.6816 -0.39716,18.96672 0.51312,1.61671 0.3642,2.06797 -0.57977,1.7568 -0.69865,-0.2303 -1.41625,-1.42022 -1.59468,-2.64427 -0.24265,-1.66455 -0.86126,-0.70078 -2.45413,3.82343 -2.52184,7.16273 -5.98498,13.27909 -7.12116,12.5769 -0.86076,-0.53199 -0.59237,-1.41164 3.13589,-10.27792 4.8665,-11.57315 9.50805,-43.59375 6.31915,-43.59375 -1.17993,0 -12.20686,9.49655 -18.539705,15.96665 -4.838737,4.9436 -4.921986,5.12439 -4.928443,10.70282 -0.0037,3.12086 -0.808296,9.04928 -1.788186,13.17428 -1.845562,7.76918 -1.470629,15.94507 0.859999,18.75331 0.65477,0.78894 0.693444,1.44142 0.106924,1.80391 -1.169125,0.72256 -3.8367,-3.0298 -3.932329,-5.53145 -0.06147,-1.60821 -1.772602,2.05619 -4.256256,9.11485 C 79.728587,584.26172 78.840071,585 78.071606,585 c -0.956057,0 -1.189691,-0.51801 -0.739961,-1.64063 3.438351,-8.5828 9.991547,-37.91118 8.748668,-39.15405 -0.218755,-0.21876 -3.961472,3.18466 -8.31715,7.56315 l -7.919413,7.96091 -0.02995,7.71344 c -0.02737,7.04897 -0.342506,8.33932 -3.658196,14.97905 -1.995533,3.9961 -4.196897,7.26563 -4.89192,7.26563 -1.795398,0 -1.685961,-0.39688 2.48632,-9.0168 2.968225,-6.13235 3.742042,-8.78511 3.711828,-12.72473 l -0.03817,-4.97722 -7.158423,7.5 C 53.027377,578.05197 45,588.22993 45,589.82362 c 0,0.49592 0.776544,0.45176 1.813368,-0.10314 3.373007,-1.80517 9.119244,-1.15802 11.962478,1.34726 1.504943,1.32606 3.232091,2.075 4.036654,1.75042 0.773437,-0.31203 5.414062,-2.0288 10.3125,-3.81504 z m -28.091323,-4.70625 c 1.740215,-2.44921 6.487295,-8.1799 10.549067,-12.73485 4.061772,-4.55495 7.220912,-8.44587 7.020309,-8.64646 -0.720646,-0.72065 -7.839641,1.66959 -11.817277,3.96771 -4.239095,2.44917 -5.998796,2.35139 -3.868884,-0.215 2.201978,-2.65321 10.378774,-6.1899 15.543391,-6.72294 4.188805,-0.43233 5.389849,-0.99835 7.287857,-3.43461 1.249887,-1.60433 5.009297,-5.76463 8.354243,-9.2451 3.344947,-3.48046 5.597329,-6.38477 5.005294,-6.45403 -5.629111,-0.65839 -19.329679,2.21889 -25.293027,5.31183 -3.325056,1.72458 -4.459831,1.74539 -3.816932,0.07 0.275755,-0.7186 2.592389,-2.2993 5.148077,-3.51266 4.106098,-1.94945 4.461321,-2.34167 3.053268,-3.37126 -2.274707,-1.6633 -1.015449,-2.39684 1.863107,-1.08529 1.874376,0.85403 4.053954,0.84489 9.539343,-0.04 3.910432,-0.63081 8.67247,-0.89179 10.582306,-0.57993 3.32289,0.54261 3.775231,0.26964 10.503681,-6.33861 3.867187,-3.7981 9.0168,-8.62199 11.44358,-10.71976 5.10454,-4.41249 4.66439,-4.92146 -4.25463,-4.91994 -6.555753,9.4e-4 -22.407915,3.65614 -31.305428,7.21806 -3.280364,1.31322 -6.256226,2.09574 -6.613028,1.73894 -1.199626,-1.19962 3.956464,-4.24955 11.042006,-6.53157 6.902234,-2.22298 6.963772,-2.27032 3.353719,-2.57985 -2.022643,-0.17343 -3.832942,-0.78919 -4.022888,-1.36836 -0.249111,-0.75957 0.775739,-0.80781 3.677532,-0.1731 5.412547,1.18389 5.795112,1.17914 13.866637,-0.17201 4.131169,-0.69155 10.22916,-0.95421 14.78458,-0.63685 l 7.75334,0.54016 8.6314,-8.62758 8.63139,-8.62758 -9.12987,-0.26845 c -13.65621,-0.40153 -27.220334,2.62525 -40.280215,8.98839 -0.386719,0.18842 -0.703125,-0.27687 -0.703125,-1.03398 0,-1.58121 3.908981,-4.40469 6.098114,-4.40469 0.812121,0 3.096327,-0.82633 5.076016,-1.83629 6.782886,-3.46038 23.66331,-5.70862 34.76337,-4.63001 6.33335,0.61541 8.23556,0.50752 9.26882,-0.52574 2.38563,-2.38562 0.43832,-3.99585 -6.77236,-5.60008 -3.86201,-0.85921 -8.72625,-2.38569 -10.80941,-3.39216 l -3.78758,-1.82996 -2.27946,2.27946 c -2.93426,2.93426 -8.99911,4.54901 -14.172032,3.77328 -3.449184,-0.51724 -4.165181,-0.34483 -4.6599,1.12206 -1.080976,3.2052 -8.455173,8.98869 -14.131828,11.08342 -4.505573,1.66258 -5.686205,2.52459 -5.932547,4.33147 -0.503627,3.69402 -6.941693,12.81428 -10.329989,14.63361 -1.725645,0.92658 -3.936412,2.09938 -4.912817,2.60622 -0.976404,0.50685 -1.681702,1.3506 -1.567328,1.875 0.114374,0.52441 -0.389857,3.42468 -1.120512,6.44506 -1.189207,4.91593 -1.842153,5.87943 -6.228824,9.19139 -4.793571,3.6192 -4.871625,3.75489 -3.58182,6.22717 0.725194,1.39004 1.321135,4.98473 1.324311,7.98818 0.0052,4.88755 -0.438123,6.14704 -4.222463,11.99703 -3.397934,5.25267 -4.042277,6.88366 -3.28125,8.30566 0.520844,0.9732 0.946989,4.75032 0.946989,8.3936 0,3.64327 0.139421,6.62413 0.309825,6.62413 0.170404,0 1.733637,-2.00391 3.473852,-4.45313 z M 143.4375,488.90625 c 0.65103,-0.78444 0.75255,-1.40625 0.22958,-1.40625 -0.51562,0 -1.46268,0.63281 -2.10458,1.40625 -0.65103,0.78444 -0.75255,1.40625 -0.22958,1.40625 0.51562,0 1.46268,-0.63281 2.10458,-1.40625 z m 58.82812,-19.5863 c -0.90234,-0.68497 -1.64062,-1.4646 -1.64062,-1.7325 0,-0.50478 6.78224,-1.33158 18.50786,-2.25623 6.50841,-0.51324 6.76677,-0.6244 6.24868,-2.68866 -0.57604,-2.29514 -0.16579,-2.54418 6.18096,-3.75204 3.65653,-0.69589 9.04758,-3.91538 13.19801,-7.88176 1.92254,-1.83729 2.73949,-3.52157 2.73949,-5.64797 0,-3.53365 3.92181,-9.49244 7.73437,-11.75161 3.00457,-1.78038 3.31659,-3.773 0.80158,-5.11899 -1.28968,-0.69021 -2.05966,-0.60968 -2.80952,0.29385 -0.56814,0.68455 -3.81836,2.42845 -7.22275,3.87533 -4.79828,2.0393 -5.85273,2.81932 -4.69048,3.46975 2.89037,1.61753 1.4477,2.37763 -4.36007,2.29718 -3.22266,-0.0446 -8.39063,0.4794 -11.48438,1.16453 -3.65753,0.80999 -8.30296,1.04494 -13.28132,0.67172 -8.83512,-0.66236 -10.62493,-1.18349 -10.62493,-3.09359 0,-1.09193 0.6368,-1.21792 3.04687,-0.60283 5.76997,1.4726 22.29424,0.68633 27.89063,-1.3271 9.11529,-3.27945 18.71925,-7.25664 18.68794,-7.73903 -0.0168,-0.25781 -1.81196,-1.351 -3.98937,-2.42931 -2.96119,-1.46643 -4.46693,-1.73388 -5.9745,-1.06118 -2.23596,0.99772 -7.29983,-2.03406 -15.27551,-9.14554 -3.43848,-3.06592 -4.26512,-3.45354 -4.52186,-2.12037 -0.38641,2.00646 -3.27955,2.13454 -4.87206,0.21568 -0.64621,-0.77864 -3.51271,-2.09532 -6.37,-2.92595 -3.61173,-1.04997 -6.57217,-2.79838 -9.71346,-5.73668 -3.77457,-3.53066 -4.75114,-4.03326 -5.93228,-3.053 -0.77765,0.64539 -1.4139,1.75459 -1.4139,2.46489 0,2.63938 -2.45908,1.13498 -6.32321,-3.86836 -3.67074,-4.75293 -5.86429,-6.36959 -5.86429,-4.322 0,1.06554 -6.65835,4.32047 -8.20313,4.01008 -0.64453,-0.12949 -1.17187,0.22199 -1.17187,0.78111 0,0.55911 -0.94922,2.30187 -2.10938,3.87281 -2.04142,2.76426 -2.10937,3.54066 -2.10937,24.10267 0,22.36094 0.45401,25.35686 4.53389,29.91827 3.28907,3.67726 4.25549,2.70218 2.78753,-2.8125 -0.93167,-3.50002 -1.1517,-7.76557 -0.76163,-14.76562 0.99861,-17.92067 5.04802,-40.3125 7.29023,-40.3125 1.02188,0 0.72051,2.35838 -2.0366,15.9375 -2.55197,12.56875 -3.49227,33.4065 -1.78684,39.59729 l 1.22342,4.44105 4.21875,-5.29954 c 2.32031,-2.91475 6.55289,-8.34403 9.40572,-12.06508 l 5.18698,-6.76553 -0.74081,-9.25097 C 195.86547,416.93052 196.54253,405 197.90765,405 c 0.46329,0 0.85103,6.43359 0.86163,14.29687 l 0.0193,14.29688 4.19339,-4.6875 c 2.30635,-2.57813 5.75937,-6.69141 7.67335,-9.14063 1.91399,-2.44921 3.81517,-4.45312 4.22484,-4.45312 1.78953,0 0.46736,3.16012 -2.85253,6.81782 -3.76347,4.14643 -20.81203,25.67756 -31.38168,39.63286 l -1.69782,2.24165 2.63532,-0.83112 c 1.44943,-0.45711 6.85407,-1.05985 12.01032,-1.33939 11.27302,-0.61119 22.06004,-3.24013 30.9375,-7.53989 3.60937,-1.74818 7.61719,-3.48345 8.90625,-3.85614 1.28906,-0.3727 4.10025,-1.69718 6.24708,-2.94331 3.70525,-2.15068 5.66909,-1.96476 4.20855,0.39842 -0.36885,0.59682 -3.18868,2.17533 -6.26626,3.5078 -3.07759,1.33246 -8.12687,3.62504 -11.22062,5.09462 -10.90674,5.18085 -18.86203,7.19223 -33.05606,8.35773 -5.29021,0.4344 -9.83389,1.00514 -10.09708,1.26833 -0.97551,0.97551 11.4402,4.42283 15.96564,4.43298 4.09486,0.009 4.48008,-0.14695 3.04687,-1.23491 z m -30.81371,-7.87792 c -2.38483,-1.67041 -2.53401,-1.44971 -1.98754,2.9405 l 0.44827,3.60129 1.71247,-2.61051 c 1.67182,-2.54855 1.66772,-2.64186 -0.1732,-3.93128 z m 81.71791,-38.86391 c -2.54845,-2.95725 -5.83983,-7.5351 -11.29023,-15.70312 -2.58051,-3.86719 -4.69189,-6.7728 -4.69197,-6.45692 -6e-5,0.31588 0.85247,4.11276 1.89452,8.4375 1.04206,4.32475 2.10104,8.7975 2.35331,9.93945 0.25725,1.16455 0.97225,1.87921 1.62824,1.62748 0.64328,-0.24685 2.64288,0.59111 4.44358,1.86212 1.80069,1.27101 4.2204,2.33161 5.37716,2.35689 2.09493,0.0458 2.09604,0.0377 0.28539,-2.0634 z m 4.67297,-7.06498 c -0.68938,-2.73777 -0.74296,-4.44768 -0.15082,-4.81365 1.13503,-0.70149 -0.46799,-8.63621 -4.05104,-20.05201 -1.42568,-4.54231 -2.33445,-8.51645 -2.0195,-8.83141 0.31495,-0.31496 0.003,-1.45007 -0.69298,-2.52248 -0.69611,-1.07241 -2.02413,-4.24603 -2.95118,-7.05249 -1.67282,-5.06412 -6.95685,-14.97046 -9.64435,-18.08093 -1.24807,-1.44449 -1.23355,-1.68519 0.13322,-2.20968 0.84363,-0.32372 2.14844,-0.35276 2.89959,-0.0645 0.75115,0.28825 -0.0615,-1.34567 -1.80588,-3.63094 -1.74437,-2.28526 -3.44207,-5.00721 -3.77265,-6.04878 -0.33058,-1.04156 -1.12232,-1.89375 -1.75944,-1.89375 -0.63711,0 -2.98568,-1.34381 -5.21903,-2.98624 -3.34148,-2.45735 -3.87232,-2.63431 -2.9972,-0.99914 1.29402,2.41791 1.33144,3.04788 0.18103,3.04788 -0.48534,0 -2.70019,-2.35652 -4.92188,-5.23672 -3.22308,-4.17841 -5.52135,-5.97466 -11.37223,-8.8882 -4.03303,-2.00831 -9.06382,-4.1176 -11.17952,-4.6873 -4.77969,-1.28704 -15.08587,-1.27336 -17.50858,0.0233 -1.64172,0.87862 -1.10792,1.66155 5.7764,8.47229 4.1719,4.1273 8.33449,7.5042 9.25018,7.5042 0.9157,0 1.90662,0.39109 2.20205,0.8691 0.29542,0.47801 2.10622,1.38695 4.02399,2.01987 1.91778,0.63292 7.33205,3.61683 12.03172,6.6309 4.69967,3.01407 9.21699,5.48013 10.0385,5.48013 0.82151,0 1.75439,0.42187 2.07306,0.9375 0.31868,0.51562 1.82014,0.9375 3.33658,0.9375 3.01291,0 3.69002,1.31643 1.17377,2.282 -1.25724,0.48245 -0.64957,1.27154 2.95008,3.8308 2.49341,1.77274 5.31532,3.47133 6.2709,3.77462 2.8195,0.89487 2.06101,2.58273 -0.8407,1.8708 -2.37308,-0.58224 -9.28899,-4.9791 -22.91054,-14.56565 -5.34719,-3.76327 -15.49986,-9.38011 -16.95488,-9.38011 -0.42707,0 0.51424,1.37109 2.09181,3.04687 1.57756,1.67579 5.71222,6.93562 9.18813,11.68852 3.47592,4.7529 6.84812,8.65524 7.49379,8.67188 2.00813,0.0518 12.37728,5.96615 16.31187,9.30408 2.0617,1.74906 6.13433,4.14976 9.05029,5.3349 5.66364,2.30187 7.9044,4.76065 3.58625,3.93519 -2.44581,-0.46755 -3.34235,0.49135 -1.5152,1.62059 0.52299,0.32323 1.73448,2.1411 2.69221,4.0397 4.84552,9.60588 2.74518,10.44132 -2.72082,1.08224 -2.65408,-4.54441 -5.79368,-8.20417 -10.11947,-11.796 -5.42474,-4.50432 -15.17782,-10.53386 -15.17782,-9.38321 0,0.98338 4.69706,8.25304 9.46094,14.64274 2.88321,3.86719 5.76053,8.00818 6.39407,9.20221 0.63353,1.19403 2.91517,2.99181 5.07031,3.99509 5.03127,2.3422 10.51133,6.36369 12.43996,9.12895 2.17283,3.11539 0.81424,3.72552 -2.20318,0.98943 -3.01217,-2.73132 -10.5371,-7.64256 -10.5371,-6.87717 0,1.22868 8.88327,13.93992 14.53125,20.79305 2.67407,3.24466 2.82803,3.30624 3.12786,1.25139 0.17344,-1.18868 -0.16578,-4.07197 -0.75382,-6.40731 z m 5.70321,3.28286 c -1.81686,-1.81686 -1.1582,-3.85085 2.79691,-8.63707 5.55,-6.71627 8.44951,-12.83748 7.74632,-16.35342 -0.31548,-1.57741 -0.74384,-2.86801 -0.95191,-2.86801 -0.20805,0 -2.88548,1.26562 -5.94982,2.8125 -3.06434,1.54687 -6.26151,2.8125 -7.10482,2.8125 -1.04716,0 -1.3428,0.49641 -0.93247,1.56569 0.33045,0.86114 1.02216,3.44585 1.53714,5.7438 0.51499,2.29796 1.34724,4.94588 1.84944,5.88426 0.64499,1.20516 0.55971,1.9273 -0.29042,2.45932 -0.82744,0.51782 -1.0938,2.46212 -0.8524,6.22205 0.3336,5.19585 0.4222,5.36742 1.77458,3.43662 1.04739,-1.49536 1.14711,-2.30858 0.37745,-3.07824 z m -26.31669,-6.83007 c -1.08136,-3.94159 -2.04324,-9.12531 -2.13752,-11.51936 -0.13272,-3.37042 -1.10014,-5.7974 -4.28648,-10.75355 -2.26329,-3.52039 -5.27278,-7.73914 -6.68774,-9.375 -1.41497,-1.63585 -3.73369,-4.97799 -5.15271,-7.42696 -1.41901,-2.44899 -3.02539,-4.72796 -3.56973,-5.06438 -1.44622,-0.89381 -0.30993,14.247 1.41782,18.89207 0.76715,2.0625 2.10026,7.125 2.96245,11.25 0.86219,4.125 1.74647,8.34375 1.96504,9.375 0.21859,1.03125 1.99063,2.83843 3.93787,4.01596 1.94724,1.17754 5.64981,3.80953 8.22794,5.84888 2.57812,2.03936 4.82287,3.30651 4.98833,2.8159 0.16547,-0.49062 -0.58391,-4.11696 -1.66527,-8.05856 z m -17.92697,-3.91906 c -0.0399,-1.41796 -0.85101,-4.6875 -1.80234,-7.26562 -1.32128,-3.58072 -1.74683,-4.12108 -1.80234,-2.28856 -0.0399,1.31942 -0.69206,3.21786 -1.4491,4.21875 -1.32797,1.75573 -1.37551,1.73729 -1.35036,-0.52394 0.0143,-1.28906 0.38325,-4.45313 0.81979,-7.03125 0.54679,-3.22911 0.38356,-6.6754 -0.52463,-11.07692 -1.55709,-7.54645 -1.70482,-15.043 -0.34643,-17.58117 0.67342,-1.25829 0.66915,-2.17517 -0.0139,-2.98524 -0.54219,-0.64304 -2.53259,-3.27855 -4.42309,-5.85667 -4.52739,-6.17412 -14.34995,-17.34375 -15.25208,-17.34375 -1.067,0 -2.84504,9.90188 -2.84783,15.85948 -9.4e-4,2.87885 0.60657,7.97646 1.35094,11.32802 1.72897,7.78482 5.21401,25.95575 5.21401,27.18573 0,2.55494 -1.94801,0.39651 -3.59438,-3.98261 -1.76728,-4.70077 -1.88008,-4.80605 -2.51089,-2.34375 -0.36327,1.41797 -1.08937,2.57813 -1.61355,2.57813 -0.61092,0 -0.67186,-1.0938 -0.16977,-3.04688 0.91653,-3.56511 0.9121,-11.47345 -0.0158,-28.35937 -0.53261,-9.69179 -0.37423,-13.24338 0.77344,-17.34375 l 1.44321,-5.15625 -7.07694,-6.84768 c -5.91276,-5.7212 -7.30687,-6.65686 -8.47462,-5.68772 -3.99886,3.31877 -7.55137,15.34472 -7.94515,26.89591 -0.29012,8.51071 0.29515,9.6024 7.38765,13.78024 1.67578,0.98712 3.04688,2.12568 3.04688,2.53013 0,1.1371 -0.7232,0.91526 -5.24348,-1.60838 -2.30893,-1.28906 -4.34917,-2.34375 -4.53389,-2.34375 -0.7744,0 1.49816,7.80757 2.89158,9.93417 2.09639,3.19951 0.81781,3.98225 -2.07133,1.26805 l -2.38721,-2.24268 1.70397,3.72335 c 2.71723,5.93745 3.32527,6.64868 7.48197,8.75169 2.18486,1.10539 6.44108,4.90235 9.56852,8.53607 3.09823,3.59977 5.88737,6.13369 6.19808,5.63094 0.31072,-0.50274 1.93099,-0.91409 3.6006,-0.91409 2.31174,0 3.91837,0.90397 6.73715,3.79067 2.46034,2.51961 5.27473,4.2533 8.39338,5.17038 2.58055,0.75885 5.32472,1.78877 6.09816,2.28872 2.24538,1.45144 2.81732,1.10901 2.73984,-1.6404 z m -45.82963,-11.51418 c 2.81844,-0.0364 5.58979,-2.00696 5.58979,-3.97458 0,-1.38832 -5.02806,-6.30811 -6.44693,-6.30811 -0.37294,0 -1.15596,0.47789 -1.74005,1.06198 -1.83236,1.83236 -3.99566,0.16088 -4.06642,-3.14194 -0.0362,-1.69196 -0.42845,-3.92004 -0.8716,-4.95129 -0.71726,-1.66915 -0.81295,-1.59565 -0.8716,0.66953 -0.0363,1.39948 0.4236,6.84921 1.02186,12.1105 l 1.08776,9.56598 1.99433,-2.50113 c 1.1685,-1.46544 2.95028,-2.51348 4.30286,-2.53094 z m 95.409,-6.58073 c 1.70526,-1.00483 3.65643,-1.82696 4.33594,-1.82696 1.29586,0 2.40735,-3.96365 2.40735,-8.5848 0,-1.49898 0.5611,-4.08296 1.24689,-5.74219 0.95247,-2.3044 1.03861,-4.67707 0.36482,-10.04801 -1.07246,-8.54873 -1.6056,-10.48751 -2.32022,-8.4375 -0.26961,0.77344 -2.65409,3.51562 -5.29883,6.09375 -2.64474,2.57812 -6.3554,6.58594 -8.24589,8.90625 l -3.43728,4.21875 2.32449,0.30067 c 1.27847,0.16537 4.92452,-0.97754 8.10234,-2.5398 3.1778,-1.56225 5.96894,-2.64937 6.20251,-2.41579 1.80165,1.80165 -10.21727,7.789 -16.96774,8.45266 -1.68566,0.16573 -3.22196,0.32824 -3.414,0.36116 -0.19205,0.0329 0.17155,0.68729 0.808,1.45417 0.63645,0.76686 0.91513,2.02505 0.6193,2.79598 -0.45658,1.18983 0.18649,3.74562 2.66629,10.59677 0.47661,1.31676 4.72347,-0.11879 10.60603,-3.58511 z m -14.81921,-14.3162 c 0,-0.16596 -0.659,-2.23581 -1.46445,-4.59966 -1.65001,-4.84253 -1.48263,-12.09822 0.29257,-12.68198 0.82017,-0.26971 1.17188,0.87196 1.17188,3.80387 0,2.30408 0.55025,5.4979 1.22277,7.09736 l 1.22277,2.90811 3.52147,-4.61764 c 1.93681,-2.53972 5.12553,-6.06683 7.08604,-7.83804 6.03587,-5.45304 5.93439,-5.7178 -1.89044,-4.93234 -3.81913,0.38338 -7.78761,0.76651 -8.81886,0.85142 -1.03125,0.0849 -3.40136,1.10361 -5.2669,2.26376 -1.86555,1.16016 -3.90387,2.10938 -4.52959,2.10938 -0.72781,0 -0.42506,1.15305 0.84033,3.20048 1.0879,1.76027 2.61521,5.34621 3.39403,7.96875 0.77881,2.62255 1.82155,4.76827 2.3172,4.76827 0.49565,0 0.90118,-0.13579 0.90118,-0.30174 z m -88.11036,-6.20969 c -2.95508,-10.30378 -1.71436,-27.036 2.81077,-37.90586 1.60649,-3.85896 3.52177,-7.51498 4.25617,-8.12448 3.86724,-3.20953 -4.2853,-2.94578 -9.89408,0.32009 -5.939,3.45814 -11.31104,8.24249 -10.55785,9.40281 0.39275,0.60507 0.72632,6.73713 0.74125,13.62681 0.0264,12.19544 0.0884,12.57444 2.34375,14.33282 5.0283,3.9203 8.1751,6.98598 9.23801,8.99986 1.54169,2.92103 2.00513,2.63648 1.06198,-0.65205 z M 81.5625,365.46465 c 1.804687,-0.83473 7.025393,-2.69655 11.601568,-4.13738 8.027912,-2.52762 8.364922,-2.55869 9.589382,-0.88413 1.21111,1.65629 1.35764,1.62294 3.20863,-0.7302 2.56589,-3.26202 17.58953,-13.11467 19.10872,-12.53171 0.65477,0.25126 1.97493,-0.87501 2.93372,-2.50282 0.95878,-1.62781 3.45233,-5.07607 5.54123,-7.66278 4.45806,-5.52048 6.2878,-9.10702 8.72072,-17.09376 1.18963,-3.9053 1.43332,-5.85937 0.73071,-5.85937 -1.66906,0 -7.51984,6.55134 -10.88421,12.1875 -1.69285,2.83594 -4.58346,6.86894 -6.42356,8.96222 -5.94118,6.7586 -7.56441,8.84737 -7.56441,9.73388 0,0.47814 -0.42887,1.99735 -0.95303,3.37602 -0.74331,1.95504 -1.22993,2.27688 -2.21123,1.46248 -0.95204,-0.79013 -1.83709,-0.58883 -3.63744,0.82733 -2.74039,2.1556 -11.06748,5.89389 -11.706116,5.25525 -0.827381,-0.82738 0.625496,-2.099 4.924436,-4.31001 7.19322,-3.69961 19.10343,-16.47884 25.44892,-27.30579 1.90968,-3.25836 4.4061,-6.85825 5.54761,-7.99976 1.14152,-1.14152 1.83898,-2.31199 1.54992,-2.60105 -0.91651,-0.91652 -23.65057,-0.57535 -23.65057,0.35491 0,0.48427 -1.6985,2.84294 -3.77444,5.24151 -2.07594,2.39856 -4.62057,5.90469 -5.65473,7.79139 -6.303861,11.50069 -10.477997,16.90132 -18.135267,23.46398 -5.195508,4.4528 -7.553981,7.95995 -6.754293,10.0439 0.305919,0.79721 -0.07599,1.32874 -0.954711,1.32874 -0.805528,0 -1.681876,-0.83088 -1.94744,-1.8464 -0.453365,-1.73367 -0.652187,-1.75883 -3.256418,-0.41213 -1.525466,0.78885 -3.483534,1.2857 -4.351262,1.10411 -1.107875,-0.23184 -0.321402,-1.11574 2.641061,-2.96821 2.320312,-1.45093 5.829937,-3.72573 7.799165,-5.05511 4.457063,-3.00887 17.434594,-16.70845 18.830326,-19.87804 2.020415,-4.58815 6.575279,-11.77601 9.710939,-15.32447 1.74918,-1.97944 2.99951,-3.77981 2.77851,-4.00082 -0.55339,-0.55337 -12.029315,1.04378 -25.647643,3.5695 -11.3091,2.09744 -11.378636,2.12629 -12.482557,5.17913 -0.610557,1.68847 -1.433623,3.06994 -1.829033,3.06994 -0.395412,0 -2.0601,2.06978 -3.699307,4.59951 -2.951906,4.55556 -17.330332,18.83799 -18.964612,18.83799 -0.466746,0 -1.118472,1.6875 -1.44828,3.75 -0.664063,4.15282 -2.235008,5.11139 -2.235008,1.36377 0,-2.2374 -0.213107,-2.34625 -3.416774,-1.74524 -4.682917,0.87852 -3.59762,-0.45324 4.102985,-5.03476 6.435507,-3.82884 15.771951,-12.98115 21.813789,-21.38357 1.804687,-2.50979 3.401661,-4.82874 3.548829,-5.15322 0.147169,-0.32448 -1.751268,-0.23421 -4.21875,0.20058 -10.34529,1.82293 -26.487958,7.30128 -25.914864,8.79474 0.468576,1.22109 -4.040415,5.9293 -8.746805,9.13326 -1.701204,1.15813 -3.095981,2.61319 -3.099504,3.23346 -0.01,1.75989 -2.094175,5.90348 -2.969389,5.90348 -0.43286,0 -0.787017,-1.13906 -0.787017,-2.53125 0,-1.96875 -0.25,-2.28125 -1.125,-1.40625 -0.61875,0.61875 -1.673437,1.125 -2.34375,1.125 -2.390497,0 -1.15128,-1.75771 3.234375,-4.58765 C 33.618748,334.29639 37.5,331.21686 37.5,329.81251 c 0,-0.43899 -1.160156,-0.2025 -2.578125,0.52552 -1.417969,0.72802 -5.953125,2.23871 -10.078125,3.35708 -8.971013,2.43223 -12.098018,3.58969 -16.2707607,6.02263 l -3.1457608,1.83415 3.6145108,2.18801 c 1.9879807,1.20339 4.5772787,2.19016 5.7539977,2.1928 1.176717,0.003 3.65193,0.63674 5.500473,1.40911 2.583648,1.07952 3.251382,1.82345 2.887081,3.21653 -0.394272,1.5077 0.170408,1.92108 3.360418,2.46003 2.108878,0.3563 5.542236,1.37611 7.629683,2.26626 2.087447,0.89015 6.064082,2.15933 8.836965,2.82039 3.310386,0.78921 5.186969,1.75781 5.464924,2.82071 0.423967,1.62125 5.044015,2.31714 21.827228,3.2877 3.443097,0.19911 5.458522,0.79264 6.089788,1.7934 0.518941,0.8227 1.156249,1.37874 1.416241,1.23566 0.259991,-0.14308 1.949274,-0.94312 3.753962,-1.77784 z M 18.095667,333.60851 c 3.601717,-0.99808 7.648152,-2.45349 8.992079,-3.23424 l 2.443504,-1.41955 -2.34375,0.52314 c -6.230494,1.3907 -9.375,1.6401 -9.375,0.7436 0,-0.52563 1.104468,-1.2329 2.454374,-1.5717 4.485549,-1.1258 1.65166,-1.51882 -3.297784,-0.45735 -3.945881,0.84623 -4.66623,1.28572 -3.806097,2.32212 1.4256,1.71774 0.537289,2.90388 -3.8516012,5.14292 C 7.2838763,336.69181 5.625,337.75131 5.625,338.01187 c 0,0.26058 1.3324704,-0.21526 2.9610453,-1.05744 1.6285747,-0.84216 5.9079047,-2.34783 9.5096217,-3.34592 z M 229.8578,332.51945 c -1.64054,-1.6926 -2.9828,-3.75104 -2.9828,-4.57431 0,-2.78432 -9.22822,-10.64761 -15.96847,-13.60661 -2.33734,-1.0261 -5.29047,-3.09407 -6.5625,-4.59549 l -2.31278,-2.72984 -9.01371,0.50408 c -7.99019,0.44683 -9.4007,0.79925 -12.42187,3.1036 -1.8745,1.42974 -3.40817,3.21088 -3.40817,3.95808 0,2.23063 -4.16725,1.56441 -6.63318,-1.06044 -1.74801,-1.86068 -2.97582,-2.33689 -5.31967,-2.06325 -3.18895,0.37229 -3.94525,-0.67697 -1.76283,-2.44567 0.70638,-0.57247 1.72023,-2.72835 2.253,-4.79085 0.53278,-2.0625 2.06328,-7.30171 3.40112,-11.64269 3.84621,-12.4801 2.11125,-9.89687 -2.27051,3.38061 -2.18029,6.60664 -4.33647,12.41587 -4.79149,12.9094 -2.00722,2.17702 -3.48067,-2.15474 -4.53082,-13.32003 -0.59414,-6.31687 -0.89874,-11.80124 -0.67692,-12.1875 0.22183,-0.38626 0.064,-5.34292 -0.35073,-11.01479 -1.77074,-24.21649 -2.0195,-27.21153 -2.29819,-27.66848 -0.16134,-0.26453 -0.56253,-3.63953 -0.89155,-7.5 -0.32901,-3.86046 -0.99442,-9.33933 -1.47869,-12.17527 -1.22256,-7.15953 -3.60114,-46.05259 -3.01747,-49.33968 0.37887,-2.13371 0.23381,-2.4621 -0.69985,-1.58442 -1.43181,1.34596 -0.72765,34.97545 0.86355,41.24127 0.54625,2.15101 1.19805,8.69007 1.44847,14.53125 0.25041,5.84118 0.88023,14.20627 1.39958,18.58908 1.63749,13.81866 2.93807,29.10749 2.53512,29.80106 -0.3157,0.5434 0.56417,10.83532 2.41893,28.29468 0.16772,1.57877 -0.27564,2.42015 -1.39474,2.64687 -1.17257,0.23755 -1.64063,-0.26586 -1.64063,-1.76457 0,-1.15332 -4.78903,-9.30534 -10.6423,-18.11561 -5.85327,-8.81028 -13.9217,-21.08118 -17.92986,-27.26868 -4.00815,-6.1875 -9.00886,-13.04173 -11.11268,-15.23162 l -3.82513,-3.98162 2.01795,-7.73713 c 4.46191,-17.10775 5.05361,-19.08821 6.46358,-21.63424 1.36828,-2.47075 2.11444,-13.23565 0.99501,-14.35508 -0.66985,-0.66984 -4.40407,9.62062 -4.40407,12.13635 0,3.26383 -4.39698,23.66501 -5.57471,25.86562 -0.57956,1.08293 -1.39194,1.96897 -1.80527,1.96897 -1.16317,0 -9.49502,-12.48496 -9.49502,-14.22791 0,-1.31752 -0.402741,-1.3947 -2.717878,-0.52083 -2.259321,0.8528 -3.149627,0.72042 -5.276843,-0.78457 -3.294498,-2.33083 -8.171715,-4.9889 -9.259955,-5.04666 -0.466634,-0.0247 -0.04476,0.85851 0.9375,1.96284 2.161224,2.42982 10.362757,6.4078 13.23732,6.42047 1.197712,0.006 2.539519,0.90179 3.170803,2.11853 0.601931,1.16016 2.554963,3.91639 4.340063,6.12495 1.78511,2.20857 3.02835,4.58185 2.76277,5.27395 -0.27509,0.71685 0.46848,1.69185 1.72786,2.26566 1.21591,0.55401 3.70958,3.24323 5.54149,5.97605 1.8319,2.73282 5.4928,7.61737 8.13533,10.85455 2.64252,3.23717 11.27799,16.66524 19.18994,29.84014 13.00398,21.65411 14.44566,24.48737 15.01332,29.50485 0.34538,3.05276 0.81215,5.55048 1.03726,5.55048 0.2251,0 1.2253,-0.43672 2.22265,-0.97048 1.37385,-0.73526 1.81337,-1.97703 1.81337,-5.12327 0,-3.14624 0.43952,-4.38801 1.81337,-5.12327 3.00457,-1.608 5.55507,-1.10529 7.21049,1.42119 0.86189,1.31541 2.75507,3.00601 4.20706,3.75686 2.31711,1.19823 3.13134,1.19403 6.65765,-0.0343 11.56995,-4.03013 26.09692,0.12876 43.92657,12.57564 4.34699,3.03463 8.08571,5.33796 8.30828,5.11851 0.22256,-0.21944 -0.93759,-1.78385 -2.57812,-3.47646 z M 46.875,323.55852 c 5.929687,-1.98075 12.046875,-3.93354 13.59375,-4.33954 l 2.8125,-0.73817 -2.34375,-0.70125 c -3.2005,-0.95759 -15.036908,0.0578 -17.34375,1.48786 -3.469629,2.15088 -6.09375,2.56083 -6.09375,0.95201 0,-0.80819 -0.632813,-1.46943 -1.40625,-1.46943 -0.773438,0 -1.40625,-0.38356 -1.40625,-0.85236 0,-2.53944 23.920777,-3.57218 34.731571,-1.49948 2.173927,0.41679 6.231549,-0.0591 11.71875,-1.37438 4.616386,-1.10656 11.241085,-2.25859 14.721554,-2.56007 6.823715,-0.59109 8.161075,-1.58517 3.28125,-2.439 -1.675781,-0.29322 -6.84375,-1.22083 -11.484375,-2.06136 -4.640625,-0.84053 -11.142353,-1.3941 -14.448284,-1.23017 -3.826648,0.18976 -6.138933,-0.0811 -6.363451,-0.74541 -0.47959,-1.41902 5.352231,-2.25937 11.020604,-1.58804 4.281538,0.50709 4.634881,0.39604 4.634881,-1.45665 0,-2.53928 0.343949,-2.5139 3.085486,0.22763 1.617567,1.61757 4.149179,2.55501 9.183239,3.4005 3.822516,0.642 9.422685,1.95478 12.444805,2.91729 3.98557,1.26935 7.33304,1.63991 12.1875,1.34913 3.681,-0.22049 7.94675,-0.42884 9.47945,-0.46301 2.64059,-0.0589 2.68975,-0.12975 0.9375,-1.35189 -3.09853,-2.1611 -14.82834,-8.08523 -16.00882,-8.08523 -0.60971,0 -1.35139,-0.63281 -1.64819,-1.40625 -0.29679,-0.77344 -1.29114,-1.41247 -2.20968,-1.42007 -0.91852,-0.007 -2.72473,-0.55632 -4.01379,-1.21937 -1.98253,-1.01975 -2.51253,-0.98149 -3.43882,0.2482 -0.86296,1.14562 -3.048689,1.44555 -10.312496,1.4151 -5.069589,-0.0213 -10.693997,-0.37223 -12.498684,-0.77993 -2.887396,-0.6523 -3.39378,-0.48269 -4.21875,1.41307 -1.308199,3.0062 -8.784083,5.47357 -16.875,5.56948 -3.609375,0.0428 -6.035156,0.29059 -5.390625,0.55066 2.274859,0.91792 1.196983,3.59912 -1.875,4.66401 -1.675781,0.58091 -5.367188,1.95459 -8.203125,3.05263 -2.835938,1.09803 -6.720858,2.06008 -8.633157,2.13787 -1.912299,0.0778 -3.243675,0.51881 -2.958615,0.98005 1.053892,1.70524 -0.719765,5.51311 -2.965661,6.36701 -2.453802,0.93293 -3.111939,3.26326 -1.145692,4.05665 3.148895,1.27061 9.6568,0.26427 19.453125,-3.00809 z m 120.29554,-4.67376 c 1.60143,-0.63138 1.58422,-0.77735 -0.29161,-2.47496 -1.70137,-1.53971 -2.12025,-1.60344 -2.85931,-0.43502 -2.01436,3.18463 -0.67741,4.41935 3.15092,2.90998 z M 142.5,309.91179 c 0,-1.67895 -4.41473,-5.22429 -6.50539,-5.22429 -1.9259,0 -9.26017,-4.61774 -11.68679,-7.35814 -2.39453,-2.70417 -2.91723,-2.54629 -2.81672,0.85081 0.0757,2.55715 0.90629,3.3616 7.66785,7.42615 4.17064,2.50709 8.56214,4.74509 9.75889,4.97334 1.19676,0.22825 2.49232,0.47245 2.87903,0.54267 0.38672,0.0702 0.70313,-0.47452 0.70313,-1.21054 z m 9.3144,-27.20554 c -1.06813,-21.36959 -4.51934,-61.14932 -6.55185,-75.51875 -0.40113,-2.83594 -0.79777,-9.58594 -0.88142,-15 l -0.15208,-9.84375 -3.83059,7.81852 c -2.75869,5.63071 -3.51639,8.01269 -2.70777,8.51245 1.42733,0.88214 0.86335,2.4164 -4.47421,12.17176 -4.38682,8.0177 -7.90267,11.33061 -12.03202,11.33751 -2.35992,0.004 -3.86577,2.87007 -5.84129,11.11784 -1.76355,7.36275 -1.51535,9.31643 1.60404,12.62639 1.54362,1.63791 5.95281,7.82959 9.7982,13.75928 13.80056,21.28084 25.3386,38.54014 25.57525,38.25704 0.13254,-0.15856 -0.0953,-7.01579 -0.50626,-15.23829 z m 77.05368,2.52812 c 2.6538,-6.77963 1.74789,-14.55553 -1.96595,-16.87485 -1.69769,-1.06023 -1.8189,-0.9423 -1.45301,1.41375 1.08881,7.01131 1.28178,13.02547 0.45846,14.28923 -0.75042,1.15186 -1.6812,0.55829 -5.14536,-3.28125 -2.32608,-2.57812 -4.90454,-5.92174 -5.72993,-7.43025 l -1.5007,-2.74275 -1.33189,3.16761 c -1.76873,4.2066 -0.39873,7.50555 4.66274,11.2278 5.2257,3.84302 10.55158,3.94537 12.00564,0.23072 z m -56.66516,-4.16015 c -0.29927,-0.74787 -0.52142,-0.52573 -0.5664,0.56641 -0.0407,0.98827 0.18086,1.54199 0.49239,1.23047 0.31152,-0.31153 0.34482,-1.12013 0.074,-1.79688 z m 48.86783,-14.63975 c -3.27312,-6.53117 -4.84191,-6.36919 -4.34873,0.449 0.31662,4.37716 0.98974,6.29712 3.16814,9.03653 l 2.76609,3.47848 0.2895,-4.32249 c 0.2066,-3.08465 -0.33036,-5.55934 -1.875,-8.64152 z m -152.368763,7.90511 c 4.346967,-1.85222 6.902369,-5.15432 7.610055,-9.83374 l 0.618229,-4.08791 -5.990981,5.25978 c -5.292908,4.64692 -8.12679,6.30943 -8.12679,4.76764 0,-1.30583 6.999638,-14.29589 8.701535,-16.14848 2.391097,-2.6028 1.668966,-2.65534 -3.094564,-0.22517 -5.213911,2.65994 -6.891745,6.36252 -6.288532,13.87729 0.288441,3.59337 0.998879,6.36325 1.754968,6.84235 1.611845,1.02134 1.287426,1.05177 4.81608,-0.45176 z M 213.74707,262.32096 c 0.004,-1.98148 1.78041,-3.14888 4.18778,-2.75155 1.95906,0.32335 8.95362,4.77142 12.45208,7.91868 1.15812,1.04186 2.39634,1.60364 2.75158,1.24839 0.97932,-0.97932 -6.39136,-8.10877 -9.07056,-8.7737 -3.78905,-0.94037 -7.86228,-4.0363 -9.45739,-7.18824 -1.46225,-2.88939 -6.72026,-7.17658 -8.73357,-7.12103 -0.56829,0.0157 -0.18949,0.49311 0.84176,1.06095 1.03125,0.56784 3.24609,2.32527 4.92187,3.9054 3.57394,3.36993 3.94667,6.73337 1.14142,10.29968 -1.91688,2.43691 -4.68988,10.21371 -4.57501,12.83046 0.0818,1.86555 5.53628,-9.38678 5.54004,-11.42904 z m -130.369386,2.02435 c 3.128612,-5.86988 5.268013,-16.91968 3.005114,-15.52114 -2.471067,1.52721 -7.59999,14.35613 -7.62265,19.06645 -0.01695,3.52264 1.451144,2.39545 4.617536,-3.54531 z m -2.590561,-12.91025 c 1.059714,-1.7029 1.737607,-3.28533 1.506428,-3.51651 -0.826049,-0.82604 -9.318031,8.38809 -11.199591,12.15201 l -1.917441,3.83569 4.841925,-4.6875 c 2.663059,-2.57812 5.708964,-6.08078 6.768679,-7.78369 z m 106.068607,-0.88819 c 1.58789,-1.67578 3.3565,-3.04687 3.93024,-3.04687 0.57374,0 1.85405,-0.59294 2.84514,-1.31764 1.68799,-1.23429 1.64183,-1.28703 -0.72969,-0.83368 -1.39241,0.26618 -3.01807,1.07005 -3.61259,1.78639 -0.5945,0.71633 -1.45113,1.30243 -1.90362,1.30243 -1.35506,0 -0.92896,-2.65988 0.55955,-3.49288 1.15915,-0.64869 1.0835,-0.96014 -0.46875,-1.92954 -1.57868,-0.9859 -1.85392,-0.91342 -1.87078,0.4926 -0.0109,0.90672 -1.06373,4.6017 -2.33966,8.21107 -2.67205,7.55865 -2.85023,8.63645 -0.77496,4.6875 0.81292,-1.54687 2.77723,-4.18359 4.36512,-5.85938 z M 72.038708,249.375 c 3.117746,-1.54687 6.325102,-2.8125 7.12746,-2.8125 0.802358,0 1.458832,-0.36523 1.458832,-0.81162 0,-1.51751 -7.015519,0.46401 -11.015625,3.11135 -3.628089,2.40114 -4.631864,3.32527 -3.611835,3.32527 0.204897,0 2.923423,-1.26563 6.041168,-2.8125 z M 87.1875,245.51435 c 0,-0.51563 -0.421875,-0.67677 -0.9375,-0.3581 -0.515625,0.31868 -0.9375,1.00128 -0.9375,1.5169 0,0.51563 0.421875,0.67677 0.9375,0.3581 0.515625,-0.31868 0.9375,-1.00128 0.9375,-1.5169 z m 13.35938,-4.26024 c -0.644536,-0.26007 -1.699224,-0.26007 -2.343755,0 -0.644531,0.26007 -0.117188,0.47287 1.171875,0.47287 1.28906,0 1.81641,-0.2128 1.17188,-0.47287 z m 88.45002,-6.95792 c 0.7563,-3.24197 1.80119,-6.40792 2.32198,-7.03543 0.65458,-0.78873 0.57918,-1.26349 -0.24429,-1.53798 -0.89658,-0.29886 -0.77191,-1.03691 0.50413,-2.98439 2.04379,-3.11923 4.01418,-9.64803 4.83471,-16.01964 l 0.60366,-4.6875 -2.87939,4.88139 c -2.24551,3.8068 -3.17817,7.00984 -4.2366,14.54994 -0.74648,5.3177 -1.79273,11.55857 -2.32499,13.8686 -1.11338,4.832 -1.23045,6.13566 -0.48396,5.38917 0.29131,-0.29131 1.14845,-3.18218 1.90475,-6.42416 z m 9.41645,1.74007 c 0.36165,-0.58517 -0.89121,0.11736 -2.78415,1.56117 -1.89293,1.44381 -3.4417,2.8147 -3.4417,3.04643 0,0.65124 5.48408,-3.40739 6.22585,-4.6076 z m 164.8679,1.69486 c 6.42593,-1.4457 15.71907,-6.27683 17.80631,-9.25678 0.77684,-1.1091 1.41244,-2.93071 1.41244,-4.04803 0,-1.89782 0.42064,-2.0229 6.39247,-1.90079 5.69619,0.11649 6.77707,-0.16191 9.92356,-2.55599 4.22305,-3.21319 7.12782,-7.68895 7.07867,-10.90703 -0.11777,-7.71169 -11.75221,-16.80218 -19.77045,-15.44751 -4.61831,0.78027 -5.41999,-0.93226 -1.34226,-2.86727 4.72758,-2.24339 7.36903,-5.25074 9.28033,-10.5659 1.35912,-3.77958 1.4954,-5.38753 0.70534,-8.32165 -1.46353,-5.4351 -2.82868,-6.71725 -8.79943,-8.26441 -4.85366,-1.2577 -6.11297,-1.25495 -11.71875,0.0256 -9.39763,2.14667 -15.9648,5.80754 -20.00325,11.1508 -1.90009,2.51402 -3.23611,5.14063 -2.96892,5.83692 0.97647,2.54464 -1.58403,1.16199 -5.41255,-2.92275 -5.5297,-5.89977 -10.36735,-7.54487 -21.95851,-7.4673 -7.37719,0.0494 -10.28684,0.47588 -13.65392,2.00139 -4.34299,1.96767 -9.31483,6.87649 -9.31483,9.19677 0,4.25019 3.98077,9.70352 10.68754,14.64107 5.01371,3.69112 8.78839,3.55649 14.1068,-0.50314 5.68222,-4.33733 9.94495,-5.60226 16.55205,-4.91168 3.06638,0.32049 5.6796,0.18323 5.98722,-0.31449 0.33293,-0.5387 1.4501,-0.4712 2.86412,0.17308 1.78164,0.81176 2.85866,0.76708 4.65262,-0.19303 1.28388,-0.68711 2.60602,-0.97759 2.93808,-0.64553 1.0074,1.00739 -1.63528,3.45958 -3.76259,3.49138 -1.97918,0.0296 -1.98011,0.0402 -0.11959,1.37428 1.03125,0.73945 2.40631,1.80105 3.05568,2.35912 2.07517,1.78338 -0.29948,4.21412 -5.39194,5.51927 -4.55766,1.16809 -4.94357,1.12334 -7.00405,-0.81239 -2.47512,-2.32525 -3.818,-1.39466 -1.85715,1.28697 1.1532,1.57709 2.10284,1.70004 8.81024,1.14066 9.23208,-0.76995 13.16847,-1.52178 13.16847,-2.51517 0,-0.41692 -1.16016,-0.89153 -2.57813,-1.05469 -4.78336,-0.55038 -3.52227,-8.26539 1.35106,-8.26539 0.67489,0 1.23353,0.94922 1.24142,2.10937 0.0206,3.03739 1.41535,4.82461 3.22348,4.13077 0.90049,-0.34555 2.66404,0.22656 4.20091,1.36281 2.09591,1.54957 3.03929,1.74943 4.5192,0.95741 3.26055,-1.745 3.12429,-4.36331 -0.4048,-7.77838 -3.0881,-2.98834 -3.53663,-3.12319 -10.20411,-3.06789 -6.89155,0.0572 -8.9607,-0.713 -4.86466,-1.81069 4.52234,-1.21195 11.4772,-0.58828 14.58767,1.30813 2.92408,1.78276 5.80296,6.6275 5.80296,9.76553 0,0.77676 -1.26563,2.06677 -2.8125,2.86669 -2.70203,1.39728 -4.02141,5.15625 -1.8098,5.15625 1.92747,0 0.47894,4.21617 -1.47145,4.28291 -2.44896,0.0838 -6.95893,-2.43612 -8.08473,-4.51729 -1.05379,-1.94804 -4.909,-2.02754 -16.75902,-0.3456 -7.36752,1.04571 -7.9519,1.28709 -7.74543,3.19926 0.12283,1.13753 -0.19357,2.06822 -0.70312,2.06822 -0.50955,0 -0.92645,1.05469 -0.92645,2.34375 0,2.61114 -1.85767,3.29687 -1.90481,0.70312 -0.0271,-1.48848 -0.13606,-1.50114 -1.17548,-0.13642 -0.63011,0.82732 -2.0433,1.78911 -3.14041,2.13731 -2.407,0.76396 -3.61903,-1.49017 -2.21343,-4.11654 0.51376,-0.96 0.93413,-2.82788 0.93413,-4.15084 0,-2.18619 -0.34596,-2.40538 -3.79656,-2.40538 -4.88897,0 -9.32844,-2.2686 -9.32844,-4.76691 0,-1.20476 -0.39923,-1.6595 -1.0849,-1.23574 -0.59669,0.36877 -2.92251,0.60099 -5.16848,0.51604 -3.59594,-0.13601 -4.59533,0.31726 -8.36912,3.79581 -7.14043,6.58182 -10.04855,14.27666 -7.45844,19.73492 3.21213,6.76906 13.04117,9.2925 24.1762,6.20683 5.93562,-1.64484 6.77007,-1.69088 7.4852,-0.41302 1.08666,1.94175 8.41839,6.16207 10.70503,6.16207 1.01174,0 2.24029,0.39368 2.73013,0.87485 0.81327,0.79886 4.65155,1.42358 10.73438,1.74712 1.28906,0.0685 4.875,-0.44481 7.96875,-1.14085 z m -148.86263,-7.14413 c 3.04712,0.43071 6.77994,0.57832 8.29517,0.32803 2.95402,-0.48796 10.72371,-4.1478 10.72371,-5.0513 0,-1.03158 -12.65884,0.1582 -16.19085,1.52174 -4.14339,1.59957 -5.37165,1.70271 -5.37165,0.45111 0,-1.17403 5.00556,-3.77407 7.26578,-3.77407 1.87194,0 9.60922,-4.6644 9.60922,-5.79289 0,-1.10784 -7.40688,1.82476 -12.45686,4.93205 -6.71244,4.1302 -8.07221,2.05651 -1.43538,-2.18902 4.74424,-3.03484 10.67838,-8.91401 9.84178,-9.7506 -0.81867,-0.81867 -9.71048,4.41538 -12.48243,7.34761 -1.61652,1.71 -3.96092,5.28256 -5.20978,7.93902 l -2.27064,4.82991 2.07087,-0.78735 c 1.13898,-0.43303 4.56396,-0.43494 7.61106,-0.005 z M 93.673789,220.15842 c -1.606321,-3.01754 -6.714474,-9.30524 -7.18078,-8.83893 -0.646413,0.64641 2.651951,6.5086 5.186296,9.21761 2.771936,2.96297 3.681423,2.7903 1.994484,-0.37868 z m 149.607461,-0.20073 c 6.50233,-1.81913 10.6952,-2.36794 18.28125,-2.39286 9.20277,-0.0303 23.73013,1.10174 30.70312,2.39239 2.54638,0.47131 3.04838,0.27731 3.05604,-1.18101 0.0196,-3.72668 4.54524,-11.29529 9.32223,-15.59021 l 4.92971,-4.43223 -4.93156,-5.12036 c -5.54788,-5.76028 -5.21055,-5.7133 -20.12684,-2.80321 -15.9073,3.10342 -41.21465,12.96418 -52.9527,20.6325 -2.32031,1.51582 -4.85156,3.0428 -5.625,3.39328 -2.50363,1.1345 0.52002,0.80498 5.00842,-0.54582 7.59619,-2.28613 6.77231,0.23359 -2.35476,7.20166 -2.18044,1.66467 -2.17628,1.6672 2.03384,1.23724 2.32031,-0.23696 8.01562,-1.49307 12.65625,-2.79137 z m -6.09375,-6.94281 c 0,-1.28167 12.93829,-5.82823 22.34303,-7.85142 19.6893,-4.23567 26.07139,-5.41931 29.21947,-5.41913 4.552,2.5e-4 1.99118,1.247 -5.625,2.73854 -23.34351,4.57156 -39.76973,8.68872 -41.67188,10.44487 -1.10575,1.02088 -4.26562,1.08543 -4.26562,0.0872 z m -32.24169,-0.79579 c 2.81892,-5.76167 2.52946,-7.70419 -0.43361,-2.90985 -1.07342,1.73683 -2.81217,3.93662 -3.86389,4.88843 -1.62509,1.47067 -4.71081,6.52282 -4.71081,7.71283 0,0.20483 1.46615,-0.74586 3.25809,-2.11265 1.79196,-1.36679 4.37955,-4.77723 5.75022,-7.57876 z M 97.443478,211.61884 c -1.2429,-3.8545 -1.2873,-3.88737 -1.627687,-1.20521 -0.19246,1.51655 -0.03816,4.68061 0.342815,7.03125 l 0.692738,4.27387 0.93495,-3.06866 c 0.681534,-2.23695 0.588628,-4.14266 -0.342816,-7.03125 z m 88.501722,-1.46622 c -1.70525,-7.1781 -1.70687,-7.1805 -2.01491,-2.99291 -0.27803,3.77973 1.10852,11.21202 2.54121,13.62154 1.34728,2.26587 1.03401,-4.06071 -0.5263,-10.62863 z m -55.89226,1.77533 c 2.17756,-3.83807 3.77277,-7.16475 3.54489,-7.39262 -1.32746,-1.32745 -12.95215,9.4568 -13.83566,12.83538 -0.50646,1.93671 -0.27081,2.08527 2.89008,1.82209 3.21005,-0.26727 3.70777,-0.75587 7.40069,-7.26485 z m -17.55586,2.99392 c -0.002,-2.03025 -1.19361,-5.89223 -2.82105,-9.14062 l -2.81813,-5.625 0.3607,6.22047 c 0.51659,8.90879 5.2852,16.62854 5.27848,8.54515 z M 83.21571,214.16345 C 78.858628,210.03368 75.55217,205.2212 70.049273,195 67.689652,190.61719 63.608599,183.23437 60.980267,178.59375 55.122878,168.25185 50.66991,158.79236 48.264415,151.58133 l -1.818015,-5.44993 -8.457575,0.41116 c -13.650835,0.66361 -19.193475,2.12129 -22.75445,5.98423 -1.675781,1.81788 -3.046875,3.70827 -3.046875,4.20086 0,2.61153 6.812887,11.11648 8.855782,11.05522 0.543382,-0.0163 -0.172188,-1.05075 -1.590157,-2.29878 -2.467729,-2.17198 -3.375908,-4.23409 -1.864754,-4.23409 0.392354,0 2.39626,1.45795 4.453125,3.23991 2.056865,1.78194 6.005816,4.6296 8.775447,6.32812 8.653042,5.30662 18.96277,13.88377 29.183057,24.27875 5.414062,5.50661 12.551431,12.20805 15.860818,14.89209 3.309387,2.68405 6.609053,5.47207 7.332589,6.19561 0.723537,0.72354 1.812731,1.31186 2.420433,1.30739 0.6077,-0.005 -0.471458,-1.50227 -2.39813,-3.32842 z M 205.59364,203.4375 c 5.12887,-7.44852 6.26621,-9.75939 8.99748,-18.28125 4.02024,-12.54359 11.10047,-27.16276 16.86014,-34.81258 4.48773,-5.96049 6.91891,-8.24369 17.79654,-16.71342 6.36792,-4.95831 7.383,-7.95778 4.59377,-13.57435 -2.92707,-5.89415 -5.59015,-7.01851 -12.06995,-5.09597 -7.95614,2.36057 -13.70711,5.68481 -19.01156,10.98926 -5.08383,5.08382 -5.18906,5.32824 -8.53887,19.83206 -0.83363,3.60937 -1.8695,7.82812 -2.30195,9.375 -0.43244,1.54687 -3.02185,12.09375 -5.75425,23.4375 -2.73239,11.34375 -5.24692,20.83594 -5.58783,21.09375 -0.34091,0.25781 -0.91745,3.14971 -1.28118,6.42643 l -0.66133,5.95769 2.67257,-3.14519 c 1.46991,-1.72985 3.3988,-4.19987 4.28642,-5.48893 z M 85.174891,202.26562 C 76.336793,188.13629 72.318893,182.39976 67.089268,176.444 c -2.849244,-3.24487 -6.301572,-7.36963 -7.671839,-9.16615 -3.204051,-4.20072 -3.869968,-3.55077 -1.155151,1.12747 1.157288,1.99426 5.164771,9.32124 8.905518,16.28218 3.740748,6.96094 8.563424,15.1875 10.717059,18.28125 3.550711,5.10068 3.920353,5.26029 2.171093,0.9375 -1.101842,-2.72289 1.98067,-1.32403 5.248539,2.38182 5.166401,5.85882 5.118348,4.36736 -0.129596,-4.02245 z m 108.849959,-3.70991 c 0.0207,-0.88029 1.52991,-6.15373 3.35377,-11.71875 1.82387,-5.56502 3.72403,-12.22759 4.22257,-14.80571 1.66882,-8.6299 9.29055,-33.32888 12.28038,-39.79577 2.41503,-5.22361 1.84361,-9.63396 -1.737,-13.40675 -3.69194,-3.89009 -10.5262,-7.1331 -16.51561,-7.83704 -4.76063,-0.55951 -5.22822,-0.43538 -6.67447,1.77186 -2.10324,3.20995 -2.30285,11.51718 -0.38844,16.16584 0.84413,2.04978 1.97574,4.78155 2.51467,6.07061 0.77448,1.85248 0.99318,0.32953 1.04333,-7.26562 0.0633,-9.57743 1.17458,-12.5688 2.34725,-6.31799 1.42044,7.57158 -0.26671,47.47288 -2.29872,54.36486 -0.45607,1.54687 -1.08376,6.39844 -1.39487,10.78125 -0.31111,4.38281 -1.02537,10.77652 -1.58724,14.20826 -0.56187,3.43173 -0.7182,7.01767 -0.3474,7.96875 0.53522,1.37282 1.13484,0.66647 2.90916,-3.42701 1.22923,-2.83594 2.25191,-5.87649 2.27262,-6.75679 z m -102.515743,2.5514 c -3.664479,-6.94182 -11.315494,-29.32216 -12.18345,-35.63836 -0.354279,-2.57813 -1.048199,-6.58594 -1.542044,-8.90625 -0.493845,-2.32031 -1.773445,-10.125 -2.843554,-17.34375 -2.345426,-15.82178 -3.912543,-21.06753 -7.413257,-24.81506 -5.277722,-5.64982 -11.324519,-2.38881 -15.552396,8.38734 -2.159011,5.50296 -2.474644,7.44317 -2.057089,12.64503 0.27128,3.37957 0.983847,6.73582 1.583482,7.45835 1.626922,1.96032 -0.369966,2.65592 -2.108763,0.73456 -2.471761,-2.73126 -3.043193,-13.1097 -1.076049,-19.54337 0.923546,-3.02052 2.083481,-6.01919 2.577635,-6.66372 2.16155,-2.81934 -1.436394,-0.86469 -5.535029,3.007 -2.433104,2.29838 -5.723993,4.45222 -7.313085,4.78632 -3.444113,0.72409 -7.645105,4.44943 -9.55912,8.47681 -0.970876,2.04286 -2.496981,3.27829 -5.118302,4.1434 -3.495913,1.15376 -11.180586,8.15892 -11.180586,10.19197 0,0.48498 -0.256364,1.54984 -0.569698,2.36638 -0.313334,0.81653 0.719989,0.27986 2.296272,-1.19261 3.694884,-3.45154 11.460795,-5.09486 24.615641,-5.20882 7.2681,-0.063 10.362391,0.26825 11.524107,1.23356 1.007047,0.83679 1.26109,1.64669 0.694304,2.21349 -0.566787,0.56678 0.692313,3.51422 3.441131,8.05535 5.105742,8.43486 4.616031,7.75897 10.01371,13.82067 7.773746,8.73006 13.062406,15.74795 20.640783,27.38972 5.944877,9.13241 7.568123,11.07623 7.828541,9.3746 0.180699,-1.18071 -0.342735,-3.41839 -1.163184,-4.97261 z m 32.659163,4.80679 c -0.30523,-1.21612 -0.0699,-5.54034 0.52283,-9.60938 0.59277,-4.06905 1.27329,-9.08577 1.51227,-11.14827 l 0.4345,-3.75 -1.91192,4.6875 c -1.4483,3.55084 -1.91211,6.79033 -1.91269,13.35937 -4.6e-4,5.26484 0.37459,8.67188 0.9546,8.67188 0.53563,0 0.71155,-0.97143 0.40041,-2.2111 z m -6.23173,-9.68144 c 1.1349,-2.67372 2.06346,-5.52137 2.06346,-6.32813 0,-0.80676 0.37269,-1.46683 0.82821,-1.46683 0.45552,0 1.0585,-0.94922 1.33997,-2.10938 0.28148,-1.16015 1.39298,-5.27343 2.47001,-9.14062 1.07703,-3.86719 2.36752,-9.35156 2.86776,-12.1875 3.30246,-18.72222 8.47692,-41.60787 9.67947,-42.81041 1.05143,-1.05145 2.50203,0.83726 2.50102,3.25637 -5.8e-4,1.38753 -1.48151,9.69466 -3.29095,18.46029 -7.5116,36.38895 -11.28379,61.41298 -9.25584,61.40159 1.94944,-0.011 5.86571,-4.56174 7.66042,-8.90159 1.06616,-2.57813 4.50043,-10.04528 7.63171,-16.59368 3.13127,-6.54841 5.69582,-12.24373 5.69899,-12.65625 0.003,-0.41254 0.66781,-2.0157 1.47696,-3.56257 0.80915,-1.54688 2.94828,-6.39844 4.75361,-10.78125 1.80534,-4.38281 4.29,-9.70617 5.52148,-11.82969 1.23148,-2.12352 1.9781,-4.12189 1.65916,-4.44082 -0.31892,-0.31894 0.88975,-1.19392 2.68594,-1.94442 3.97834,-1.66225 9.56418,-7.25692 11.6644,-11.68282 0.85298,-1.79749 1.55086,-4.96584 1.55086,-7.04076 0,-3.21359 -0.53987,-4.24284 -3.64347,-6.94612 -3.55266,-3.09443 -3.79533,-3.15879 -9.73721,-2.58238 -6.86376,0.66582 -14.79503,4.17496 -18.63742,8.24597 -2.74488,2.90822 -3.86258,3.25881 -3.86258,1.21159 0,-0.76145 2.03616,-2.99394 4.5248,-4.96109 l 4.5248,-3.57666 -2.12303,-1.6014 c -2.64967,-1.99865 -3.9784,-2.01478 -6.1226,-0.0743 -1.57477,1.42515 -1.91046,1.33126 -5.02832,-1.40625 -1.83749,-1.6133 -4.22299,-2.93331 -5.30111,-2.93331 -1.68346,0 -1.45956,0.45858 1.58589,3.24811 4.71266,4.31662 6.98837,7.91071 6.99589,11.04877 0.008,3.39199 -1.76726,3.32028 -2.45112,-0.099 -0.5961,-2.9805 -5.42999,-8.53436 -11.13645,-12.79513 -3.11168,-2.32337 -4.52947,-2.766147 -8.32925,-2.60127 -2.62593,0.11394 -5.28395,0.83645 -6.23136,1.69384 -3.93376,3.56001 -4.75577,15.70324 -1.92594,28.45113 3.91094,17.6181 3.7786,17.51738 3.41777,2.60078 -0.25373,-10.48974 -0.0711,-13.6553 0.74101,-12.8416 1.95549,1.95936 1.27574,36.8673 -1.01404,52.07562 -2.92685,19.43974 -3.42377,26.99817 -2.02861,30.85643 l 1.18787,3.28499 1.51219,-2.53946 c 0.8317,-1.3967 2.44074,-4.72704 3.57565,-7.40075 z m 216.77363,6.72228 c 0.54511,-0.3369 0.73391,-1.42286 0.41958,-2.41325 -0.36958,-1.16443 -0.0518,-2.00017 0.89936,-2.36516 0.80899,-0.31044 1.47089,-1.10045 1.47089,-1.75559 0,-0.65514 0.67847,-1.75423 1.5077,-2.44244 1.281,-1.06313 1.70388,-0.98297 2.8125,0.53315 0.77822,1.06428 1.3048,1.29328 1.3048,0.56743 0,-0.70052 0.60114,-0.98631 1.41651,-0.67342 1.93554,0.74274 7.11278,-0.37349 6.48013,-1.39714 -0.28225,-0.45668 -1.37622,-0.36253 -2.44712,0.2106 -1.41241,0.7559 -2.551,0.75658 -4.20597,0.003 -3.38581,-1.54267 -7.76988,-1.22181 -12.47669,0.91319 -5.16886,2.34457 -7.51686,4.39291 -7.51686,6.55753 0,2.77857 7.0153,4.31436 10.33517,2.26257 z m 19.19608,-5.14224 c 0.33895,-0.54844 -0.6337,-0.9375 -2.34375,-0.9375 -1.71005,0 -2.6827,0.38906 -2.34375,0.9375 0.31867,0.51562 1.37336,0.9375 2.34375,0.9375 0.97039,0 2.02508,-0.42188 2.34375,-0.9375 z m -71.71875,-9.11066 c 3.35156,-0.76276 8.41406,-1.66162 11.25,-1.99746 4.83276,-0.57232 5.13579,-0.75768 4.83021,-2.95438 -0.17933,-1.28906 -0.47799,-2.50178 -0.6637,-2.69495 -0.37362,-0.3886 -11.4641,3.18294 -15.88526,5.11564 -1.54688,0.67622 -5.97656,2.38111 -9.84375,3.78865 -7.71064,2.80646 -16.875,6.8389 -16.875,7.42522 0,0.20467 4.74609,-1.35319 10.54687,-3.46189 5.80079,-2.1087 13.28907,-4.45807 16.64063,-5.22083 z m -78.91787,-8.23309 c 1.07957,-4.64063 2.17646,-9.91406 2.43755,-11.71875 l 0.47469,-3.28125 -0.99945,3.28125 c -3.74218,12.28586 -6.1289,21.55352 -5.66912,22.01331 0.86848,0.86847 1.67123,-1.33152 3.75633,-10.29456 z m -76.06671,-1.58203 c -0.29927,-0.74787 -0.52142,-0.52573 -0.5664,0.56641 -0.0407,0.98827 0.18086,1.54199 0.49239,1.23047 0.31152,-0.31153 0.34482,-1.12013 0.074,-1.79688 z m 222.48458,-5.28685 c 0,-2.44663 -0.22974,-2.61642 -2.99186,-2.21102 l -2.99187,0.43911 2.75749,2.20636 c 1.51662,1.2135 2.86296,2.20846 2.99186,2.21102 0.12891,0.003 0.23438,-1.1879 0.23438,-2.64547 z m -141.57685,-13.678 c 0.0191,-2.39854 -0.51743,-1.65024 -1.28849,1.79688 -0.45944,2.05399 -0.37247,2.43324 0.32251,1.40625 0.52339,-0.77344 0.95808,-2.21484 0.96598,-3.20313 z m 17.28519,-40.48839 c 0.58962,-0.56941 2.32379,-1.71267 3.85373,-2.5406 2.36822,-1.28156 2.48975,-1.51089 0.81761,-1.54284 -1.08025,-0.0207 -2.72766,-0.88129 -3.66093,-1.91254 -2.00916,-2.22009 -5.39901,-2.43581 -7.36607,-0.46875 -1.90706,1.90706 -3.63965,1.76822 -6.55542,-0.52533 -1.35058,-1.06236 -4.04419,-2.13501 -5.98581,-2.38368 l -3.5302,-0.4521 3.96676,2.01069 c 4.94882,2.50849 9.30787,6.89731 10.71473,10.78791 l 1.07609,2.97587 2.79874,-2.45668 c 1.5393,-1.35117 3.28115,-2.92255 3.87077,-3.49195 z m -70.58017,-14.23451 c -0.67635,-0.22545 -1.67547,0.0358 -2.22025,0.58061 -0.69569,0.69569 -0.32966,0.81769 1.22973,0.40991 1.26769,-0.33151 1.69266,-0.75647 0.99052,-0.99052 z M 144.53568,97.5 c 0.19669,-2.0625 0.0492,-3.75 -0.3278,-3.75 -0.7677,0 -2.10095,-6.08331 -1.92356,-8.776781 0.0632,-0.960042 0.83582,-2.542074 1.71687,-3.515625 0.93894,-1.037527 1.15407,-1.770094 0.51981,-1.770094 -0.73117,0 -1.03673,-2.204293 -0.94219,-6.796875 0.077,-3.738281 -0.27827,-8.484375 -0.78938,-10.546875 l -0.92929,-3.75 -0.67404,2.8125 c -0.37071,1.546875 -0.85102,3.65625 -1.06734,4.6875 -0.21632,1.03125 0.10203,4.289099 0.70743,7.239666 1.88571,9.190446 -1.18565,8.570959 -3.61421,-0.728977 -0.7863,-3.011079 -2.29992,-6.55154 -3.36361,-7.867689 l -1.93397,-2.393 0.66859,2.34375 c 0.36773,1.289062 0.99506,3.609375 1.39408,5.15625 1.00367,3.890992 3.83142,9.223775 5.36869,10.124709 0.8577,0.502664 1.27924,2.623959 1.27924,6.437467 0,5.279524 -0.13847,5.651547 -1.92926,5.183244 -1.73866,-0.454668 -1.69235,-0.267594 0.46875,1.893499 1.45581,1.455819 2.39801,3.452834 2.39801,5.082669 0,4.291752 2.54941,3.378252 2.97318,-1.065338 z M 147.1875,90 c 0,-0.515625 -0.18604,-0.9375 -0.41342,-0.9375 -0.22738,0 -0.67415,0.421875 -0.99283,0.9375 -0.31868,0.515625 -0.13264,0.9375 0.41342,0.9375 0.54605,0 0.99283,-0.421875 0.99283,-0.9375 z m -14.94102,-3.210185 c -0.69623,-0.838903 -0.87153,-2.596255 -0.47162,-4.727941 0.65544,-3.493826 -1.2787,-10.257306 -4.03021,-14.093124 -1.24501,-1.735638 -1.29695,-1.64127 -0.69885,1.26964 0.35537,1.729552 1.48626,5.043895 2.51308,7.365206 1.32697,2.999825 1.57659,4.510931 0.86305,5.22447 -0.71354,0.713538 -1.44615,-0.05454 -2.53292,-2.655561 -1.47652,-3.533803 -4.51884,-6.985005 -6.15746,-6.985005 -1.30665,0 -0.90802,1.477249 1.08095,4.005817 1.03125,1.311021 1.875,2.764569 1.875,3.230105 0,1.129148 6.80822,8.661391 7.84916,8.683896 0.44986,0.0097 0.31928,-0.583151 -0.29018,-1.317503 z m 5.53621,-1.24294 c -0.0164,-1.417969 -0.59949,-3.329023 -1.29573,-4.246788 -1.1629,-1.532872 -1.29925,-1.441511 -1.6756,1.122697 -0.42971,2.927758 0.59704,5.702216 2.11022,5.702216 0.49001,0 0.8775,-1.160156 0.86111,-2.578125 z m 19.12518,-2.176104 c 2.93825,-0.739861 5.91686,-2.483522 8.8399,-5.174834 2.42466,-2.232445 3.86433,-4.07574 3.19925,-4.096214 -1.51717,-0.04671 -8.57537,3.467654 -10.68482,5.320095 -1.63919,1.439482 -4.03377,0.831414 -3.04243,-0.772585 0.30956,-0.500889 2.19674,-1.942143 4.19372,-3.202785 3.88882,-2.4549 4.9685,-3.981534 5.95008,-8.413198 0.60761,-2.743255 0.53071,-2.708632 -3.12376,1.40625 -8.31342,9.360803 -8.80909,9.823404 -9.2164,8.601474 -0.22183,-0.665483 0.25669,-1.939279 1.06338,-2.830657 2.09392,-2.313766 4.35071,-8.079075 4.35071,-11.114582 l 0,-2.591487 -2.37075,3.488866 c -2.77741,4.087326 -7.0913,16.253704 -6.40099,18.052608 0.26219,0.683265 -0.29362,2.429627 -1.23514,3.880806 l -1.71187,2.638506 2.87885,-2.03821 c 1.58336,-1.121014 4.87298,-2.540339 7.31027,-3.154053 z M 146.71875,84.375 c 0.31868,-0.515625 0.13264,-0.9375 -0.41342,-0.9375 -0.54606,0 -0.99283,0.421875 -0.99283,0.9375 0,0.515625 0.18604,0.9375 0.41342,0.9375 0.22738,0 0.67415,-0.421875 0.99283,-0.9375 z M 122.17017,80.68125 C 119.76548,77.31536 116.25,75.042494 116.25,76.853678 c 0,0.805357 7.17218,7.521322 8.03226,7.521322 0.28976,0 -0.66068,-1.662188 -2.11209,-3.69375 z m 27.44726,-11.288794 c 0.4729,-3.564942 0.3643,-4.804318 -0.38066,-4.343913 -1.38044,0.853159 -2.98441,6.785732 -2.94401,10.888957 l 0.0323,3.28125 1.31533,-2.419087 c 0.72343,-1.330498 1.61309,-4.66374 1.97702,-7.407207 z M 118.125,72.626138 c 0,-0.274373 -0.63281,-2.013394 -1.40625,-3.864491 -0.77344,-1.851096 -1.40625,-3.525046 -1.40625,-3.719888 0,-0.964761 2.67188,-0.163315 4.28852,1.286366 5.36175,4.808019 5.3359,4.809448 4.83966,-0.267607 -1.20194,-12.297195 -8.32275,-29.966119 -16.10022,-39.949607 -1.06382,-1.365563 -3.78849,-5.075084 -6.05483,-8.243383 C 97.085241,10.597511 90.746856,4.9834822 86.365001,3.7663338 75.763591,0.82157889 67.773533,5.0049363 65.600978,14.637759 c -0.979912,4.344806 1.857818,14.115958 4.94065,17.012129 3.466107,3.256237 9.033911,5.068574 16.112728,5.244739 6.960668,0.173225 9.339128,1.646439 4.085662,2.530656 l -3.083768,0.519033 4.21875,3.951729 c 2.320312,2.173451 6.538603,5.761795 9.37399,7.974099 4.13276,3.224586 6.05197,5.731289 9.67654,12.638613 2.48672,4.738933 5.1239,8.616243 5.86039,8.616243 0.73649,0 1.33908,-0.224487 1.33908,-0.498862 z m 57.94334,-7.757343 c 3.51664,-3.509663 8.05473,-7.610103 10.08465,-9.112089 2.02991,-1.501986 5.2559,-4.325756 7.16883,-6.275045 1.91294,-1.949289 3.65671,-3.544161 3.87503,-3.544161 0.21834,0 0.63117,0.895568 0.9174,1.990151 0.45746,1.749304 0.95288,1.909888 4.09372,1.326926 4.70957,-0.87413 6.44495,-2.574495 7.69527,-7.539958 2.37701,-9.43995 0.4749,-18.404384 -4.28946,-20.21579 -2.98468,-1.134773 -8.75131,0.0089 -14.2554,2.827263 -9.22173,4.721945 -21.40095,20.904551 -29.98493,39.841189 -0.2209,0.487318 1.23364,-0.4619 3.23231,-2.109375 5.67417,-4.677136 5.78087,-4.494595 3.31799,5.676469 -1.27432,5.262642 0.69421,4.570035 8.14459,-2.86558 z m -37.31714,-5.57192 c 0.68099,-2.964844 1.58028,-5.77956 1.99841,-6.254926 0.93962,-1.068233 4.50277,6.546172 4.57212,9.770551 0.0496,2.304009 0.0756,2.311958 1.53704,0.46875 2.37903,-3.000538 6.47736,-12.673994 7.79602,-18.401298 2.46317,-10.698234 -1.17517,-22.124009 -7.47663,-23.479435 -9.17451,-1.973411 -14.07824,2.30636 -16.09094,14.043498 -0.95015,5.540914 -0.86814,7.577664 0.57726,14.335384 1.9438,9.08786 2.31127,9.946528 3.51412,8.211316 0.61428,-0.886147 0.70175,-0.632141 0.28839,0.83741 -0.64541,2.294511 0.15856,5.859375 1.32145,5.859375 0.39853,0 1.28177,-2.425781 1.96276,-5.390625 z"
     id="path4166"
     inkscape:connector-curvature="0" />
</svg>
